<?xml version="1.0" encoding="UTF-8" standalone="no"?>
<!-- Created with Inkscape (http://www.inkscape.org/) -->

<svg
   width="159.41254mm"
   height="55.044838mm"
   viewBox="0 0 159.41254 55.044838"
   version="1.1"
   id="svg6040"
   inkscape:version="1.1.1 (3bf5ae0d25, 2021-09-20)"
   sodipodi:docname="logo.svg"
   xmlns:inkscape="http://www.inkscape.org/namespaces/inkscape"
   xmlns:sodipodi="http://sodipodi.sourceforge.net/DTD/sodipodi-0.dtd"
   xmlns:xlink="http://www.w3.org/1999/xlink"
   xmlns="http://www.w3.org/2000/svg"
   xmlns:svg="http://www.w3.org/2000/svg">
  <sodipodi:namedview
     id="namedview6042"
     pagecolor="#ffffff"
     bordercolor="#666666"
     borderopacity="1.0"
     inkscape:pageshadow="2"
     inkscape:pageopacity="0.0"
     inkscape:pagecheckerboard="0"
     inkscape:document-units="mm"
     showgrid="false"
     inkscape:zoom="0.71891835"
     inkscape:cx="294.19196"
     inkscape:cy="64.680502"
     inkscape:window-width="1920"
     inkscape:window-height="1017"
     inkscape:window-x="-8"
     inkscape:window-y="-8"
     inkscape:window-maximized="1"
     inkscape:current-layer="layer1" />
  <defs
     id="defs6037">
    <linearGradient
       inkscape:collect="always"
       xlink:href="#linearGradient8804"
       id="linearGradient130218"
       gradientUnits="userSpaceOnUse"
       gradientTransform="matrix(1.4031445,0,0,1.4031445,-115.10439,34.690609)"
       x1="298.00388"
       y1="312.27802"
       x2="264.65347"
       y2="252.30109" />
    <linearGradient
       inkscape:collect="always"
       id="linearGradient8804">
      <stop
         style="stop-color:#f3c53c;stop-opacity:1"
         offset="0"
         id="stop8800" />
      <stop
         style="stop-color:#b50459;stop-opacity:1"
         offset="1"
         id="stop8802" />
    </linearGradient>
  </defs>
  <g
     inkscape:label="Capa 1"
     inkscape:groupmode="layer"
     id="layer1"
     transform="translate(-173.71854,-420.99072)">
    <path
       id="path130176"
       style="font-size:40px;line-height:1.25;font-family:'The Hound';-inkscape-font-specification:'The Hound';white-space:pre;fill:url(#linearGradient130218);fill-opacity:1;stroke-width:0.264583"
       d="m 311.74737,420.99188 c -0.22772,-0.003 -0.46307,0 -0.70641,0.007 -0.96025,0.0262 -1.99956,0.1251 -3.11764,0.2961 l 0.0393,0.61135 c 0.0265,0.3946 0.0528,1.01279 0.0791,1.85465 0.0262,0.82872 0.0461,1.77622 0.0594,2.8417 0.0265,1.05233 0.0329,2.34757 0.0196,3.88657 0,1.53908 -0.0193,3.09824 -0.0589,4.67672 l 0.86818,-0.0594 c 0.57878,-0.0259 1.26283,-0.0388 2.05206,-0.0388 0.78925,0 1.39395,0.0332 1.81488,0.0992 l -0.43408,-4.14393 v 0 c 1.13126,1.49961 2.15707,2.94701 3.07785,4.34134 l 0.53279,-0.43408 c 0.35518,-0.27627 0.84862,-0.64502 1.48,-1.10537 0.64455,-0.47361 1.2433,-0.88768 1.79575,-1.2428 l -2.32854,-2.7032 c 0.90762,-0.6182 1.4864,-1.47992 1.73633,-2.58487 0.13147,-0.47358 0.18388,-0.94054 0.15763,-1.40094 -0.0265,-0.46033 -0.0917,-0.90094 -0.1969,-1.32189 -0.0921,-0.43405 -0.28318,-0.83521 -0.57258,-1.20353 -0.27623,-0.38148 -0.61151,-0.72324 -1.00613,-1.02579 -0.38148,-0.30258 -0.87493,-0.55957 -1.48,-0.76997 -0.59196,-0.21053 -1.24955,-0.36166 -1.97303,-0.45373 -0.54261,-0.0787 -1.15546,-0.12052 -1.83864,-0.12557 z m -68.30487,0.24392 c -1.42063,0.066 -3.07164,0.0728 -4.95267,0.0201 l 0.0594,2.50579 c 0.0263,1.6706 0.0393,3.66337 0.0393,5.97844 0,2.30201 -0.033,4.09067 -0.0987,5.3666 l 0.33538,-0.0196 c 0.22363,-0.0267 0.51949,-0.0531 0.8878,-0.0791 0.36832,-0.0259 0.7565,-0.0456 1.16427,-0.0589 0.42093,-0.0127 0.84204,-0.006 1.26298,0.0196 0.43408,0.0259 0.79581,0.0725 1.0852,0.13848 v -6.19598 l 0.33538,0.88831 c 0.21046,0.59192 0.45343,1.40716 0.72967,2.44636 0.28939,1.026 0.49348,1.97999 0.61185,2.86131 l 0.8878,-0.0393 c 0.57877,-0.0393 1.24336,-0.0589 1.99316,-0.0589 0.74977,0 1.28214,0.0332 1.59784,0.0992 l -0.0589,-2.24946 c -0.0395,-1.51267 -0.0594,-3.42013 -0.0594,-5.72214 0,-2.31513 0.0394,-4.27493 0.11834,-5.87973 v 0 c -0.39462,0.0393 -1.03226,0.0521 -1.91358,0.0388 -0.86817,-0.0132 -1.46043,-0.0201 -1.77612,-0.0201 -0.3157,-0.0127 -0.57863,-0.0254 -0.7891,-0.0388 0.18418,1.11808 0.32239,2.98614 0.41445,5.6038 -0.3157,-0.5656 -0.63801,-1.34845 -0.96687,-2.34818 -0.32889,-0.99973 -0.54594,-1.7232 -0.65112,-2.1704 -0.10528,-0.44728 -0.19058,-0.80902 -0.25632,-1.08522 z m 47.29532,0 c -1.42066,0.066 -3.07166,0.0728 -4.95269,0.0201 l 0.0594,2.50579 c 0.0262,1.6706 0.0393,3.66337 0.0393,5.97844 0,2.30201 -0.033,4.09067 -0.0987,5.3666 l 0.33539,-0.0196 c 0.22362,-0.0267 0.51948,-0.0531 0.88781,-0.0791 0.3683,-0.0259 0.75647,-0.0456 1.16424,-0.0589 0.42096,-0.0127 0.84207,-0.006 1.26299,0.0196 0.43408,0.0259 0.79582,0.0725 1.08519,0.13848 v -6.19598 l 0.33539,0.88831 c 0.2105,0.59192 0.45397,1.40716 0.73019,2.44636 0.28941,1.026 0.49295,1.97999 0.61132,2.86131 l 0.88781,-0.0393 c 0.57878,-0.0393 1.24339,-0.0589 1.99316,-0.0589 0.74978,0 1.28265,0.0332 1.59835,0.0992 l -0.0594,-2.24946 c -0.0394,-1.51267 -0.0594,-3.42013 -0.0594,-5.72214 0,-2.31513 0.0399,-4.27493 0.11885,-5.87973 v 0 c -0.39463,0.0393 -1.03275,0.0521 -1.91407,0.0388 -0.86818,-0.0132 -1.46045,-0.0201 -1.77613,-0.0201 -0.3157,-0.0127 -0.57864,-0.0254 -0.78912,-0.0388 0.18421,1.11808 0.3224,2.98614 0.41445,5.6038 -0.31568,-0.5656 -0.63802,-1.34845 -0.96687,-2.34818 -0.3289,-0.99973 -0.54591,-1.7232 -0.65111,-2.1704 -0.10528,-0.44728 -0.19058,-0.80902 -0.2563,-1.08522 z m -18.56685,0 -0.57256,0.0992 c -0.39462,0.0789 -0.95345,0.15774 -1.6769,0.23667 -0.71033,0.0788 -1.40086,0.12464 -2.07171,0.13798 l 0.13798,0.96687 c 0.0921,0.64455 0.17094,1.42737 0.23667,2.34817 0.0657,0.92081 0.10506,1.84137 0.11834,2.76212 0.0132,0.9208 -0.0721,1.71013 -0.25632,2.36781 -0.171,0.6446 -0.44741,0.96687 -0.82889,0.96687 -0.8287,0 -1.13752,-2.13096 -0.92707,-6.39289 l 0.23667,-3.15693 h -0.71054 c -0.47355,0 -1.05881,-0.0265 -1.75597,-0.0791 -0.684,-0.0658 -1.24929,-0.14459 -1.69654,-0.23667 l -0.17776,0.9865 c -0.13156,0.67088 -0.24332,1.52601 -0.33538,2.56521 -0.0921,1.03913 -0.1515,2.1109 -0.17777,3.21583 -0.0263,1.10493 0.0725,2.17064 0.29611,3.1967 0.23673,1.02581 0.60513,1.78194 1.10484,2.26861 0.56563,0.57878 1.2432,1.0064 2.03243,1.2826 0.8024,0.27627 1.59822,0.38803 2.38744,0.33538 0.78925,-0.0526 1.53916,-0.21029 2.24949,-0.47336 0.72348,-0.27626 1.33519,-0.68443 1.83502,-1.2237 0.51302,-0.53933 0.83481,-1.15052 0.96636,-1.83452 0.13142,-0.69717 0.20378,-1.5394 0.21704,-2.52592 0.0132,-0.99976 -0.006,-1.90079 -0.0589,-2.7032 -0.0527,-0.81555 -0.13147,-1.67023 -0.23667,-2.56471 -0.092,-0.89447 -0.16436,-1.49966 -0.21704,-1.81538 -0.0395,-0.31568 -0.0789,-0.5592 -0.11835,-0.7302 z m 35.25935,0 v 0 c -2.45983,0.18415 -5.83416,0.18415 -10.1224,0 l 0.0201,0.29559 c 0.0132,0.18413 0.0196,0.44762 0.0196,0.78962 0.0132,0.32886 0.0201,0.68411 0.0201,1.06556 0.0132,0.36835 0.0132,0.76949 0,1.20356 -0.0132,0.42093 -0.0332,0.79561 -0.0594,1.12448 l 2.9595,-0.13798 c 0.092,3.55158 0.10554,6.72836 0.0398,9.53016 l 0.63098,-0.0992 c 0.42093,-0.066 0.98674,-0.0987 1.69707,-0.0987 0.72345,0 1.38107,0.0654 1.97299,0.19688 l -0.0589,-1.16374 c -0.0265,-0.77616 -0.0528,-1.87481 -0.0791,-3.29541 -0.013,-1.43381 -0.006,-3.15016 0.0201,-5.14956 1.05233,0 2.03224,0.0196 2.93987,0.0589 l -0.0791,-0.67074 c -0.0395,-0.44728 -0.0589,-0.99309 -0.0589,-1.63764 0,-0.64453 0.0459,-1.31559 0.13798,-2.01279 z m -50.92608,0.2372 c -0.52616,0 -1.072,0.0525 -1.63763,0.15761 v 0 c -0.84185,0.15788 -1.58477,0.49316 -2.22932,1.00616 -0.63139,0.513 -1.11838,1.12469 -1.46038,1.83502 -0.342,0.71035 -0.59145,1.48669 -0.7493,2.32854 -0.14477,0.82868 -0.1976,1.65092 -0.15813,2.46653 0.0526,0.8024 0.18434,1.5518 0.3948,2.24895 0.19731,0.64453 0.48669,1.21682 0.86817,1.7167 0.38146,0.48673 0.78911,0.86842 1.22318,1.14461 0.43409,0.27628 0.90758,0.50628 1.42058,0.69041 0.51302,0.17095 0.96706,0.28271 1.36168,0.33538 0.39462,0.066 0.78228,0.0992 1.16375,0.0992 0.8287,0 1.59858,-0.13824 2.3089,-0.41444 0.71032,-0.2894 1.42678,-0.75642 2.15026,-1.40094 l -0.29559,-0.59222 c -0.21047,-0.3946 -0.45396,-0.89408 -0.73019,-1.49913 -0.26308,-0.60507 -0.46068,-1.11852 -0.59221,-1.53945 l -0.23668,0.13848 c -0.15784,0.0789 -0.3684,0.16426 -0.63148,0.25633 -0.24994,0.092 -0.53231,0.17732 -0.84801,0.2563 -0.30254,0.0787 -0.61189,0.10507 -0.9276,0.0791 -0.30253,-0.0265 -0.58544,-0.0987 -0.84852,-0.21704 -0.24994,-0.13155 -0.4535,-0.37455 -0.61134,-0.7297 -0.15785,-0.3552 -0.23719,-0.80277 -0.23719,-1.34201 0,-0.55248 0.0793,-1.01299 0.23719,-1.38132 0.171,-0.36835 0.37456,-0.63124 0.61134,-0.78911 0.24992,-0.15812 0.5393,-0.24996 0.86816,-0.27594 0.34201,-0.0393 0.65137,-0.0331 0.92759,0.0196 0.28939,0.0527 0.58526,0.132 0.88781,0.2372 0.30259,0.092 0.50666,0.16386 0.61184,0.21651 0.10528,0.0397 0.19059,0.0795 0.25632,0.11888 l 0.0393,-0.15815 c 0.0395,-0.0921 0.0854,-0.21685 0.13798,-0.37465 0.0657,-0.171 0.13808,-0.35509 0.21704,-0.55242 0.0789,-0.21048 0.16477,-0.43447 0.25683,-0.67127 0.10525,-0.23675 0.20405,-0.4603 0.29611,-0.67078 0.10528,-0.2236 0.21004,-0.43362 0.31522,-0.63095 0.10526,-0.21047 0.20405,-0.38812 0.29611,-0.53279 l -0.11834,-0.11885 c -0.0921,-0.0789 -0.23028,-0.17727 -0.41444,-0.29559 -0.171,-0.1184 -0.38156,-0.24363 -0.63149,-0.37518 -0.24993,-0.13153 -0.55876,-0.25625 -0.92707,-0.37465 -0.35517,-0.11832 -0.73687,-0.21712 -1.14464,-0.2961 -0.40777,-0.0789 -0.88126,-0.11835 -1.42058,-0.11835 z m -29.93203,0.13745 0.0594,2.4071 c 0.0395,1.6048 0.0589,3.5646 0.0589,5.87973 0,2.30201 -0.0394,4.17007 -0.11834,5.60379 l 0.59222,-0.0388 c 0.38146,-0.0266 0.90733,-0.0599 1.57819,-0.0992 0.68402,-0.0266 1.48631,-0.0599 2.40709,-0.0992 0.92079,-0.0259 1.91419,-0.0456 2.97967,-0.0589 1.06547,0 2.17711,0.007 3.33467,0.0201 l -0.0594,-0.7302 c -0.0394,-0.48673 -0.0853,-1.12437 -0.13798,-1.91357 -0.0395,-0.8024 -0.0724,-1.50638 -0.0987,-2.11151 l -0.90744,0.13798 c -0.59192,0.0921 -1.43416,0.18439 -2.52594,0.27646 -1.07863,0.092 -2.09797,0.12523 -3.05821,0.0992 l -0.0202,-1.08624 c 0.47355,-0.0259 1.09873,-0.019 1.87482,0.0201 0.77608,0.0397 1.32841,0.079 1.65726,0.11835 0.34201,0.0267 0.61144,0.053 0.80874,0.0791 -0.0263,-0.4078 -0.0393,-0.96007 -0.0393,-1.65727 0.013,-0.69712 0.026,-1.16414 0.0393,-1.40094 0.0133,-0.24988 0.0202,-0.45397 0.0202,-0.61185 -0.56564,0.0791 -1.35495,0.1316 -2.36782,0.15761 -1.01286,0.0127 -1.65749,0.006 -1.93373,-0.0196 0,-0.11832 0.013,-0.44066 0.0393,-0.96687 l 6.43269,0.41445 0.0196,-0.84852 c 0.0131,-0.5656 0.0461,-1.21677 0.0987,-1.95337 0.0526,-0.73668 0.10546,-1.276 0.15813,-1.618 l -1.91409,0.0791 c -1.2891,0.0526 -2.84131,0.0791 -4.65657,0.0791 -1.81526,0 -3.2557,-0.0529 -4.32118,-0.15814 z m 47.2953,0 0.0595,2.4071 c 0.0394,1.6048 0.0589,3.56468 0.0589,5.87973 0,2.30201 -0.0394,4.16999 -0.11834,5.60379 l 0.59221,-0.0388 c 0.38148,-0.0266 0.90737,-0.0599 1.57822,-0.0992 0.684,-0.0266 1.48629,-0.0593 2.40707,-0.0987 0.92078,-0.0259 1.91418,-0.0461 2.97966,-0.0594 1.0655,0 2.17715,0.007 3.3347,0.0201 l -0.0594,-0.7302 c -0.0395,-0.48673 -0.0854,-1.12437 -0.13796,-1.91357 -0.0395,-0.8024 -0.0724,-1.50643 -0.0987,-2.11151 l -0.90744,0.13798 c -0.59193,0.0921 -1.43415,0.18439 -2.52593,0.27646 -1.07862,0.092 -2.09796,0.12523 -3.05821,0.0992 l -0.0196,-1.08624 c 0.47355,-0.0259 1.09823,-0.019 1.87431,0.0201 0.7761,0.0397 1.32842,0.079 1.65727,0.11835 0.342,0.0267 0.61195,0.053 0.80925,0.0791 -0.0262,-0.4078 -0.0398,-0.96012 -0.0398,-1.65727 0.013,-0.6972 0.0265,-1.16419 0.0398,-1.40094 0.0132,-0.24993 0.0196,-0.45397 0.0196,-0.61185 -0.5656,0.0792 -1.35493,0.13213 -2.36781,0.15814 -1.01287,0.0127 -1.6575,0.006 -1.93373,-0.0201 0,-0.1184 0.0135,-0.44066 0.0398,-0.96687 l 6.43216,0.41445 0.0201,-0.84852 c 0.0132,-0.56568 0.0456,-1.21677 0.0982,-1.95337 0.0525,-0.73668 0.10546,-1.276 0.15814,-1.618 l -1.9141,0.0791 c -1.2891,0.0526 -2.84128,0.0791 -4.65656,0.0791 -1.81528,0 -3.2557,-0.0529 -4.3212,-0.15814 z m 48.81459,0 v 0 c -0.13155,1.1576 -0.34856,2.42692 -0.65111,3.80804 -0.28938,1.38121 -0.57878,2.59115 -0.86816,3.63027 -0.27625,1.02608 -0.58507,2.07833 -0.9271,3.15693 -0.32882,1.06553 -0.55935,1.77599 -0.6909,2.13111 -0.11835,0.35515 -0.21662,0.63156 -0.29559,0.82892 0.32887,-0.0787 0.75594,-0.10507 1.28209,-0.0791 0.52615,0.0132 0.96723,0.0329 1.32241,0.0589 0.3683,0.0259 0.76295,0.072 1.18391,0.13798 0.43407,0.0787 0.71646,0.12465 0.84801,0.13798 0.1315,0.0266 0.23678,0.053 0.31573,0.0791 0.0921,-0.99973 0.2762,-2.1767 0.55242,-3.53158 l 1.81539,0.0791 c 0.1447,0.81552 0.27643,1.96609 0.39481,3.45249 0.5788,-0.1842 1.3217,-0.32895 2.22933,-0.43407 0.90765,-0.10507 1.55225,-0.16394 1.93373,-0.17727 0.39463,-0.0132 0.71046,-0.0201 0.94723,-0.0201 -0.4078,-1.24968 -0.79597,-2.5649 -1.16427,-3.94603 -0.35517,-1.39432 -0.63807,-2.59124 -0.84852,-3.591 -0.21047,-0.99973 -0.40108,-1.99313 -0.57205,-2.97966 -0.17098,-0.99973 -0.28274,-1.65732 -0.33539,-1.973 -0.0395,-0.32887 -0.0724,-0.58533 -0.0987,-0.76946 -0.77608,0.13153 -1.72956,0.19741 -2.86081,0.19741 -1.13125,-0.0132 -1.93352,-0.0397 -2.40708,-0.0791 -0.4604,-0.0396 -0.82915,-0.079 -1.10537,-0.11833 z m -10.02316,2.84065 c 0.171,0 0.3751,0.0265 0.61185,0.079 0.23678,0.0526 0.47326,0.12499 0.71004,0.21707 0.23677,0.0789 0.43436,0.23011 0.59221,0.4537 0.17095,0.21048 0.24331,0.46686 0.21704,0.76947 0,0.24987 -0.0923,0.47342 -0.27646,0.67077 -0.171,0.18412 -0.36161,0.31586 -0.57206,0.39478 -0.21047,0.0789 -0.45397,0.14476 -0.7302,0.19741 -0.26312,0.0527 -0.44722,0.0854 -0.55242,0.0987 h -0.2563 c -0.0921,-0.88127 -0.0921,-1.84126 0,-2.88044 z m 13.00284,1.57871 c 0.171,0.64453 0.43392,1.82854 0.7891,3.55172 -0.38148,-0.0527 -0.84201,-0.0527 -1.38131,0 0.11837,-1.06546 0.31596,-2.24944 0.59221,-3.55172 z m -121.54504,13.29584 0.20205,4.09017 c 0.13466,2.72674 0.20206,7.05226 0.20206,12.97699 0,5.89108 -0.13481,12.03489 -0.40411,18.43093 l 4.14031,-0.0506 c 2.76039,-0.0337 5.85777,-0.0676 9.29143,-0.10128 3.46731,-0.0337 6.76638,-0.0337 9.89707,0 v -0.75708 c -0.0337,-0.53861 -0.0676,-1.24555 -0.10129,-2.1208 0,-0.90889 -0.017,-1.86848 -0.0506,-2.87837 0,-1.04357 0.017,-2.13741 0.0506,-3.28197 0.0337,-1.17822 0.0676,-2.22216 0.10129,-3.13108 l -0.55553,0.0506 c -0.33663,0.0337 -0.85835,0.0841 -1.56528,0.15142 -0.70692,0.0337 -1.49825,0.0841 -2.37349,0.15142 -0.84159,0.0337 -1.85158,0.0846 -3.02979,0.15192 -1.17822,0.0337 -2.33948,0.0501 -3.48403,0.0501 -0.23564,-9.02177 -0.25262,-16.93241 -0.0506,-23.73239 l -1.81746,0.25218 c -1.17822,0.20198 -2.79431,0.30334 -4.84777,0.30334 -2.05346,0 -3.92166,-0.18523 -5.60482,-0.55552 z m 97.70722,0 -1.46399,0.25218 c -1.00991,0.20198 -2.44078,0.40417 -4.29226,0.60616 -1.81782,0.20198 -3.58518,0.3198 -5.30201,0.35345 l 0.35349,2.47428 c 0.23563,1.64949 0.43783,3.6525 0.60616,6.00893 0.1683,2.35643 0.26916,4.71291 0.30281,7.06935 0.0337,2.35643 -0.18499,4.37589 -0.6563,6.05906 -0.43762,1.64949 -1.14456,2.47425 -2.12079,2.47425 -2.1208,0 -2.91211,-5.45333 -2.3735,-16.36022 l 0.60616,-8.0791 h -1.81798 c -1.21187,0 -2.71012,-0.0674 -4.49429,-0.20206 -1.75048,-0.16831 -3.19781,-0.37 -4.34237,-0.60564 l -0.45423,2.52439 c -0.33663,1.71683 -0.6227,3.90507 -0.85834,6.56445 -0.23566,2.6594 -0.38743,5.40279 -0.45476,8.23052 -0.0673,2.82771 0.18531,5.55464 0.75758,8.18037 0.60595,2.62575 1.54852,4.56133 2.82773,5.80689 1.44751,1.48119 3.18093,2.57503 5.2007,3.28197 2.05349,0.70691 4.09044,0.99351 6.11024,0.85886 2.0198,-0.13467 3.93843,-0.53906 5.75625,-1.21235 1.85147,-0.70691 3.41661,-1.75035 4.69582,-3.13055 1.31286,-1.3802 2.13765,-2.94534 2.47428,-4.69582 0.33663,-1.78417 0.52184,-3.93896 0.55552,-6.46369 0.0336,-2.55842 -0.0167,-4.86394 -0.15142,-6.91743 -0.13465,-2.08711 -0.33687,-4.27535 -0.60616,-6.56444 -0.23564,-2.2891 -0.42035,-3.83778 -0.55502,-4.64572 -0.10099,-0.8079 -0.20235,-1.43047 -0.30332,-1.86809 z m 19.39002,0.8077 c -1.34652,0 -2.74344,0.1348 -4.19095,0.40409 -2.15445,0.37032 -4.05662,1.22852 -5.70611,2.57506 -1.61584,1.31286 -2.86096,2.87854 -3.73621,4.69636 -0.87524,1.81779 -1.51479,3.80383 -1.91875,5.95828 -0.37029,2.12079 -0.50509,4.22463 -0.4041,6.31177 0.13464,2.05346 0.47114,3.97208 1.00975,5.75622 0.47128,1.64952 1.19521,3.11433 2.17144,4.39354 1.00989,1.24552 2.05332,2.22157 3.13055,2.92849 1.1109,0.70694 2.32259,1.27907 3.63545,1.71669 1.34652,0.4713 2.52476,0.77433 3.53465,0.909 1.00992,0.16831 1.98647,0.25271 2.92904,0.25271 2.12077,0 4.08983,-0.37047 5.90765,-1.11107 1.85147,-0.70691 3.70321,-1.88515 5.55469,-3.53464 -0.30298,-5.11683 -0.30298,-10.43589 0,-15.95665 l -11.46234,-0.45424 v 6.26163 c 0.16831,-0.10099 0.58918,-0.11798 1.26244,-0.0506 0.70694,0.0336 1.1947,0.0671 1.46399,0.10075 0.26932,0 0.4885,0.0169 0.65683,0.0506 0.0673,0.77428 0.0838,1.53162 0.0501,2.27222 -0.70691,0.20198 -1.37991,0.33678 -2.01951,0.40412 -0.60595,0.0337 -1.24547,-0.0337 -1.91873,-0.20206 -0.63961,-0.16833 -1.19529,-0.4544 -1.66659,-0.85834 -0.47127,-0.40396 -0.8582,-1.01007 -1.16115,-1.81797 -0.30297,-0.84159 -0.45476,-1.85159 -0.45476,-3.0298 0,-1.41386 0.20219,-2.5921 0.60616,-3.53468 0.43762,-0.94257 0.95935,-1.61554 1.56527,-2.01951 0.63961,-0.40396 1.37999,-0.6396 2.22158,-0.70694 0.87524,-0.10099 1.66658,-0.084 2.37349,0.0506 0.70694,0.10099 1.44733,0.2857 2.22158,0.55502 0.80793,0.26932 1.34662,0.47151 1.61591,0.60616 0.26932,0.10099 0.47152,0.18486 0.60616,0.25217 l 0.6563,-1.71667 c 0.40397,-1.14456 0.94266,-2.47406 1.61592,-3.98891 0.67328,-1.51484 1.26241,-2.65964 1.76734,-3.43389 l -0.30335,-0.30284 c -0.23564,-0.20196 -0.58909,-0.45461 -1.0604,-0.75756 -0.43762,-0.30297 -0.97578,-0.62248 -1.61538,-0.95911 -0.63961,-0.37031 -1.43095,-0.69033 -2.3735,-0.95965 -0.90892,-0.30297 -1.88494,-0.55507 -2.92851,-0.75705 -1.04357,-0.20198 -2.25576,-0.30334 -3.63596,-0.30334 z m -147.49539,0.15142 0.15193,6.16034 c 0.10099,4.10692 0.15141,9.12292 0.15141,15.04765 0,5.89108 -0.10136,10.67144 -0.30334,14.34074 l 1.51516,-0.10129 c 0.97623,-0.0673 2.32271,-0.15121 4.03954,-0.2522 1.75049,-0.0673 3.80392,-0.15168 6.16035,-0.25267 2.35643,-0.0673 4.89813,-0.11777 7.62486,-0.15143 2.72672,0 5.57096,0.0169 8.53333,0.0506 l -0.15141,-1.86862 c -0.10099,-1.24556 -0.21882,-2.87809 -0.35347,-4.89789 -0.10099,-2.05346 -0.18486,-3.85427 -0.25218,-5.40277 l -2.32286,0.35346 c -1.51485,0.23564 -3.66963,0.4713 -6.46369,0.70694 -2.76038,0.23564 -5.36897,0.31951 -7.82639,0.25217 l -0.0506,-2.77709 c 1.21187,-0.0673 2.81098,-0.0503 4.79712,0.0506 1.98613,0.10099 3.40002,0.20185 4.2416,0.30282 0.87524,0.0673 1.56521,0.13475 2.07016,0.20206 -0.0673,-1.04357 -0.10077,-2.45745 -0.10077,-4.24159 0.0337,-1.78416 0.0671,-2.97936 0.10077,-3.58531 0.0337,-0.63961 0.0506,-1.16134 0.0506,-1.56528 -1.44752,0.20198 -3.46751,0.33679 -6.05958,0.4041 -2.59207,0.0337 -4.2416,0.0167 -4.94853,-0.0506 0,-0.30298 0.034,-1.12773 0.10128,-2.47428 l 16.46101,1.06042 0.0506,-2.17093 c 0.0337,-1.44753 0.11804,-3.11404 0.25269,-4.99917 0.13466,-1.88515 0.26894,-3.26559 0.4036,-4.14083 l -4.89789,0.20203 c -3.29901,0.13468 -7.27106,0.20207 -11.91659,0.20207 -4.64553,0 -8.33203,-0.13481 -11.05876,-0.4041 z m 83.15823,0.0284 c -0.39501,-0.003 -0.79692,0.005 -1.20509,0.0222 -3.23168,0.10099 -6.37896,0.77449 -9.44232,2.02001 l 0.0501,1.66606 c 0.0337,1.14456 0.0506,2.79408 0.0506,4.94853 0.0337,2.12079 0.0506,4.46029 0.0506,7.0187 1e-5,2.55842 -0.0504,5.504 -0.15141,8.83666 -0.10099,3.29901 -0.23579,6.48026 -0.40411,9.5436 l 1.71669,0.35349 c 1.11089,0.23564 2.5752,0.45429 4.39302,0.65627 1.85148,0.20198 3.78708,0.33679 5.80688,0.40412 2.05346,0.101 4.1074,-0.0338 6.16086,-0.40412 2.08713,-0.33663 3.80354,-0.92575 5.15008,-1.76734 1.71683,-1.07722 2.96246,-2.57495 3.73671,-4.49376 0.80793,-1.91881 1.094,-3.82098 0.85836,-5.70611 -0.23566,-1.88516 -1.02645,-3.60209 -2.37299,-5.15059 -1.34652,-1.54853 -3.11388,-2.50756 -5.30199,-2.87787 l 0.45424,-0.35346 c 0.30295,-0.23564 0.63944,-0.57266 1.00975,-1.01029 0.37029,-0.47127 0.72377,-1.05989 1.0604,-1.7668 0.33663,-0.70694 0.53883,-1.5317 0.60616,-2.47428 0.0673,-0.97623 -0.0675,-2.08759 -0.40412,-3.33312 -0.53862,-2.05345 -2.03634,-3.61862 -4.49377,-4.69585 -2.12079,-0.94258 -4.56363,-1.42137 -7.32876,-1.43608 z m 0.70125,7.22384 c 0.78268,0.0127 1.52756,0.11997 2.23449,0.32195 0.97624,0.23564 1.38013,0.70694 1.21181,1.41388 -0.10099,0.43762 -0.37059,0.84201 -0.80822,1.21232 -0.40396,0.33663 -0.84129,0.60571 -1.31258,0.80769 -0.43762,0.16833 -0.94287,0.31959 -1.51515,0.45424 -0.57227,0.10099 -0.97617,0.16841 -1.21181,0.20206 -0.20198,0.0337 -0.37023,0.0506 -0.50488,0.0506 -0.23564,-1.31286 -0.38691,-2.74373 -0.45424,-4.29225 l 1.56528,-0.1514 c 0.26931,-0.0169 0.53441,-0.0233 0.7953,-0.019 z m -1.30017,15.42026 1.61592,0.0506 c 1.07722,0.0337 2.18806,0.2693 3.33261,0.70692 1.14455,0.40396 1.78409,0.9761 1.91874,1.71669 0.0673,0.37032 0.0503,0.70681 -0.0506,1.00976 -0.10099,0.30297 -0.26923,0.5556 -0.50488,0.75758 -0.23564,0.20198 -0.53869,0.37023 -0.90898,0.50488 -0.33664,0.13465 -0.69011,0.25249 -1.06041,0.35348 -0.33663,0.0673 -0.72354,0.11774 -1.16117,0.1514 -0.43762,0.0337 -0.82505,0.0671 -1.16168,0.10078 h -0.95912 c -0.33663,-0.0337 -0.55581,-0.0501 -0.6568,-0.0501 h -0.25218 c -0.16832,-1.61584 -0.21874,-3.3832 -0.15141,-5.30199 z" />
  </g>
</svg>
