<?xml version="1.0" encoding="UTF-8" standalone="no"?>
<!-- Created with Inkscape (http://www.inkscape.org/) -->

<svg
   width="30.689335mm"
   height="40.838921mm"
   viewBox="0 0 30.689334 40.838921"
   version="1.1"
   id="svg9361"
   inkscape:version="1.1.1 (3bf5ae0d25, 2021-09-20)"
   sodipodi:docname="man1.svg"
   xmlns:inkscape="http://www.inkscape.org/namespaces/inkscape"
   xmlns:sodipodi="http://sodipodi.sourceforge.net/DTD/sodipodi-0.dtd"
   xmlns="http://www.w3.org/2000/svg"
   xmlns:svg="http://www.w3.org/2000/svg">
  <sodipodi:namedview
     id="namedview9363"
     pagecolor="#ffffff"
     bordercolor="#666666"
     borderopacity="1.0"
     inkscape:pageshadow="2"
     inkscape:pageopacity="0.0"
     inkscape:pagecheckerboard="0"
     inkscape:document-units="mm"
     showgrid="false"
     inkscape:zoom="0.50835204"
     inkscape:cx="646.20573"
     inkscape:cy="-331.46321"
     inkscape:window-width="1920"
     inkscape:window-height="1017"
     inkscape:window-x="-8"
     inkscape:window-y="-8"
     inkscape:window-maximized="1"
     inkscape:current-layer="layer1" />
  <defs
     id="defs9358" />
  <g
     inkscape:label="Capa 1"
     inkscape:groupmode="layer"
     id="layer1"
     transform="translate(-152.183,-1437.4083)">
    <g
       id="g8025"
       transform="translate(-707.84556,-318.08126)">
      <path
         d="m 879.3278,1788.3373 h -7.9114 v -2.9129 h 7.9114 z"
         style="fill:#75bec9;fill-opacity:1;fill-rule:nonzero;stroke:none;stroke-width:0.352778"
         id="path5316" />
      <path
         d="m 878.5465,1781.9906 h -2.84762 -3.57999 c 0,0 0.16263,4.0587 -0.62442,5.237 h 3.87879 3.87915 c -0.78705,-1.1783 -0.70591,-5.237 -0.70591,-5.237"
         style="fill:#f4ae7f;fill-opacity:1;fill-rule:nonzero;stroke:none;stroke-width:0.352778"
         id="path5320" />
      <g
         transform="matrix(0.35277777,0,0,-0.35277777,872.0375,1785.0565)"
         id="g5332">
        <path
           d="m 0,0 c 2.594,-1.679 6.49,-2.518 9.597,-2.548 3.407,-0.034 6.412,0.857 9.298,2.08 -0.541,4.314 -0.444,9.159 -0.444,9.159 H 0.231 C 0.231,8.691 0.411,4.189 0,0"
           style="fill:#f7d9d5;fill-opacity:1;fill-rule:nonzero;stroke:none"
           id="path5330" />
      </g>
      <path
         d="m 887.79139,1790.0399 -9.32991,-3.3419 h -3.0413 -0.10336 -3.04165 l -9.33027,3.3419 c 0,0 -3.26672,1.0753 -2.88537,6.2886 h 15.25729 0.10336 15.25658 c 0.44626,-5.534 -2.88537,-6.2886 -2.88537,-6.2886"
         style="fill:#f4ae7f;fill-opacity:1;fill-rule:nonzero;stroke:none;stroke-width:0.352778"
         id="path5340" />
      <path
         d="m 887.79139,1790.0399 -7.62423,-2.7312 -4.7939,3.3426 -4.68242,-3.386 -7.74594,2.7746 c 0,0 -3.26672,1.0753 -2.88537,6.2886 h 30.61723 c 0.44626,-5.534 -2.88537,-6.2886 -2.88537,-6.2886"
         style="fill:#3ebced;fill-opacity:1;fill-rule:nonzero;stroke:none;stroke-width:0.352778"
         id="path5344" />
      <path
         d="m 875.37319,1790.6514 -0.6283,-3.2138 -3.32846,-2.0133 -0.48506,2.026 z"
         style="fill:#75bec9;fill-opacity:1;fill-rule:nonzero;stroke:none;stroke-width:0.352778"
         id="path5348" />
      <path
         d="m 874.74483,1787.4376 -1.57409,2.8833 -3.84669,-2.6138 2.09232,-2.2832 z"
         style="fill:#c2eae4;fill-opacity:1;fill-rule:nonzero;stroke:none;stroke-width:0.352778"
         id="path5352" />
      <path
         d="m 875.37319,1790.6514 0.62865,-3.2138 3.32846,-2.0133 0.48471,2.026 z"
         style="fill:#75bec9;fill-opacity:1;fill-rule:nonzero;stroke:none;stroke-width:0.352778"
         id="path5356" />
      <path
         d="m 876.00195,1787.4376 1.57374,2.8833 3.84669,-2.6138 -2.09197,-2.2832 z"
         style="fill:#c2eae4;fill-opacity:1;fill-rule:nonzero;stroke:none;stroke-width:0.352778"
         id="path5360" />
      <path
         d="m 882.41309,1774.3729 c -0.2219,1.3702 0.16298,2.588 0.8576,2.7189 0.69462,0.1315 1.43651,-0.8718 1.657,-2.2427 0.21978,-1.3701 -0.16369,-2.5876 -0.85937,-2.7188 -0.69391,-0.1312 -1.43545,0.8724 -1.65523,2.2426"
         style="fill:#f4ae7f;fill-opacity:1;fill-rule:nonzero;stroke:none;stroke-width:0.352778"
         id="path5364" />
      <path
         d="m 883.24836,1774.0026 c 0,0 0.0102,-0.076 0.0377,-0.2014 0.0265,-0.1267 0.0815,-0.3041 0.16721,-0.4932 0.0871,-0.1831 0.22755,-0.3934 0.40393,-0.405 0.0437,0 0.0885,0 0.13371,0.019 0.007,0 0.0536,0.023 0.0677,0.035 0.0148,0.014 0.031,0.02 0.0494,0.041 0.072,0.069 0.12982,0.1761 0.16757,0.2985 0.0416,0.1206 0.0677,0.2554 0.0815,0.3895 0.012,0.1333 0.0201,0.2734 0.005,0.3922 -0.0215,0.1376 -0.0279,0.2787 -0.0526,0.398 -0.0236,0.122 -0.0455,0.237 -0.0663,0.3436 -0.0282,0.1069 -0.0497,0.206 -0.0691,0.2946 -0.0187,0.089 -0.0459,0.1626 -0.0621,0.2261 -0.0356,0.1252 -0.0533,0.199 -0.0533,0.199 0,0 0.0353,-0.063 0.0935,-0.1775 0.0265,-0.059 0.0663,-0.1256 0.10019,-0.2106 0.0346,-0.083 0.0748,-0.1782 0.11466,-0.2836 0.0385,-0.1069 0.072,-0.2286 0.10936,-0.3567 0.0385,-0.1284 0.0564,-0.2593 0.0832,-0.3983 0.0272,-0.1584 0.0311,-0.3115 0.0173,-0.4692 -0.0127,-0.1552 -0.0402,-0.3125 -0.0885,-0.4639 -0.0504,-0.1492 -0.1277,-0.2953 -0.24236,-0.4018 -0.0258,-0.027 -0.0639,-0.05 -0.0991,-0.072 -0.0381,-0.02 -0.0483,-0.021 -0.0949,-0.039 -0.0691,-0.016 -0.13864,-0.022 -0.20955,-0.01 -0.14393,0.023 -0.26317,0.1298 -0.34113,0.2417 -0.0797,0.1121 -0.12771,0.2332 -0.16475,0.3436 -0.0709,0.2247 -0.0854,0.4191 -0.0931,0.5517 -0.005,0.1348 0.005,0.2078 0.005,0.2078"
         style="fill:#f39870;fill-opacity:1;fill-rule:nonzero;stroke:none;stroke-width:0.352778"
         id="path5368" />
      <path
         d="m 883.24836,1774.0026 c 0,0 -0.0642,-0.1464 0.39335,-0.1806 0,0 0.51117,0.095 0.21025,0.7764 -0.0649,0.1468 -0.11994,0.2988 -0.15275,0.4597 -0.0455,0.2286 0.036,0.5387 -0.0864,0.7419 -0.1584,0.2621 -0.56127,0.1132 -0.58491,-0.187 -0.0187,-0.2293 0.21767,-0.623 0.32562,-0.7863 0,0 0.32843,-0.4974 -0.10513,-0.8241"
         style="fill:#f39870;fill-opacity:1;fill-rule:nonzero;stroke:none;stroke-width:0.352778"
         id="path5372" />
      <path
         d="m 883.02787,1775.5837 c 7.1e-4,0 -0.0155,0.01 -0.0356,0.037 -0.0219,0.027 -0.0459,0.07 -0.067,0.1277 -0.0127,0.029 -0.0173,0.061 -0.0236,0.097 -0.006,0.036 -0.0145,0.074 -0.008,0.1136 0.003,0.039 0.004,0.08 0.0106,0.1217 0.008,0.039 0.0243,0.076 0.0374,0.1143 0.0173,0.036 0.0289,0.077 0.0515,0.1037 0.0205,0.03 0.0462,0.054 0.0681,0.079 0.0427,0.054 0.0924,0.084 0.1397,0.1 0.0903,0.039 0.15593,0.038 0.15593,0.038 0,0 -0.0258,-0.082 -0.0713,-0.1658 -0.0113,-0.022 -0.0229,-0.044 -0.0385,-0.064 -0.0109,-0.025 -0.0198,-0.053 -0.0325,-0.076 -0.0123,-0.024 -0.0219,-0.05 -0.0377,-0.072 -0.0162,-0.022 -0.019,-0.052 -0.0296,-0.077 -0.0268,-0.047 -0.0388,-0.099 -0.0557,-0.1496 -0.009,-0.025 -0.0134,-0.05 -0.0194,-0.075 -0.004,-0.026 -0.0148,-0.051 -0.0173,-0.075 -0.018,-0.094 -0.0268,-0.1789 -0.0268,-0.1785"
         style="fill:#f39870;fill-opacity:1;fill-rule:nonzero;stroke:none;stroke-width:0.352778"
         id="path5376" />
      <path
         d="m 868.43684,1774.3729 c 0.22154,1.3702 -0.16334,2.588 -0.85796,2.7189 -0.69426,0.1315 -1.43651,-0.8718 -1.65699,-2.2427 -0.21943,-1.3701 0.16404,-2.5876 0.85901,-2.7188 0.69462,-0.1312 1.43581,0.8724 1.65594,2.2426"
         style="fill:#f4ae7f;fill-opacity:1;fill-rule:nonzero;stroke:none;stroke-width:0.352778"
         id="path5380" />
      <path
         d="m 867.6016,1774.0026 c 0,0 -0.0106,-0.076 -0.0381,-0.2014 -0.0265,-0.1267 -0.0815,-0.3041 -0.16722,-0.4932 -0.0871,-0.1831 -0.22754,-0.3934 -0.40357,-0.405 -0.0441,0 -0.0889,0 -0.13441,0.019 -0.007,0 -0.0533,0.023 -0.0674,0.035 -0.0148,0.014 -0.0311,0.02 -0.049,0.041 -0.072,0.069 -0.12982,0.1761 -0.16757,0.2985 -0.042,0.1206 -0.0681,0.2554 -0.0818,0.3895 -0.0116,0.1333 -0.0198,0.2734 -0.004,0.3922 0.0212,0.1376 0.0275,0.2787 0.0526,0.398 0.0233,0.122 0.0455,0.237 0.066,0.3436 0.0282,0.1069 0.0501,0.206 0.0691,0.2946 0.019,0.089 0.0459,0.1626 0.0621,0.2261 0.036,0.1252 0.0536,0.199 0.0536,0.199 0,0 -0.036,-0.063 -0.0935,-0.1775 -0.0268,-0.059 -0.0663,-0.1256 -0.10019,-0.2106 -0.0349,-0.083 -0.0748,-0.1782 -0.11466,-0.2836 -0.0385,-0.1069 -0.0723,-0.2286 -0.10936,-0.3567 -0.0388,-0.1284 -0.0564,-0.2593 -0.084,-0.3983 -0.0268,-0.1584 -0.0303,-0.3115 -0.0169,-0.4692 0.013,-0.1552 0.0402,-0.3125 0.0889,-0.4639 0.0501,-0.1492 0.12735,-0.2953 0.24236,-0.4018 0.0258,-0.027 0.0639,-0.05 0.0991,-0.072 0.0377,-0.02 0.048,-0.021 0.0949,-0.039 0.0688,-0.016 0.13864,-0.022 0.20919,-0.01 0.14394,0.023 0.26353,0.1298 0.34114,0.2417 0.0797,0.1121 0.1277,0.2332 0.16439,0.3436 0.0713,0.2247 0.0861,0.4191 0.0938,0.5517 0.005,0.1348 -0.005,0.2078 -0.005,0.2078"
         style="fill:#f39870;fill-opacity:1;fill-rule:nonzero;stroke:none;stroke-width:0.352778"
         id="path5384" />
      <path
         d="m 867.6016,1774.0026 c 0,0 0.0639,-0.1464 -0.39335,-0.1806 0,0 -0.51117,0.095 -0.21096,0.7764 0.0649,0.1468 0.12065,0.2988 0.15346,0.4597 0.0452,0.2286 -0.036,0.5387 0.0864,0.7419 0.1584,0.2621 0.56092,0.1132 0.58455,-0.187 0.0183,-0.2293 -0.21731,-0.623 -0.32526,-0.7863 0,0 -0.32843,-0.4974 0.10513,-0.8241"
         style="fill:#f39870;fill-opacity:1;fill-rule:nonzero;stroke:none;stroke-width:0.352778"
         id="path5388" />
      <path
         d="m 867.82191,1775.5837 c -10e-4,0 0.0159,0.01 0.0353,0.037 0.0219,0.027 0.0466,0.07 0.0674,0.1277 0.0127,0.029 0.0173,0.061 0.0236,0.097 0.006,0.036 0.0145,0.074 0.008,0.1136 -0.003,0.039 -0.004,0.08 -0.0109,0.1217 -0.007,0.039 -0.0236,0.076 -0.0374,0.1143 -0.0173,0.036 -0.0289,0.077 -0.0515,0.1037 -0.0205,0.03 -0.0459,0.054 -0.0677,0.079 -0.0427,0.054 -0.0924,0.084 -0.13935,0.1 -0.0903,0.039 -0.15628,0.038 -0.15628,0.038 0,0 0.0261,-0.082 0.0716,-0.1658 0.0113,-0.022 0.0229,-0.044 0.0377,-0.064 0.0116,-0.025 0.0198,-0.053 0.0328,-0.076 0.0123,-0.024 0.0219,-0.05 0.0377,-0.072 0.0162,-0.022 0.019,-0.052 0.0293,-0.077 0.0272,-0.047 0.0388,-0.099 0.0557,-0.1496 0.01,-0.025 0.0138,-0.05 0.0201,-0.075 0.004,-0.026 0.0145,-0.051 0.0166,-0.075 0.018,-0.094 0.0272,-0.1789 0.0272,-0.1785"
         style="fill:#f39870;fill-opacity:1;fill-rule:nonzero;stroke:none;stroke-width:0.352778"
         id="path5392" />
      <path
         d="m 875.50894,1759.59 v 0 c -0.0367,0 -0.0727,7e-4 -0.10901,7e-4 -0.0374,0 -0.0734,-7e-4 -0.11006,-7e-4 v 0 c -5.52309,0.049 -8.62648,1.6218 -7.7784,11.69 l 0.95073,8.0201 c 0,0 0.16934,1.463 1.77377,2.3382 l 3.00073,2.2239 c 0,0 1.42522,0.6333 2.16464,0.5705 0.73837,0.063 2.16394,-0.5708 2.16394,-0.5708 l 3.00002,-2.2243 c 1.60444,-0.8756 1.77342,-2.3386 1.77342,-2.3386 l 1.00153,-7.8341 c 0.84702,-10.0679 -2.30822,-11.8265 -7.83131,-11.8745"
         style="fill:#f4ae7f;fill-opacity:1;fill-rule:nonzero;stroke:none;stroke-width:0.352778"
         id="path5396" />
      <path
         d="m 871.33107,1771.9381 c 0.003,0.5228 0.29704,0.9458 0.65581,0.9437 0.35948,0 0.6477,-0.4283 0.64488,-0.9515 -0.004,-0.5235 -0.29668,-0.9461 -0.65581,-0.944 -0.35878,0 -0.6477,0.4283 -0.64488,0.9518"
         style="fill:#2a1811;fill-opacity:1;fill-rule:nonzero;stroke:none;stroke-width:0.352778"
         id="path5400" />
      <path
         d="m 871.72328,1771.636 c 0,0.1559 -0.12594,0.2815 -0.28116,0.2815 -0.15593,0 -0.28152,-0.1256 -0.28152,-0.2815 0,-0.1549 0.12559,-0.2815 0.28152,-0.2815 0.15522,0 0.28116,0.1266 0.28116,0.2815"
         style="fill:#ffffff;fill-opacity:1;fill-rule:nonzero;stroke:none;stroke-width:0.352778"
         id="path5404" />
      <path
         d="m 879.51886,1771.9381 c -0.003,0.5228 -0.29704,0.9458 -0.65581,0.9437 -0.35913,0 -0.64806,-0.4283 -0.64488,-0.9515 0.003,-0.5235 0.29668,-0.9461 0.65617,-0.944 0.35877,0 0.64734,0.4283 0.64452,0.9518"
         style="fill:#2a1811;fill-opacity:1;fill-rule:nonzero;stroke:none;stroke-width:0.352778"
         id="path5408" />
      <path
         d="m 879.12664,1771.636 c 0,0.1559 0.12594,0.2815 0.28116,0.2815 0.15558,0 0.28152,-0.1256 0.28152,-0.2815 0,-0.1549 -0.12594,-0.2815 -0.28152,-0.2815 -0.15522,0 -0.28116,0.1266 -0.28116,0.2815"
         style="fill:#ffffff;fill-opacity:1;fill-rule:nonzero;stroke:none;stroke-width:0.352778"
         id="path5412" />
      <path
         d="m 876.64908,1777.2389 c -0.13123,0.1782 -0.3115,0.3055 -0.50553,0.4085 -0.0988,0.046 -0.20073,0.094 -0.30868,0.1238 -0.1076,0.028 -0.21837,0.056 -0.33232,0.069 -0.22683,0.026 -0.46602,0.012 -0.6925,-0.053 -0.11571,-0.025 -0.22366,-0.073 -0.33126,-0.1199 -0.10865,-0.046 -0.20355,-0.1157 -0.30409,-0.1743 l -0.22296,-0.1295 0.0603,-0.2653 c 0.12664,-0.5566 0.27446,-1.1087 0.44873,-1.6552 0.0399,-0.1376 0.0882,-0.2734 0.13511,-0.4092 0.0476,-0.1358 0.0917,-0.2724 0.1457,-0.4068 0.10195,-0.2702 0.21026,-0.5394 0.33973,-0.8039 0.0134,0.2942 0.005,0.5842 -0.008,0.8727 -0.004,0.145 -0.018,0.2875 -0.0286,0.4311 -0.0113,0.1436 -0.0208,0.2872 -0.0392,0.429 -0.0582,0.5711 -0.14253,1.1363 -0.24836,1.6972 l -0.16263,-0.3947 c 0.073,0.037 0.14146,0.083 0.21519,0.115 0.0723,0.036 0.14605,0.068 0.2219,0.094 0.0741,0.033 0.15381,0.048 0.23178,0.077 0.0808,0.014 0.16086,0.042 0.24624,0.052 0.0836,0.021 0.17109,0.028 0.26035,0.036 0.0889,0.01 0.18168,0.017 0.27587,0.018 0.0938,-4e-4 0.19261,0.01 0.29139,0 0.10125,3e-4 0.2025,-0.01 0.31221,-0.011"
         style="fill:#eb946e;fill-opacity:1;fill-rule:nonzero;stroke:none;stroke-width:0.352778"
         id="path5416" />
      <path
         d="m 873.34352,1770.007 c -0.06,0.2438 -0.29281,0.3891 -0.51541,0.3489 -0.90276,-0.1658 -1.80975,-0.08 -2.62784,0.2201 -0.20179,0.073 -0.44732,-0.035 -0.56092,-0.2586 -0.11359,-0.2226 -0.0183,-0.4949 0.2279,-0.5866 0.96731,-0.3592 2.03517,-0.4618 3.09492,-0.2734 0.26917,0.048 0.44132,0.3062 0.38135,0.5496"
         style="fill:#914b45;fill-opacity:1;fill-rule:nonzero;stroke:none;stroke-width:0.352778"
         id="path5420" />
      <path
         d="m 877.25664,1770.007 c 0.06,0.2438 0.29281,0.3891 0.51541,0.3489 0.90276,-0.1658 1.80975,-0.08 2.62784,0.2201 0.20179,0.073 0.44732,-0.035 0.56092,-0.2586 0.11359,-0.2226 0.0183,-0.4949 -0.2279,-0.5866 -0.96731,-0.3592 -2.03553,-0.4618 -3.09492,-0.2734 -0.26917,0.048 -0.44132,0.3062 -0.38135,0.5496"
         style="fill:#914b45;fill-opacity:1;fill-rule:nonzero;stroke:none;stroke-width:0.352778"
         id="path5424" />
      <path
         d="m 882.81169,1773.6438 c -0.25894,-0.527 -0.0825,-1.3741 -0.19897,-1.9625 -0.14464,-0.7334 -0.47342,-1.3797 -0.6932,-2.1149 -0.5207,-1.7424 0.77681,-3.8844 -0.93875,-5.1604 -0.83643,-0.622 -2.8522,0.069 -5.01297,0.2127 -2.70298,0.1799 -4.02837,-1.4132 -5.20947,-0.8347 -0.82162,0.4018 -0.90628,0.6128 -1.18216,1.3388 -0.32949,0.8689 -1.05586,1.5293 -1.31021,2.4321 -0.58949,2.0926 0.23354,2.4267 -0.44309,5.4708 0,0 0.0794,-0.5369 -0.64312,-0.907 0,0 -0.66604,-0.1354 -0.91404,0.3729 0.17321,-0.3552 -0.17921,-1.5815 -0.20461,-1.972 -0.0632,-0.9581 -0.17251,-1.9255 -0.0529,-2.8836 0.1277,-1.0273 0.25647,-2.0126 0.2861,-3.0508 0.0321,-1.1384 0.2533,-2.274 0.77294,-3.296 0.0981,-0.1926 0.20814,-0.3775 0.32667,-0.5571 0.56691,-0.8614 1.38113,-0.9376 1.78082,-1.8986 0.53834,-1.2947 0.61701,-2.183 1.98579,-2.6839 2.19498,-0.8037 3.07975,-0.8351 4.68947,-0.3013 1.00048,0.3316 1.74414,0.8992 2.78483,1.1056 1.03576,0.2053 2.14807,0.093 3.0794,0.538 1.87713,0.8964 2.72909,3.2476 3.08927,5.0951 0.41593,2.134 0.0356,3.2396 0.0356,5.4265 0,0.9451 -0.2547,2.3593 -0.42792,4.1105 -0.0335,0.3419 -0.88476,0.1108 -1.25095,0.5232 -0.1658,0.187 -0.35489,1.0767 -0.36512,1.1003 z"
         style="fill:#914b45;fill-opacity:1;fill-rule:nonzero;stroke:none;stroke-width:0.352778"
         id="path5428" />
      <path
         d="m 877.46679,1779.3275 c 0,0 -3.04941,0.8259 -4.08411,0"
         style="fill:none;stroke:#e99076;stroke-width:0.529167;stroke-linecap:round;stroke-linejoin:round;stroke-miterlimit:10;stroke-dasharray:none;stroke-opacity:1"
         id="path5432" />
      <path
         d="m 875.43779,1780.5922 c 0,0 -0.11889,0.03 -0.28116,-0.01 0,0 -0.0152,0.1471 0.15451,0.1482 0,0 0.11078,0.01 0.12665,-0.1429"
         style="fill:#e99076;fill-opacity:1;fill-rule:nonzero;stroke:none;stroke-width:0.352778"
         id="path5436" />
      <path
         d="m 876.07169,1780.1819 c 0,0 -0.74507,0.2268 -1.46579,0.011"
         style="fill:none;stroke:#e99076;stroke-width:0.529167;stroke-linecap:round;stroke-linejoin:round;stroke-miterlimit:10;stroke-dasharray:none;stroke-opacity:1"
         id="path5440" />
    </g>
  </g>
</svg>
