<?xml version="1.0" encoding="UTF-8" standalone="no"?>
<!-- Created with Inkscape (http://www.inkscape.org/) -->

<svg
   width="24.285812mm"
   height="36.46196mm"
   viewBox="0 0 24.285812 36.46196"
   version="1.1"
   id="svg9361"
   inkscape:version="1.1.1 (3bf5ae0d25, 2021-09-20)"
   sodipodi:docname="woman1.svg"
   xmlns:inkscape="http://www.inkscape.org/namespaces/inkscape"
   xmlns:sodipodi="http://sodipodi.sourceforge.net/DTD/sodipodi-0.dtd"
   xmlns="http://www.w3.org/2000/svg"
   xmlns:svg="http://www.w3.org/2000/svg">
  <sodipodi:namedview
     id="namedview9363"
     pagecolor="#ffffff"
     bordercolor="#666666"
     borderopacity="1.0"
     inkscape:pageshadow="2"
     inkscape:pageopacity="0.0"
     inkscape:pagecheckerboard="0"
     inkscape:document-units="mm"
     showgrid="false"
     inkscape:zoom="1.4378367"
     inkscape:cx="57.377865"
     inkscape:cy="118.58092"
     inkscape:window-width="1920"
     inkscape:window-height="1017"
     inkscape:window-x="-8"
     inkscape:window-y="-8"
     inkscape:window-maximized="1"
     inkscape:current-layer="layer1" />
  <defs
     id="defs9358" />
  <g
     inkscape:label="Capa 1"
     inkscape:groupmode="layer"
     id="layer1"
     transform="translate(-58.752002,-720.89264)">
    <g
       id="g8201"
       transform="translate(-839.99313,-1094.9935)">
      <path
         d="m 901.6163,1848.1945 h 19.34562 v -21.4507 H 901.6163 Z"
         style="fill:#381f26;fill-opacity:1;fill-rule:nonzero;stroke:none;stroke-width:0.352778"
         id="path4590" />
      <path
         d="m 906.34599,1848.1945 h 9.88624 v -21.4507 h -9.88624 z"
         style="fill:#241215;fill-opacity:1;fill-rule:nonzero;stroke:none;stroke-width:0.352778"
         id="path4592" />
      <path
         d="m 905.2425,1848.7653 h -3.6262 v -23.264 h 3.6262 z"
         style="fill:#381f26;fill-opacity:1;fill-rule:nonzero;stroke:none;stroke-width:0.352778"
         id="path4594" />
      <path
         d="m 913.50491,1839.3859 h -2.34844 -2.9524 c 0,0 0.13406,4.0594 -0.51505,5.238 h 3.19863 3.19864 c -0.64876,-1.1786 -0.58138,-5.238 -0.58138,-5.238"
         style="fill:#f4ae7f;fill-opacity:1;fill-rule:nonzero;stroke:none;stroke-width:0.352778"
         id="path4598" />
      <g
         transform="matrix(0.35277777,0,0,-0.35277777,908.17465,1841.8805)"
         id="g4610">
        <path
           d="m 0,0 c 2.799,-1.32 5.62,-2.582 8.826,-2.276 2.273,0.217 4.468,0.906 6.496,1.937 -0.274,3.775 -0.214,7.41 -0.214,7.41 H 0.083 C 0.083,7.071 0.195,3.65 0,0"
           style="fill:#f7d9d5;fill-opacity:1;fill-rule:nonzero;stroke:none"
           id="path4608" />
      </g>
      <path
         d="m 920.71498,1846.9248 -7.38293,-2.8825 h -2.40736 -0.0815 -2.407 l -7.38329,2.8825 c 0,0 -2.58551,0.9267 -2.28318,5.4233 h 12.07347 0.0815 12.07382 c 0.35243,-4.7728 -2.28353,-5.4233 -2.28353,-5.4233"
         style="fill:#f4ae7f;fill-opacity:1;fill-rule:nonzero;stroke:none;stroke-width:0.352778"
         id="path4618" />
      <path
         d="m 917.54823,1831.6695 c -0.21872,1.3476 0.16016,2.5453 0.84384,2.6733 0.68298,0.1299 1.41288,-0.8572 1.62948,-2.2055 0.21626,-1.3476 -0.16086,-2.5453 -0.8449,-2.6744 -0.68298,-0.1288 -1.41217,0.8583 -1.62842,2.2066"
         style="fill:#f4ae7f;fill-opacity:1;fill-rule:nonzero;stroke:none;stroke-width:0.352778"
         id="path4622" />
      <path
         d="m 918.36989,1831.305 c 0,0 0.0102,-0.076 0.037,-0.199 0.0261,-0.1238 0.0804,-0.2981 0.16475,-0.4843 0.0857,-0.1803 0.22366,-0.387 0.39687,-0.398 0.0434,0 0.0875,0 0.13159,0.018 0.007,0.01 0.0533,0.024 0.0667,0.035 0.0148,0.014 0.0307,0.02 0.0483,0.04 0.0709,0.069 0.12805,0.1729 0.1651,0.2939 0.0413,0.1189 0.0663,0.2519 0.0804,0.3827 0.0113,0.1316 0.0194,0.2696 0.005,0.386 -0.0212,0.1358 -0.0279,0.2741 -0.0526,0.3916 -0.0229,0.1203 -0.0444,0.2332 -0.0646,0.3379 -0.0279,0.1055 -0.0494,0.2032 -0.0681,0.29 -0.0184,0.088 -0.0452,0.1605 -0.061,0.2219 -0.0353,0.1231 -0.0529,0.1958 -0.0529,0.1958 0,0 0.0353,-0.062 0.0921,-0.1746 0.0261,-0.057 0.0653,-0.1231 0.0984,-0.2068 0.0346,-0.082 0.0734,-0.1753 0.11324,-0.2786 0.0374,-0.1055 0.0706,-0.2251 0.10725,-0.3511 0.0377,-0.1259 0.0557,-0.2554 0.0822,-0.3915 0.0265,-0.1563 0.0303,-0.307 0.0169,-0.4622 -0.0127,-0.1527 -0.0392,-0.3073 -0.0871,-0.4561 -0.0494,-0.1464 -0.12559,-0.2904 -0.23848,-0.3951 -0.0247,-0.025 -0.0628,-0.049 -0.097,-0.07 -0.0377,-0.02 -0.0476,-0.021 -0.0938,-0.038 -0.0677,-0.015 -0.13617,-0.021 -0.20567,-0.01 -0.14182,0.022 -0.25929,0.1277 -0.33549,0.2378 -0.079,0.1097 -0.1263,0.2286 -0.16228,0.3379 -0.0698,0.2209 -0.0843,0.4121 -0.0921,0.5426 -0.004,0.1319 0.006,0.2046 0.006,0.2046"
         style="fill:#f39870;fill-opacity:1;fill-rule:nonzero;stroke:none;stroke-width:0.352778"
         id="path4626" />
      <path
         d="m 918.36989,1831.305 c 0,0 -0.0632,-0.1443 0.38664,-0.1774 0,0 0.50271,0.092 0.20744,0.7634 -0.0639,0.1442 -0.11854,0.2931 -0.15064,0.4515 -0.0448,0.2251 0.0353,0.5302 -0.0854,0.7306 -0.15558,0.2572 -0.55174,0.1104 -0.57503,-0.1841 -0.0183,-0.2258 0.21414,-0.6132 0.32032,-0.773 0,-7e-4 0.3228,-0.49 -0.10336,-0.811"
         style="fill:#f39870;fill-opacity:1;fill-rule:nonzero;stroke:none;stroke-width:0.352778"
         id="path4630" />
      <path
         d="m 918.15286,1832.8598 c 10e-4,0 -0.0155,0.01 -0.0349,0.037 -0.0215,0.026 -0.0455,0.069 -0.066,0.1259 -0.0127,0.028 -0.0169,0.06 -0.0233,0.095 -0.006,0.035 -0.0141,0.073 -0.008,0.1115 0.003,0.038 0.004,0.08 0.0106,0.1203 0.008,0.039 0.024,0.075 0.0367,0.1121 0.0173,0.035 0.0286,0.075 0.0508,0.1027 0.0198,0.029 0.0455,0.053 0.0667,0.078 0.0423,0.053 0.0914,0.083 0.13723,0.098 0.0889,0.039 0.15381,0.038 0.15381,0.038 0,0 -0.0254,-0.081 -0.0706,-0.163 -0.0109,-0.022 -0.0226,-0.043 -0.0374,-0.063 -0.0109,-0.024 -0.019,-0.052 -0.0317,-0.075 -0.0124,-0.024 -0.0219,-0.049 -0.0374,-0.071 -0.0159,-0.022 -0.0187,-0.052 -0.0289,-0.075 -0.0264,-0.046 -0.0381,-0.097 -0.0547,-0.1468 -0.009,-0.025 -0.0137,-0.051 -0.0197,-0.075 -0.003,-0.025 -0.0145,-0.05 -0.0162,-0.073 -0.018,-0.092 -0.0268,-0.1757 -0.0268,-0.1757"
         style="fill:#f39870;fill-opacity:1;fill-rule:nonzero;stroke:none;stroke-width:0.352778"
         id="path4634" />
      <path
         d="m 904.53733,1831.6695 c 0.21802,1.3476 -0.16016,2.5453 -0.84384,2.6733 -0.68298,0.1299 -1.41288,-0.8572 -1.62948,-2.2055 -0.21661,-1.3476 0.16086,-2.5453 0.8449,-2.6744 0.68262,-0.1288 1.41217,0.8583 1.62842,2.2066"
         style="fill:#f4ae7f;fill-opacity:1;fill-rule:nonzero;stroke:none;stroke-width:0.352778"
         id="path4638" />
      <path
         d="m 903.71568,1831.305 c 0,0 -0.0102,-0.076 -0.037,-0.199 -0.0261,-0.1238 -0.0804,-0.2981 -0.16475,-0.4843 -0.0857,-0.1803 -0.22366,-0.387 -0.39723,-0.398 -0.043,0 -0.0868,0 -0.13158,0.018 -0.007,0.01 -0.0529,0.024 -0.0667,0.035 -0.0145,0.014 -0.0303,0.02 -0.048,0.04 -0.0709,0.069 -0.1277,0.1729 -0.1651,0.2939 -0.0409,0.1189 -0.067,0.2519 -0.0804,0.3827 -0.0116,0.1316 -0.0194,0.2696 -0.004,0.386 0.0212,0.1358 0.0275,0.2741 0.0519,0.3916 0.0229,0.1203 0.0448,0.2332 0.0649,0.3379 0.0279,0.1055 0.049,0.2032 0.0681,0.29 0.0187,0.088 0.0452,0.1605 0.061,0.2219 0.0353,0.1231 0.0529,0.1958 0.0529,0.1958 0,0 -0.0353,-0.062 -0.0924,-0.1746 -0.0261,-0.057 -0.0649,-0.1231 -0.0984,-0.2068 -0.0346,-0.082 -0.0734,-0.1753 -0.11289,-0.2786 -0.0377,-0.1055 -0.0709,-0.2251 -0.10725,-0.3511 -0.0377,-0.1259 -0.0554,-0.2554 -0.0825,-0.3915 -0.0261,-0.1563 -0.0303,-0.307 -0.0166,-0.4622 0.0123,-0.1527 0.0392,-0.3073 0.0871,-0.4561 0.0494,-0.1464 0.12559,-0.2904 0.23848,-0.3951 0.0254,-0.025 0.0624,-0.049 0.097,-0.07 0.0374,-0.02 0.0476,-0.021 0.0935,-0.038 0.0681,-0.015 0.13652,-0.021 0.20602,-0.01 0.14182,0.022 0.25929,0.1277 0.33549,0.2378 0.079,0.1097 0.1263,0.2286 0.16228,0.3379 0.0699,0.2209 0.0843,0.4121 0.0917,0.5426 0.005,0.1319 -0.005,0.2046 -0.005,0.2046"
         style="fill:#f39870;fill-opacity:1;fill-rule:nonzero;stroke:none;stroke-width:0.352778"
         id="path4642" />
      <path
         d="m 903.71568,1831.305 c 0,0 0.0631,-0.1443 -0.387,-0.1774 0,0 -0.50235,0.092 -0.20708,0.7634 0.0639,0.1442 0.11854,0.2931 0.15029,0.4515 0.0452,0.2251 -0.0349,0.5302 0.0854,0.7306 0.15593,0.2572 0.55209,0.1104 0.57503,-0.1841 0.0187,-0.2258 -0.21379,-0.6132 -0.31997,-0.773 0,-7e-4 -0.3228,-0.49 0.10336,-0.811"
         style="fill:#f39870;fill-opacity:1;fill-rule:nonzero;stroke:none;stroke-width:0.352778"
         id="path4646" />
      <path
         d="m 903.93235,1832.8598 c -7.1e-4,0 0.0155,0.01 0.0349,0.037 0.0219,0.026 0.0455,0.069 0.066,0.1259 0.0127,0.028 0.0169,0.06 0.024,0.095 0.006,0.035 0.0138,0.073 0.008,0.1115 -0.003,0.038 -0.004,0.08 -0.0106,0.1203 -0.008,0.039 -0.024,0.075 -0.0367,0.1121 -0.0173,0.035 -0.0286,0.075 -0.0508,0.1027 -0.0201,0.029 -0.0455,0.053 -0.067,0.078 -0.042,0.053 -0.0914,0.083 -0.13687,0.098 -0.0893,0.039 -0.15381,0.038 -0.15381,0.038 0,0 0.0254,-0.081 0.0702,-0.163 0.0113,-0.022 0.0229,-0.043 0.0378,-0.063 0.0109,-0.024 0.019,-0.052 0.0317,-0.075 0.0123,-0.024 0.0215,-0.049 0.0374,-0.071 0.0159,-0.022 0.0187,-0.052 0.0286,-0.075 0.0268,-0.046 0.0381,-0.097 0.055,-0.1468 0.009,-0.025 0.0138,-0.051 0.0194,-0.075 0.004,-0.025 0.0145,-0.05 0.0166,-0.073 0.018,-0.092 0.0268,-0.1757 0.0265,-0.1757"
         style="fill:#f39870;fill-opacity:1;fill-rule:nonzero;stroke:none;stroke-width:0.352778"
         id="path4650" />
      <path
         d="m 917.76166,1820.7217 c 0,0 -2.32551,-2.5478 -6.9028,-2.6882 -4.57306,0.2399 -6.89046,2.8752 -6.89046,2.8759 -1.24425,4.0089 -0.44767,8.7094 0.0811,12.7765 0.39088,3.0036 2.41124,5.1054 4.95723,6.568 0,0 0.90065,0.5835 2.09797,0.6499 1.19416,-0.092 2.08033,-0.6922 2.08386,-0.6947 2.47368,-1.6771 4.36704,-3.7493 4.8387,-6.8019 0.40781,-2.6359 0.50024,-5.5492 0.40922,-8.2095 -0.0501,-1.4672 -0.20637,-3.0748 -0.67486,-4.476"
         style="fill:#f4ae7f;fill-opacity:1;fill-rule:nonzero;stroke:none;stroke-width:0.352778"
         id="path4654" />
      <path
         d="m 908.86951,1828.9255 c 0,0 -1.63512,-0.5507 -3.32634,0.2254 0.33337,-1.8051 3.45863,-1.0643 3.45863,-1.0643 0,0 0.20638,0.049 0.1838,0.3718 0,0 -0.0829,0.5546 -0.31609,0.4671"
         style="fill:#381f26;fill-opacity:1;fill-rule:nonzero;stroke:none;stroke-width:0.352778"
         id="path4658" />
      <path
         d="m 912.68152,1828.9255 c 0,0 1.85949,-0.5507 3.55071,0.2254 -0.33302,-1.8051 -3.68335,-1.0643 -3.68335,-1.0643 0,0 -0.20603,0.049 -0.18345,0.3718 0,0 0.0826,0.5546 0.31609,0.4671"
         style="fill:#381f26;fill-opacity:1;fill-rule:nonzero;stroke:none;stroke-width:0.352778"
         id="path4662" />
      <path
         d="m 906.79384,1830.6047 c 0.004,0.5235 0.29704,0.9461 0.65581,0.944 0.35948,0 0.64806,-0.4282 0.64488,-0.9511 -0.004,-0.5238 -0.29668,-0.9461 -0.65581,-0.9443 -0.35878,0 -0.6477,0.4282 -0.64488,0.9514"
         style="fill:#2a1811;fill-opacity:1;fill-rule:nonzero;stroke:none;stroke-width:0.352778"
         id="path4666" />
      <path
         d="m 907.18623,1830.3036 c 0,0.1552 -0.12594,0.2808 -0.28116,0.2808 -0.15593,0 -0.28152,-0.1256 -0.28152,-0.2808 0,-0.1556 0.12559,-0.2819 0.28152,-0.2819 0.15522,0 0.28116,0.1263 0.28116,0.2819"
         style="fill:#ffffff;fill-opacity:1;fill-rule:nonzero;stroke:none;stroke-width:0.352778"
         id="path4670" />
      <path
         d="m 914.98181,1830.6047 c -0.004,0.5235 -0.29704,0.9461 -0.65581,0.944 -0.35913,0 -0.64806,-0.4282 -0.64453,-0.9511 0.003,-0.5238 0.29633,-0.9461 0.65582,-0.9443 0.35877,0 0.64734,0.4282 0.64452,0.9514"
         style="fill:#2a1811;fill-opacity:1;fill-rule:nonzero;stroke:none;stroke-width:0.352778"
         id="path4674" />
      <path
         d="m 914.58942,1830.3036 c 0,0.1552 0.12594,0.2808 0.28116,0.2808 0.15593,0 0.28187,-0.1256 0.28187,-0.2808 0,-0.1556 -0.12594,-0.2819 -0.28187,-0.2819 -0.15522,0 -0.28116,0.1263 -0.28116,0.2819"
         style="fill:#ffffff;fill-opacity:1;fill-rule:nonzero;stroke:none;stroke-width:0.352778"
         id="path4678" />
      <path
         d="m 909.26004,1836.5078 c 0.004,0.5059 0.72002,0.9158 1.60443,0.9158 0.88477,0 1.60126,-0.4099 1.60479,-0.9158 z"
         style="fill:#ffffff;fill-opacity:1;fill-rule:nonzero;stroke:none;stroke-width:0.352778"
         id="path4682" />
      <path
         d="m 912.3842,1836.6491 c 0.37782,-0.091 0.52282,-0.1933 0.52282,-0.1933 0,0 -0.26176,-0.1101 -0.62971,-0.2216 -0.94545,-0.399 -0.88089,0.1179 -1.3843,0.1165 -0.25224,0.01 -0.50377,-0.2671 -0.73978,-0.2339 -0.236,0.027 -0.45614,0.069 -0.64487,0.1188 -0.37783,0.092 -0.63007,0.2202 -0.63007,0.2202 0,0 0.19368,0.1287 0.57115,0.2212 0,0 0.56304,-0.02 1.02659,0.05 0,0 0.42791,0.1076 0.71508,0.018 0,0 0.6798,-0.1436 1.19309,-0.096"
         style="fill:#f36178;fill-opacity:1;fill-rule:nonzero;stroke:none;stroke-width:0.352778"
         id="path4686" />
      <path
         d="m 912.59093,1836.4548 c -0.37006,0.3806 -0.94968,0.7278 -1.83974,0.7278 0,0 -0.86254,-7e-4 -1.56033,-0.7278 h -0.32209 c 0.0109,0.026 0.019,0.05 0.0314,0.077 0.0822,0.1456 0.15028,0.3189 0.27305,0.4737 0.0589,0.079 0.11924,0.1613 0.18168,0.2438 0.0639,0.083 0.15099,0.1506 0.22931,0.2279 l 0.12241,0.1139 0.14464,0.096 c 0.10195,0.062 0.18521,0.139 0.31785,0.176 0.11959,0.042 0.25859,0.099 0.36795,0.1175 l 0.15769,0.021 0.0794,0.01 0.0392,0.01 h 0.0201 0.0529 l 0.37465,-0.047 c 0.12241,-0.023 0.2346,-0.078 0.34995,-0.1164 0.11995,-0.034 0.21026,-0.1129 0.3101,-0.1739 l 0.14463,-0.095 0.12277,-0.1146 c 0.078,-0.077 0.1651,-0.145 0.2286,-0.2279 0.0628,-0.083 0.12312,-0.1648 0.18203,-0.2438 0.12242,-0.1541 0.1905,-0.3281 0.2727,-0.4748 0.013,-0.025 0.0208,-0.049 0.0321,-0.075 z"
         style="fill:#f36178;fill-opacity:1;fill-rule:nonzero;stroke:none;stroke-width:0.352778"
         id="path4690" />
      <path
         d="m 910.8644,1837.6647 c 1.31445,-0.088 1.55787,-0.852 1.55787,-0.852 -0.59585,0.7377 -1.55787,0.6368 -1.55787,0.6368 0,0 -0.0868,0.01 -0.0868,0.1143 0,0 0.0201,0.1062 0.0868,0.1009"
         style="fill:#ffffff;fill-opacity:1;fill-rule:nonzero;stroke:none;stroke-width:0.352778"
         id="path4694" />
      <path
         d="m 920.96199,1827.7252 c 0,0 0.40146,-10.2754 -7.59954,-11.7344 0,0 -5.67337,-0.906 -7.80168,2.6133 l 2.12831,5.3877 c 0,0 -0.0381,1.9251 8.85402,3.8219 0,0 1.82033,0.465 1.93287,3.8616 0,0 0.30868,-2.3654 2.48602,-3.9501"
         style="fill:#381f26;fill-opacity:1;fill-rule:nonzero;stroke:none;stroke-width:0.352778"
         id="path4698" />
      <path
         d="m 909.96404,1834.1772 c 0,0 0.012,0 0.0349,-0.01 0.0215,0 0.0554,-0.017 0.0928,-0.023 0.0769,-0.017 0.17921,-0.036 0.29068,-0.055 0.11042,-0.015 0.22896,-0.031 0.34537,-0.037 0.11642,-0.01 0.23178,-0.01 0.34361,-0.01 0.11148,0 0.22119,0.012 0.33055,0.022 0.0557,0.01 0.11007,0.012 0.16475,0.019 0.0557,0.01 0.11042,0.017 0.16334,0.022 0.0526,0 0.10795,0.02 0.15628,0.026 0.0462,0 0.0928,0.012 0.13123,0.018 0.0374,0 0.0734,0.014 0.0956,0.018 0.0229,0.01 0.0356,0.01 0.0356,0.01 0,0 -0.003,0.012 -0.009,0.034 -0.007,0.02 -0.0134,0.057 -0.03,0.093 -0.0296,0.079 -0.0833,0.1838 -0.17603,0.2826 -0.0452,0.052 -0.0991,0.1013 -0.16334,0.1429 -0.0635,0.043 -0.133,0.089 -0.21131,0.1168 -0.078,0.032 -0.16087,0.062 -0.2473,0.073 -0.0861,0.018 -0.17498,0.025 -0.26282,0.021 -0.0889,0 -0.17462,-0.016 -0.25858,-0.033 -0.0836,-0.018 -0.16264,-0.047 -0.23601,-0.08 -0.14676,-0.068 -0.26953,-0.157 -0.35984,-0.2536 -0.0907,-0.096 -0.15099,-0.1937 -0.18556,-0.2703 -0.0183,-0.034 -0.0275,-0.071 -0.0349,-0.092 -0.006,-0.023 -0.01,-0.035 -0.01,-0.035"
         style="fill:#f59679;fill-opacity:1;fill-rule:nonzero;stroke:none;stroke-width:0.352778"
         id="path4702" />
      <path
         d="m 918.64707,1852.348 c -0.0201,-2.1216 0.11642,-4.2517 1.82527,-5.5181 l -6.38598,-2.4931 -3.3087,3.0476 -2.95275,-3.1041 -6.60436,2.5781 c 1.25095,0.7091 1.61537,2.5199 1.71415,3.8361 0.0385,0.5119 0.0596,1.0771 0.0395,1.6535 z"
         style="fill:#6347a5;fill-opacity:1;fill-rule:nonzero;stroke:none;stroke-width:0.352778"
         id="path4706" />
      <path
         d="m 908.86884,1823.6607 c 0,0 -4.95441,1.0502 -4.93536,8.0373 0,0 -0.21131,-2.2461 -1.53176,-1.9424 0,0 -3.70064,-9.2865 4.96358,-11.903 z"
         style="fill:#381f26;fill-opacity:1;fill-rule:nonzero;stroke:none;stroke-width:0.352778"
         id="path4710" />
      <path
         d="m 906.79384,1822.1642 0.4385,2.5121 0.61172,-0.3228 z"
         style="fill:#f4ae7f;fill-opacity:1;fill-rule:nonzero;stroke:none;stroke-width:0.352778"
         id="path4714" />
    </g>
  </g>
</svg>
