<?xml version="1.0" encoding="UTF-8" standalone="no"?>
<!-- Created with Inkscape (http://www.inkscape.org/) -->

<svg
   width="24.285971mm"
   height="35.790237mm"
   viewBox="0 0 24.28597 35.790238"
   version="1.1"
   id="svg9361"
   inkscape:version="1.1.1 (3bf5ae0d25, 2021-09-20)"
   sodipodi:docname="woman2.svg"
   xmlns:inkscape="http://www.inkscape.org/namespaces/inkscape"
   xmlns:sodipodi="http://sodipodi.sourceforge.net/DTD/sodipodi-0.dtd"
   xmlns="http://www.w3.org/2000/svg"
   xmlns:svg="http://www.w3.org/2000/svg">
  <sodipodi:namedview
     id="namedview9363"
     pagecolor="#ffffff"
     bordercolor="#666666"
     borderopacity="1.0"
     inkscape:pageshadow="2"
     inkscape:pageopacity="0.0"
     inkscape:pagecheckerboard="0"
     inkscape:document-units="mm"
     showgrid="false"
     inkscape:zoom="0.50835204"
     inkscape:cx="490.80161"
     inkscape:cy="-351.13462"
     inkscape:window-width="1920"
     inkscape:window-height="1017"
     inkscape:window-x="-8"
     inkscape:window-y="-8"
     inkscape:window-maximized="1"
     inkscape:current-layer="layer1" />
  <defs
     id="defs9358" />
  <g
     inkscape:label="Capa 1"
     inkscape:groupmode="layer"
     id="layer1"
     transform="translate(-193.26552,-1442.457)">
    <g
       id="g8064"
       transform="translate(-705.47945,-318.08146)">
      <path
         d="m 918.46884,1792.1758 h -16.4659 v -18.1038 h 16.4659 z"
         style="fill:#914026;fill-opacity:1;fill-rule:nonzero;stroke:none;stroke-width:0.352778"
         id="path5164" />
      <path
         d="m 914.18859,1789.3688 h -6.82272 v -2.5122 h 6.82272 z"
         style="fill:#75bec9;fill-opacity:1;fill-rule:nonzero;stroke:none;stroke-width:0.352778"
         id="path5166" />
      <path
         d="m 913.50491,1783.3669 h -2.34844 -2.9524 c 0,0 0.13406,4.0587 -0.5147,5.2373 h 3.19828 3.19899 c -0.64911,-1.1786 -0.58173,-5.2373 -0.58173,-5.2373"
         style="fill:#f4ae7f;fill-opacity:1;fill-rule:nonzero;stroke:none;stroke-width:0.352778"
         id="path5170" />
      <g
         transform="matrix(0.35277777,0,0,-0.35277777,908.17465,1785.8613)"
         id="g5182">
        <path
           d="m 0,0 c 2.8,-1.319 5.62,-2.582 8.826,-2.276 2.273,0.217 4.468,0.906 6.496,1.937 -0.273,3.776 -0.213,7.41 -0.213,7.41 H 0.083 C 0.083,7.071 0.195,3.651 0,0"
           style="fill:#f7d9d5;fill-opacity:1;fill-rule:nonzero;stroke:none"
           id="path5180" />
      </g>
      <path
         d="m 920.71498,1790.9051 -7.38293,-2.8825 h -2.40736 -0.0815 -2.407 l -7.38329,2.8825 c 0,0 -2.58551,0.9271 -2.28318,5.4236 h 12.07347 0.0815 12.07382 c 0.35243,-4.7727 -2.28353,-5.4236 -2.28353,-5.4236"
         style="fill:#f4ae7f;fill-opacity:1;fill-rule:nonzero;stroke:none;stroke-width:0.352778"
         id="path5190" />
      <path
         d="m 917.54823,1775.65 c -0.21802,1.3476 0.16016,2.5456 0.8442,2.6741 0.68297,0.1294 1.41252,-0.8573 1.62912,-2.206 0.21626,-1.3479 -0.16086,-2.5453 -0.8449,-2.674 -0.68298,-0.1298 -1.41217,0.8579 -1.62842,2.2059"
         style="fill:#f4ae7f;fill-opacity:1;fill-rule:nonzero;stroke:none;stroke-width:0.352778"
         id="path5194" />
      <path
         d="m 918.36989,1775.2859 c 0,0 0.0102,-0.076 0.0374,-0.199 0.0258,-0.1238 0.0801,-0.2984 0.1644,-0.485 0.0857,-0.18 0.22366,-0.387 0.39723,-0.398 0.043,0 0.0871,0.01 0.13158,0.019 0.007,0 0.0529,0.023 0.0663,0.034 0.0148,0.014 0.031,0.02 0.049,0.041 0.0702,0.068 0.12735,0.1729 0.1644,0.2939 0.0413,0.1185 0.0667,0.2515 0.0804,0.3827 0.0116,0.1316 0.0194,0.2692 0.005,0.386 -0.0212,0.1354 -0.0279,0.2744 -0.0526,0.3916 -0.0229,0.1199 -0.0444,0.2332 -0.0646,0.3379 -0.0275,0.1055 -0.0494,0.2029 -0.0681,0.29 -0.0184,0.088 -0.0452,0.1598 -0.061,0.2219 -0.0353,0.1231 -0.0529,0.1962 -0.0529,0.1962 0,0 0.0353,-0.062 0.0921,-0.175 0.0265,-0.057 0.0653,-0.1235 0.0988,-0.2064 0.0346,-0.083 0.0737,-0.1757 0.11289,-0.2794 0.0378,-0.1051 0.0709,-0.2247 0.10725,-0.351 0.0385,-0.1263 0.0561,-0.2551 0.0826,-0.3916 0.0264,-0.1559 0.03,-0.3066 0.0169,-0.4618 -0.013,-0.1524 -0.0395,-0.3073 -0.0875,-0.4565 -0.0494,-0.1464 -0.12559,-0.2903 -0.23848,-0.3951 -0.0247,-0.026 -0.0628,-0.049 -0.097,-0.07 -0.0374,-0.02 -0.0476,-0.02 -0.0935,-0.038 -0.0681,-0.016 -0.13652,-0.022 -0.20602,-0.01 -0.14182,0.022 -0.25929,0.1281 -0.33549,0.2378 -0.0787,0.1101 -0.12594,0.2293 -0.16228,0.338 -0.0698,0.2208 -0.0843,0.4127 -0.0917,0.5425 -0.005,0.1327 0.005,0.205 0.005,0.205"
         style="fill:#f39870;fill-opacity:1;fill-rule:nonzero;stroke:none;stroke-width:0.352778"
         id="path5198" />
      <path
         d="m 918.36989,1775.2859 c 0,0 -0.0632,-0.1443 0.38664,-0.1778 0,0 0.50271,0.093 0.20744,0.7634 -0.0639,0.1446 -0.11854,0.2939 -0.15064,0.4523 -0.0448,0.225 0.0353,0.5298 -0.0854,0.7299 -0.15558,0.2575 -0.55174,0.1111 -0.57468,-0.1838 -0.0183,-0.2258 0.21379,-0.6132 0.31997,-0.7733 0,-4e-4 0.3228,-0.4897 -0.10336,-0.8107"
         style="fill:#f39870;fill-opacity:1;fill-rule:nonzero;stroke:none;stroke-width:0.352778"
         id="path5202" />
      <path
         d="m 918.15318,1776.8407 c 7.1e-4,0 -0.0155,0.01 -0.0349,0.036 -0.0215,0.026 -0.0459,0.069 -0.0663,0.126 -0.0123,0.028 -0.0166,0.06 -0.0229,0.096 -0.006,0.035 -0.0145,0.073 -0.008,0.1115 0.003,0.038 0.004,0.079 0.0106,0.1199 0.008,0.039 0.024,0.075 0.037,0.1122 0.0169,0.035 0.0282,0.076 0.0508,0.1026 0.0201,0.03 0.0452,0.053 0.0663,0.078 0.0423,0.053 0.0914,0.083 0.13759,0.098 0.0889,0.039 0.15345,0.038 0.15345,0.038 0,0 -0.0254,-0.082 -0.0702,-0.1634 -0.0113,-0.022 -0.0226,-0.043 -0.0377,-0.063 -0.0109,-0.024 -0.019,-0.052 -0.0317,-0.074 -0.0123,-0.024 -0.0215,-0.049 -0.037,-0.071 -0.0162,-0.022 -0.0187,-0.052 -0.0289,-0.075 -0.0265,-0.046 -0.0381,-0.098 -0.055,-0.1471 -0.009,-0.025 -0.0138,-0.05 -0.019,-0.074 -0.004,-0.026 -0.0148,-0.05 -0.0169,-0.074 -0.018,-0.093 -0.0268,-0.1761 -0.0265,-0.1757"
         style="fill:#f39870;fill-opacity:1;fill-rule:nonzero;stroke:none;stroke-width:0.352778"
         id="path5206" />
      <path
         d="m 904.53733,1775.65 c 0.21837,1.3476 -0.16016,2.5456 -0.84384,2.6741 -0.68298,0.1294 -1.41253,-0.8573 -1.62948,-2.206 -0.2159,-1.3479 0.16121,-2.5453 0.8449,-2.674 0.68262,-0.1298 1.41217,0.8579 1.62842,2.2059"
         style="fill:#f4ae7f;fill-opacity:1;fill-rule:nonzero;stroke:none;stroke-width:0.352778"
         id="path5210" />
      <path
         d="m 903.71568,1775.2859 c 0,0 -0.01,-0.076 -0.037,-0.199 -0.0261,-0.1238 -0.0804,-0.2984 -0.16475,-0.485 -0.0854,-0.18 -0.22366,-0.387 -0.39687,-0.398 -0.043,0 -0.0871,0.01 -0.13159,0.019 -0.007,0 -0.0529,0.023 -0.067,0.034 -0.0145,0.014 -0.0303,0.02 -0.048,0.041 -0.0709,0.068 -0.1277,0.1729 -0.16474,0.2939 -0.0409,0.1185 -0.067,0.2515 -0.0804,0.3827 -0.0116,0.1316 -0.0197,0.2692 -0.005,0.386 0.0212,0.1354 0.0275,0.2744 0.0519,0.3916 0.0229,0.1199 0.0448,0.2332 0.0649,0.3379 0.0279,0.1055 0.049,0.2029 0.0681,0.29 0.0187,0.088 0.0455,0.1598 0.0614,0.2219 0.0349,0.1231 0.0526,0.1962 0.0526,0.1962 0,0 -0.0353,-0.062 -0.0924,-0.175 -0.0258,-0.057 -0.0649,-0.1235 -0.0981,-0.2064 -0.0346,-0.083 -0.0737,-0.1757 -0.11324,-0.2794 -0.0374,-0.1051 -0.0706,-0.2247 -0.10725,-0.351 -0.0377,-0.1263 -0.0554,-0.2551 -0.0825,-0.3916 -0.0261,-0.1559 -0.0296,-0.3066 -0.0166,-0.4618 0.0127,-0.1524 0.0392,-0.3073 0.0871,-0.4565 0.0497,-0.1464 0.12559,-0.2903 0.23848,-0.3951 0.0254,-0.026 0.0624,-0.049 0.097,-0.07 0.0381,-0.02 0.0476,-0.02 0.0938,-0.038 0.0677,-0.016 0.13617,-0.022 0.20602,-0.01 0.14147,0.022 0.25894,0.1281 0.33514,0.2378 0.079,0.1101 0.1263,0.2293 0.16263,0.338 0.0695,0.2208 0.084,0.4127 0.0917,0.5425 0.005,0.1327 -0.006,0.205 -0.006,0.205"
         style="fill:#f39870;fill-opacity:1;fill-rule:nonzero;stroke:none;stroke-width:0.352778"
         id="path5214" />
      <path
         d="m 903.71568,1775.2859 c 0,0 0.0631,-0.1443 -0.387,-0.1778 0,0 -0.50235,0.093 -0.20708,0.7634 0.0642,0.1446 0.11889,0.2939 0.15064,0.4523 0.0448,0.225 -0.0353,0.5298 0.085,0.7299 0.15593,0.2575 0.55209,0.1111 0.57538,-0.1838 0.0183,-0.2258 -0.21414,-0.6132 -0.32032,-0.7733 0,-4e-4 -0.3228,-0.4897 0.10336,-0.8107"
         style="fill:#f39870;fill-opacity:1;fill-rule:nonzero;stroke:none;stroke-width:0.352778"
         id="path5218" />
      <path
         d="m 903.93271,1776.8407 c -0.001,0 0.0152,0.01 0.0349,0.036 0.0215,0.026 0.0455,0.069 0.066,0.126 0.0127,0.028 0.0173,0.06 0.0236,0.096 0.006,0.035 0.0138,0.073 0.008,0.1115 -0.003,0.038 -0.004,0.079 -0.0106,0.1199 -0.008,0.039 -0.024,0.075 -0.0367,0.1122 -0.0169,0.035 -0.0286,0.076 -0.0508,0.1026 -0.0201,0.03 -0.0455,0.053 -0.067,0.078 -0.042,0.053 -0.0907,0.083 -0.13688,0.098 -0.0889,0.039 -0.15381,0.038 -0.15381,0.038 0,0 0.0258,-0.082 0.0706,-0.1634 0.0109,-0.022 0.0226,-0.043 0.0374,-0.063 0.0109,-0.024 0.019,-0.052 0.0321,-0.074 0.012,-0.024 0.0212,-0.049 0.037,-0.071 0.0159,-0.022 0.0187,-0.052 0.0289,-0.075 0.0264,-0.046 0.0381,-0.098 0.0547,-0.1471 0.009,-0.025 0.0138,-0.05 0.0194,-0.074 0.004,-0.026 0.0148,-0.05 0.0169,-0.074 0.0176,-0.093 0.0265,-0.1761 0.0265,-0.1757"
         style="fill:#f39870;fill-opacity:1;fill-rule:nonzero;stroke:none;stroke-width:0.352778"
         id="path5222" />
      <path
         d="m 917.76202,1764.702 c 0,0 -2.32586,-2.5471 -6.90316,-2.6882 -4.57305,0.2399 -6.89045,2.8755 -6.89045,2.8759 -1.2439,4.0096 -0.44768,8.7097 0.0811,12.7769 0.39088,3.0039 2.41123,5.1054 4.95758,6.5684 0,0 0.90029,0.5831 2.09797,0.6491 1.1938,-0.091 2.08033,-0.6918 2.08351,-0.6943 2.47368,-1.6771 4.36704,-3.749 4.83905,-6.8016 0.40746,-2.6366 0.50024,-5.5499 0.40922,-8.2098 -0.0501,-1.4672 -0.20672,-3.0748 -0.67486,-4.4764"
         style="fill:#f4ae7f;fill-opacity:1;fill-rule:nonzero;stroke:none;stroke-width:0.352778"
         id="path5226" />
      <path
         d="m 908.86951,1772.9062 c 0,0 -1.63477,-0.5507 -3.32599,0.2251 0.33302,-1.8041 3.45828,-1.0637 3.45828,-1.0637 0,0 0.20638,0.048 0.1838,0.3712 0,0 -0.0829,0.5549 -0.31609,0.4674"
         style="fill:#db623d;fill-opacity:1;fill-rule:nonzero;stroke:none;stroke-width:0.352778"
         id="path5230" />
      <path
         d="m 912.68188,1772.9062 c 0,0 1.85949,-0.5507 3.55036,0.2251 -0.33303,-1.8041 -3.68265,-1.0637 -3.68265,-1.0637 0,0 -0.20638,0.048 -0.18415,0.3712 0,0 0.0829,0.5549 0.31644,0.4674"
         style="fill:#db623d;fill-opacity:1;fill-rule:nonzero;stroke:none;stroke-width:0.352778"
         id="path5234" />
      <path
         d="m 906.79384,1774.5857 c 0.004,0.5232 0.29704,0.9458 0.65581,0.9437 0.35948,0 0.64841,-0.4283 0.64488,-0.9515 -0.003,-0.5235 -0.29668,-0.9461 -0.65581,-0.944 -0.35878,0 -0.64735,0.4283 -0.64488,0.9518"
         style="fill:#2a1811;fill-opacity:1;fill-rule:nonzero;stroke:none;stroke-width:0.352778"
         id="path5238" />
      <path
         d="m 907.18623,1774.2839 c 0,0.1556 -0.12594,0.2815 -0.28116,0.2815 -0.15593,0 -0.28152,-0.1259 -0.28152,-0.2815 0,-0.1556 0.12559,-0.2815 0.28152,-0.2815 0.15522,0 0.28116,0.1259 0.28116,0.2815"
         style="fill:#ffffff;fill-opacity:1;fill-rule:nonzero;stroke:none;stroke-width:0.352778"
         id="path5242" />
      <path
         d="m 914.98181,1774.5857 c -0.004,0.5232 -0.29704,0.9458 -0.65546,0.9437 -0.35948,0 -0.64841,-0.4283 -0.64488,-0.9515 0.003,-0.5235 0.29669,-0.9461 0.65582,-0.944 0.35877,0 0.64734,0.4283 0.64452,0.9518"
         style="fill:#2a1811;fill-opacity:1;fill-rule:nonzero;stroke:none;stroke-width:0.352778"
         id="path5246" />
      <path
         d="m 914.58977,1774.2839 c 0,0.1556 0.12594,0.2815 0.28116,0.2815 0.15593,0 0.28152,-0.1259 0.28152,-0.2815 0,-0.1556 -0.12559,-0.2815 -0.28152,-0.2815 -0.15522,0 -0.28116,0.1259 -0.28116,0.2815"
         style="fill:#ffffff;fill-opacity:1;fill-rule:nonzero;stroke:none;stroke-width:0.352778"
         id="path5250" />
      <path
         d="m 909.26004,1780.4887 c 0.004,0.5059 0.72037,0.9155 1.60479,0.9155 0.88476,0 1.6009,-0.4096 1.60478,-0.9155 z"
         style="fill:#ffffff;fill-opacity:1;fill-rule:nonzero;stroke:none;stroke-width:0.352778"
         id="path5254" />
      <path
         d="m 912.38456,1780.6303 c 0.37747,-0.091 0.52246,-0.1937 0.52246,-0.1937 0,0 -0.2614,-0.1104 -0.6297,-0.2215 -0.94545,-0.3987 -0.88089,0.1182 -1.3843,0.1164 -0.25189,0.01 -0.50377,-0.2663 -0.73978,-0.2339 -0.23601,0.027 -0.45614,0.069 -0.64488,0.1185 -0.37782,0.092 -0.62971,0.2205 -0.62971,0.2205 0,0 0.19368,0.1288 0.5708,0.2209 0,0 0.56303,-0.021 1.02694,0.05 0,0 0.42756,0.1073 0.71508,0.018 0,0 0.67945,-0.1439 1.19309,-0.096"
         style="fill:#f36178;fill-opacity:1;fill-rule:nonzero;stroke:none;stroke-width:0.352778"
         id="path5258" />
      <path
         d="m 912.59125,1780.4355 c -0.37042,0.3806 -0.95003,0.7278 -1.84009,0.7278 0,0 -0.86254,-7e-4 -1.56033,-0.7278 h -0.32209 c 0.0113,0.025 0.019,0.05 0.0321,0.076 0.0819,0.1457 0.15029,0.3189 0.2727,0.4738 0.0589,0.079 0.11924,0.1612 0.18133,0.2445 0.0639,0.083 0.15099,0.1502 0.2293,0.2282 l 0.12277,0.1136 0.14429,0.096 c 0.1023,0.062 0.18556,0.1386 0.31785,0.1764 0.11959,0.041 0.25858,0.098 0.36795,0.1175 l 0.15804,0.02 0.079,0.011 0.0392,0.01 h 0.0201 0.0529 l 0.37465,-0.047 c 0.12241,-0.023 0.23459,-0.078 0.34995,-0.1168 0.11995,-0.034 0.21026,-0.1129 0.31045,-0.1736 l 0.14428,-0.096 0.12312,-0.1143 c 0.078,-0.078 0.1651,-0.1449 0.22825,-0.2279 0.0628,-0.083 0.12312,-0.1651 0.18203,-0.2441 0.12241,-0.1545 0.1905,-0.3284 0.2727,-0.4748 0.0131,-0.025 0.0212,-0.049 0.0321,-0.075 z"
         style="fill:#f36178;fill-opacity:1;fill-rule:nonzero;stroke:none;stroke-width:0.352778"
         id="path5262" />
      <path
         d="m 910.86475,1781.6459 c 1.3141,-0.088 1.55751,-0.8527 1.55751,-0.8527 -0.59549,0.7377 -1.55751,0.6364 -1.55751,0.6364 0,0 -0.0864,0.01 -0.0864,0.1147 0,0 0.0194,0.1062 0.0864,0.1016"
         style="fill:#ffffff;fill-opacity:1;fill-rule:nonzero;stroke:none;stroke-width:0.352778"
         id="path5266" />
      <path
         d="m 907.44429,1761.4633 c 2.09197,-1.4785 5.76509,-0.7408 5.76509,-0.7408 8.00065,1.4591 7.74947,8.957 7.74947,8.957 l 1.54376,22.987 c -0.75565,-1.4834 -1.52365,-1.6588 -1.52365,-1.6588 l -4.17512,-1.6298 v -19.0945 c -6.69255,0 -8.21338,-3.6985 -8.21338,-3.6985 z"
         style="fill:#db623d;fill-opacity:1;fill-rule:nonzero;stroke:none;stroke-width:0.352778"
         id="path5270" />
      <path
         d="m 908.86884,1766.5548 c 0,0 -3.32528,0.7295 -3.81847,4.2316 l -0.2413,18.6524 -4.01743,1.596 c 0,0 -1.25236,0.6847 -1.72085,2.3121 l 2.07892,-22.5708 c 0,0 0.30162,-7.8059 6.29461,-9.3129 z"
         style="fill:#db623d;fill-opacity:1;fill-rule:nonzero;stroke:none;stroke-width:0.352778"
         id="path5274" />
      <path
         d="m 909.96436,1778.1582 c 0,0 0.0116,0 0.0346,-0.01 0.0215,0 0.0554,-0.017 0.0928,-0.023 0.0769,-0.017 0.17957,-0.036 0.29069,-0.055 0.11042,-0.016 0.22895,-0.032 0.34537,-0.038 0.11642,-0.01 0.23178,-0.01 0.34361,-0.01 0.11218,0 0.22119,0.012 0.3309,0.022 0.0557,0.01 0.10972,0.012 0.16475,0.019 0.0561,0.01 0.11077,0.017 0.16298,0.022 0.0526,0.01 0.10831,0.02 0.15628,0.026 0.0462,0 0.0928,0.012 0.13159,0.018 0.037,0 0.073,0.015 0.0952,0.019 0.0236,0 0.0356,0.01 0.0356,0.01 0,0 -0.003,0.012 -0.009,0.034 -0.006,0.021 -0.0134,0.057 -0.0303,0.093 -0.0293,0.079 -0.0833,0.1831 -0.17568,0.2823 -0.0452,0.052 -0.0995,0.1012 -0.16369,0.1432 -0.0631,0.043 -0.133,0.089 -0.21131,0.1168 -0.0776,0.032 -0.16017,0.062 -0.2473,0.073 -0.0861,0.018 -0.17498,0.024 -0.26282,0.021 -0.0889,0 -0.17463,-0.016 -0.25859,-0.033 -0.0833,-0.018 -0.16228,-0.047 -0.23601,-0.08 -0.14675,-0.068 -0.26952,-0.1574 -0.35983,-0.2533 -0.0903,-0.097 -0.15028,-0.1941 -0.18485,-0.2703 -0.0187,-0.034 -0.0279,-0.071 -0.0353,-0.092 -0.007,-0.022 -0.01,-0.034 -0.01,-0.034"
         style="fill:#f59679;fill-opacity:1;fill-rule:nonzero;stroke:none;stroke-width:0.352778"
         id="path5278" />
      <path
         d="m 908.09439,1764.7148 0.13264,2.5696 0.64171,-0.2138 z"
         style="fill:#f4ae7f;fill-opacity:1;fill-rule:nonzero;stroke:none;stroke-width:0.352778"
         id="path5282" />
      <path
         d="m 914.08678,1788.3175 6.62834,2.5876 c 0,0 2.63596,0.6509 2.28318,5.4236 h -12.07347 -0.0815 -12.07382 c -0.30198,-4.4965 2.28318,-5.4236 2.28318,-5.4236 l 6.77227,-2.6437 2.95346,3.1034 z"
         style="fill:#544eaa;fill-opacity:1;fill-rule:nonzero;stroke:none;stroke-width:0.352778"
         id="path5286" />
      <path
         d="m 910.77829,1791.3648 -0.54222,-2.7714 -2.87055,-1.7367 -0.4184,1.7473 z"
         style="fill:#75bec9;fill-opacity:1;fill-rule:nonzero;stroke:none;stroke-width:0.352778"
         id="path5290" />
      <path
         d="m 910.23603,1788.5933 -1.35749,2.4864 -3.31787,-2.2543 1.80481,-1.9685 z"
         style="fill:#c2eae4;fill-opacity:1;fill-rule:nonzero;stroke:none;stroke-width:0.352778"
         id="path5294" />
      <path
         d="m 910.77829,1791.3648 0.54187,-2.7714 2.8702,-1.7367 0.41839,1.7473 z"
         style="fill:#75bec9;fill-opacity:1;fill-rule:nonzero;stroke:none;stroke-width:0.352778"
         id="path5298" />
      <path
         d="m 911.32019,1788.5933 1.35714,2.4864 3.31787,-2.2543 -1.80481,-1.9685 z"
         style="fill:#c2eae4;fill-opacity:1;fill-rule:nonzero;stroke:none;stroke-width:0.352778"
         id="path5302" />
      <path
         d="m 910.10614,1790.8806 0.67204,0.4844 0.67169,-0.4844 v 5.4479 h -1.34373 z"
         style="fill:#7ac5d1;fill-opacity:1;fill-rule:nonzero;stroke:none;stroke-width:0.352778"
         id="path5306" />
      <path
         d="m 911.18705,1792.5858 c 0,0.2268 -0.1838,0.4103 -0.40993,0.4103 -0.22683,0 -0.41063,-0.1835 -0.41063,-0.4103 0,-0.2265 0.1838,-0.4103 0.41063,-0.4103 0.22613,0 0.40993,0.1838 0.40993,0.4103"
         style="fill:#c2eae4;fill-opacity:1;fill-rule:nonzero;stroke:none;stroke-width:0.352778"
         id="path5310" />
      <path
         d="m 911.18807,1795.9182 c 0,0.2268 -0.18344,0.4103 -0.40993,0.4103 -0.22683,0 -0.41028,-0.1835 -0.41028,-0.4103 0,-0.2265 0.18345,-0.4103 0.41028,-0.4103 0.22649,0 0.40993,0.1838 0.40993,0.4103"
         style="fill:#c2eae4;fill-opacity:1;fill-rule:nonzero;stroke:none;stroke-width:0.352778"
         id="path5314" />
    </g>
  </g>
</svg>
