<?xml version="1.0" encoding="UTF-8" standalone="no"?>
<!-- Created with Inkscape (http://www.inkscape.org/) -->

<svg
   width="30.689327mm"
   height="40.500198mm"
   viewBox="0 0 30.689326 40.500199"
   version="1.1"
   id="svg9361"
   inkscape:version="1.1.1 (3bf5ae0d25, 2021-09-20)"
   sodipodi:docname="man2.svg"
   xmlns:inkscape="http://www.inkscape.org/namespaces/inkscape"
   xmlns:sodipodi="http://sodipodi.sourceforge.net/DTD/sodipodi-0.dtd"
   xmlns="http://www.w3.org/2000/svg"
   xmlns:svg="http://www.w3.org/2000/svg">
  <sodipodi:namedview
     id="namedview9363"
     pagecolor="#ffffff"
     bordercolor="#666666"
     borderopacity="1.0"
     inkscape:pageshadow="2"
     inkscape:pageopacity="0.0"
     inkscape:pagecheckerboard="0"
     inkscape:document-units="mm"
     showgrid="false"
     inkscape:zoom="0.50835204"
     inkscape:cx="359.00318"
     inkscape:cy="-333.43035"
     inkscape:window-width="1920"
     inkscape:window-height="1017"
     inkscape:window-x="-8"
     inkscape:window-y="-8"
     inkscape:window-maximized="1"
     inkscape:current-layer="layer1" />
  <defs
     id="defs9358" />
  <g
     inkscape:label="Capa 1"
     inkscape:groupmode="layer"
     id="layer1"
     transform="translate(-227.94469,-1437.747)">
    <g
       id="g8095"
       transform="translate(-703.36493,-318.08126)">
      <path
         d="m 950.60866,1788.3373 h -7.91139 v -2.9129 h 7.91139 z"
         style="fill:#75bec9;fill-opacity:1;fill-rule:nonzero;stroke:none;stroke-width:0.352778"
         id="path4336" />
      <path
         d="m 949.82722,1781.9906 h -2.84762 -3.57999 c 0,0 0.16298,4.0587 -0.62442,5.237 h 3.87879 3.87915 c -0.78705,-1.1783 -0.70591,-5.237 -0.70591,-5.237"
         style="fill:#f4ae7f;fill-opacity:1;fill-rule:nonzero;stroke:none;stroke-width:0.352778"
         id="path4348" />
      <g
         transform="matrix(0.35277777,0,0,-0.35277777,943.3184,1785.0565)"
         id="g4360">
        <path
           d="m 0,0 c 2.595,-1.679 6.49,-2.518 9.597,-2.548 3.406,-0.034 6.412,0.857 9.298,2.08 C 18.353,3.846 18.45,8.691 18.45,8.691 H 0.23 C 0.23,8.691 0.41,4.189 0,0"
           style="fill:#f7d9d5;fill-opacity:1;fill-rule:nonzero;stroke:none"
           id="path4358" />
      </g>
      <path
         d="m 959.07215,1790.0399 -9.32991,-3.3419 h -3.0413 -0.10336 -3.04165 l -9.33027,3.3419 c 0,0 -3.26672,1.0753 -2.88502,6.2886 h 15.25694 0.10336 15.25693 c 0.44591,-5.534 -2.88572,-6.2886 -2.88572,-6.2886"
         style="fill:#f4ae7f;fill-opacity:1;fill-rule:nonzero;stroke:none;stroke-width:0.352778"
         id="path4368" />
      <path
         d="m 959.07215,1790.0399 -7.62423,-2.7312 -4.7939,3.3426 -4.68242,-3.386 -7.74594,2.7746 c 0,0 -3.26672,1.0753 -2.88502,6.2886 h 30.61723 c 0.44591,-5.534 -2.88572,-6.2886 -2.88572,-6.2886"
         style="fill:#274596;fill-opacity:1;fill-rule:nonzero;stroke:none;stroke-width:0.352778"
         id="path4372" />
      <path
         d="m 953.69384,1774.0138 c -0.22154,1.3702 0.16298,2.5883 0.85796,2.7189 0.69426,0.1315 1.43651,-0.8718 1.65664,-2.2427 0.21978,-1.3698 -0.16369,-2.5876 -0.85937,-2.7188 -0.69391,-0.1312 -1.4351,0.8724 -1.65523,2.2426"
         style="fill:#f4ae7f;fill-opacity:1;fill-rule:nonzero;stroke:none;stroke-width:0.352778"
         id="path4376" />
      <path
         d="m 954.52908,1773.6438 c 0,0 0.0106,-0.077 0.0377,-0.2018 0.0265,-0.1266 0.0818,-0.3041 0.16757,-0.4932 0.0868,-0.1827 0.22754,-0.3933 0.40357,-0.405 0.0438,0 0.0889,0.01 0.13371,0.019 0.007,0.01 0.054,0.023 0.0681,0.035 0.0148,0.014 0.0311,0.02 0.049,0.041 0.072,0.069 0.12982,0.176 0.16757,0.2988 0.0416,0.1203 0.0677,0.2554 0.0815,0.3891 0.012,0.1334 0.0201,0.2734 0.005,0.3923 -0.0212,0.1376 -0.0279,0.279 -0.0526,0.3983 -0.0236,0.122 -0.0455,0.237 -0.0663,0.3436 -0.0282,0.1065 -0.0497,0.2057 -0.0691,0.2942 -0.0187,0.089 -0.0459,0.163 -0.0621,0.2261 -0.0353,0.1253 -0.0533,0.199 -0.0533,0.199 0,0 0.0353,-0.063 0.0935,-0.1771 0.0268,-0.059 0.0663,-0.1259 0.10019,-0.2106 0.0346,-0.084 0.0748,-0.1785 0.11466,-0.2836 0.0385,-0.1073 0.0723,-0.2286 0.10936,-0.357 0.0388,-0.1285 0.0564,-0.259 0.084,-0.3983 0.0265,-0.1584 0.0303,-0.3115 0.0166,-0.4692 -0.0127,-0.1552 -0.0399,-0.3122 -0.0886,-0.4639 -0.0504,-0.1493 -0.1277,-0.2953 -0.24236,-0.4018 -0.0258,-0.027 -0.0639,-0.05 -0.0988,-0.071 -0.0385,-0.02 -0.0487,-0.021 -0.0952,-0.039 -0.0688,-0.016 -0.13864,-0.022 -0.20919,-0.01 -0.14429,0.023 -0.26353,0.1301 -0.34114,0.2416 -0.0801,0.1122 -0.12806,0.2328 -0.16475,0.344 -0.0709,0.2243 -0.0857,0.4191 -0.0935,0.5517 -0.005,0.1344 0.005,0.2078 0.005,0.2078"
         style="fill:#f39870;fill-opacity:1;fill-rule:nonzero;stroke:none;stroke-width:0.352778"
         id="path4380" />
      <path
         d="m 954.52908,1773.6438 c 0,0 -0.0642,-0.1468 0.39335,-0.181 0,0 0.51117,0.095 0.21061,0.7768 -0.0649,0.1464 -0.1203,0.2985 -0.15311,0.4594 -0.0452,0.2289 0.036,0.539 -0.0864,0.7418 -0.1584,0.2625 -0.56092,0.1133 -0.58491,-0.1866 -0.0183,-0.2293 0.21767,-0.623 0.32562,-0.7863 0,0 0.32843,-0.4978 -0.10513,-0.8241"
         style="fill:#f39870;fill-opacity:1;fill-rule:nonzero;stroke:none;stroke-width:0.352778"
         id="path4384" />
      <path
         d="m 954.30859,1775.2249 c 10e-4,0 -0.0155,0.01 -0.0353,0.037 -0.0219,0.026 -0.0462,0.07 -0.067,0.1274 -0.0131,0.029 -0.0176,0.061 -0.0236,0.097 -0.006,0.036 -0.0148,0.075 -0.008,0.1136 0.003,0.038 0.004,0.081 0.0106,0.122 0.008,0.039 0.0243,0.076 0.0377,0.114 0.0169,0.036 0.0286,0.077 0.0515,0.104 0.0205,0.03 0.0459,0.054 0.0677,0.079 0.0427,0.054 0.0928,0.084 0.1397,0.099 0.0903,0.04 0.15593,0.039 0.15593,0.039 0,0 -0.0258,-0.082 -0.0713,-0.1658 -0.0113,-0.022 -0.0229,-0.044 -0.0385,-0.065 -0.0109,-0.024 -0.019,-0.053 -0.0324,-0.076 -0.0124,-0.024 -0.0219,-0.05 -0.0378,-0.072 -0.0162,-0.022 -0.019,-0.052 -0.0296,-0.076 -0.0268,-0.047 -0.0385,-0.099 -0.0554,-0.1496 -0.01,-0.025 -0.0138,-0.051 -0.0197,-0.076 -0.004,-0.026 -0.0148,-0.051 -0.0169,-0.074 -0.0183,-0.095 -0.0272,-0.1792 -0.0272,-0.1785"
         style="fill:#f39870;fill-opacity:1;fill-rule:nonzero;stroke:none;stroke-width:0.352778"
         id="path4388" />
      <path
         d="m 939.7176,1774.0138 c 0.22154,1.3702 -0.16334,2.5883 -0.85796,2.7189 -0.69426,0.1315 -1.43651,-0.8718 -1.65699,-2.2427 -0.21943,-1.3698 0.16404,-2.5876 0.85972,-2.7188 0.69391,-0.1312 1.4351,0.8724 1.65523,2.2426"
         style="fill:#f4ae7f;fill-opacity:1;fill-rule:nonzero;stroke:none;stroke-width:0.352778"
         id="path4392" />
      <path
         d="m 938.88233,1773.6438 c 0,0 -0.0106,-0.077 -0.0378,-0.2018 -0.0268,-0.1266 -0.0818,-0.3041 -0.16757,-0.4932 -0.0871,-0.1827 -0.22754,-0.3933 -0.40357,-0.405 -0.0438,0 -0.0886,0.01 -0.13371,0.019 -0.007,0.01 -0.054,0.023 -0.0681,0.035 -0.0145,0.014 -0.031,0.02 -0.049,0.041 -0.072,0.069 -0.12982,0.176 -0.16757,0.2988 -0.042,0.1203 -0.0677,0.2554 -0.0818,0.3891 -0.0116,0.1334 -0.0198,0.2734 -0.004,0.3923 0.0212,0.1376 0.0275,0.279 0.0526,0.3983 0.0236,0.122 0.0455,0.237 0.066,0.3436 0.0282,0.1065 0.0501,0.2057 0.0695,0.2942 0.0187,0.089 0.0459,0.163 0.0617,0.2261 0.036,0.1253 0.0536,0.199 0.0536,0.199 0,0 -0.036,-0.063 -0.0935,-0.1771 -0.0268,-0.059 -0.0663,-0.1259 -0.10019,-0.2106 -0.0349,-0.084 -0.0748,-0.1785 -0.11466,-0.2836 -0.0381,-0.1073 -0.0723,-0.2286 -0.109,-0.357 -0.0392,-0.1285 -0.0568,-0.259 -0.0843,-0.3983 -0.0265,-0.1584 -0.0303,-0.3115 -0.0166,-0.4692 0.0127,-0.1552 0.0399,-0.3122 0.0885,-0.4639 0.0501,-0.1493 0.1277,-0.2953 0.24236,-0.4018 0.0258,-0.027 0.0639,-0.05 0.0991,-0.071 0.0378,-0.02 0.048,-0.021 0.0949,-0.039 0.0688,-0.016 0.13864,-0.022 0.20919,-0.01 0.14429,0.023 0.26388,0.1301 0.34114,0.2416 0.0801,0.1122 0.12806,0.2328 0.16439,0.344 0.0713,0.2243 0.0861,0.4191 0.0938,0.5517 0.005,0.1344 -0.005,0.2078 -0.005,0.2078"
         style="fill:#f39870;fill-opacity:1;fill-rule:nonzero;stroke:none;stroke-width:0.352778"
         id="path4396" />
      <path
         d="m 938.88233,1773.6438 c 0,0 0.0642,-0.1468 -0.39335,-0.181 0,0 -0.51117,0.095 -0.21061,0.7768 0.0646,0.1464 0.1203,0.2985 0.15311,0.4594 0.0455,0.2289 -0.036,0.539 0.0864,0.7418 0.1584,0.2625 0.56092,0.1133 0.58455,-0.1866 0.019,-0.2293 -0.21731,-0.623 -0.32526,-0.7863 0,0 -0.32843,-0.4978 0.10513,-0.8241"
         style="fill:#f39870;fill-opacity:1;fill-rule:nonzero;stroke:none;stroke-width:0.352778"
         id="path4400" />
      <path
         d="m 939.10264,1775.2249 c -7.1e-4,0 0.0159,0.01 0.0353,0.037 0.0222,0.026 0.0466,0.07 0.0674,0.1274 0.0127,0.029 0.0173,0.061 0.0236,0.097 0.006,0.036 0.0145,0.075 0.009,0.1136 -0.004,0.038 -0.004,0.081 -0.0113,0.122 -0.008,0.039 -0.024,0.076 -0.0374,0.114 -0.0176,0.036 -0.0289,0.077 -0.0515,0.104 -0.0205,0.03 -0.0462,0.054 -0.0681,0.079 -0.0427,0.054 -0.0924,0.084 -0.13935,0.099 -0.0903,0.04 -0.15593,0.039 -0.15593,0.039 0,0 0.0258,-0.082 0.0713,-0.1658 0.0113,-0.022 0.0229,-0.044 0.0385,-0.065 0.0109,-0.024 0.0194,-0.053 0.0325,-0.076 0.012,-0.024 0.0215,-0.05 0.0374,-0.072 0.0162,-0.022 0.019,-0.052 0.0296,-0.076 0.0268,-0.047 0.0388,-0.099 0.0554,-0.1496 0.01,-0.025 0.0141,-0.051 0.0201,-0.076 0.004,-0.026 0.0148,-0.051 0.0169,-0.074 0.018,-0.095 0.0268,-0.1792 0.0268,-0.1785"
         style="fill:#f39870;fill-opacity:1;fill-rule:nonzero;stroke:none;stroke-width:0.352778"
         id="path4404" />
      <path
         d="m 946.7897,1759.231 v 0 c -0.0367,0 -0.0727,7e-4 -0.10901,7e-4 -0.0374,0 -0.0734,-7e-4 -0.11006,-7e-4 v 0 c -5.52309,0.049 -8.62613,1.6218 -7.7784,11.69 l 0.95073,8.0197 c 0,0 0.16969,1.463 1.77412,2.3386 l 3.00038,2.2239 c 0,0 1.42557,0.6333 2.16464,0.5705 0.73837,0.063 2.16394,-0.5708 2.16394,-0.5708 l 3.00002,-2.2243 c 1.60444,-0.8756 1.77377,-2.3386 1.77377,-2.3386 l 1.00118,-7.8341 c 0.84702,-10.0683 -2.30822,-11.8265 -7.83131,-11.8745"
         style="fill:#f4ae7f;fill-opacity:1;fill-rule:nonzero;stroke:none;stroke-width:0.352778"
         id="path4408" />
      <path
         d="m 942.61182,1771.5791 c 0.004,0.5228 0.29704,0.9454 0.65581,0.9433 0.35948,0 0.64806,-0.4279 0.64453,-0.9511 -0.003,-0.5235 -0.29633,-0.9461 -0.65546,-0.944 -0.35913,0 -0.6477,0.4283 -0.64488,0.9518"
         style="fill:#2a1811;fill-opacity:1;fill-rule:nonzero;stroke:none;stroke-width:0.352778"
         id="path4412" />
      <path
         d="m 943.00404,1771.2772 c 0,0.1556 -0.12594,0.2815 -0.28116,0.2815 -0.15593,0 -0.28152,-0.1259 -0.28152,-0.2815 0,-0.1556 0.12559,-0.2815 0.28152,-0.2815 0.15522,0 0.28116,0.1259 0.28116,0.2815"
         style="fill:#ffffff;fill-opacity:1;fill-rule:nonzero;stroke:none;stroke-width:0.352778"
         id="path4416" />
      <path
         d="m 950.79962,1771.5791 c -0.003,0.5228 -0.29704,0.9454 -0.65581,0.9433 -0.35913,0 -0.64806,-0.4279 -0.64488,-0.9511 0.004,-0.5235 0.29704,-0.9461 0.65617,-0.944 0.35877,0 0.64734,0.4283 0.64452,0.9518"
         style="fill:#2a1811;fill-opacity:1;fill-rule:nonzero;stroke:none;stroke-width:0.352778"
         id="path4420" />
      <path
         d="m 950.40737,1771.2772 c 0,0.1556 0.12594,0.2815 0.28116,0.2815 0.15593,0 0.28152,-0.1259 0.28152,-0.2815 0,-0.1556 -0.12559,-0.2815 -0.28152,-0.2815 -0.15522,0 -0.28116,0.1259 -0.28116,0.2815"
         style="fill:#ffffff;fill-opacity:1;fill-rule:nonzero;stroke:none;stroke-width:0.352778"
         id="path4424" />
      <path
         d="m 947.66149,1776.6729 c -0.14852,0.1439 -0.32844,0.2572 -0.52141,0.3447 -0.19367,0.088 -0.40463,0.1464 -0.62441,0.1696 -0.22014,0.032 -0.44909,0.014 -0.6724,-0.034 -0.11324,-0.021 -0.22295,-0.056 -0.3302,-0.099 -0.10865,-0.04 -0.20814,-0.097 -0.31115,-0.1503 l -0.14358,-0.073 -0.0145,-0.2071 c -0.0152,-0.2166 -0.0173,-0.4096 -0.01,-0.611 3.5e-4,-0.2007 0.0243,-0.3969 0.0406,-0.5951 0.0162,-0.1979 0.0529,-0.3923 0.0857,-0.5874 0.0282,-0.1958 0.0765,-0.3877 0.12558,-0.5789 0.0921,-0.3842 0.22755,-0.7567 0.37677,-1.1208 0.0663,-0.1848 0.16545,-0.3591 0.25682,-0.5341 0.0942,-0.1739 0.19262,-0.3454 0.30269,-0.5105 -0.006,0.2015 -0.0243,0.3973 -0.0462,0.5902 -0.0212,0.193 -0.0536,0.3814 -0.0709,0.5733 -0.0169,0.1916 -0.0437,0.3796 -0.0713,0.5669 -0.0282,0.1873 -0.0388,0.3771 -0.0649,0.5634 -0.0265,0.1863 -0.0504,0.3725 -0.0681,0.5595 -0.0155,0.1866 -0.0505,0.3715 -0.061,0.5577 -0.0173,0.1852 -0.0402,0.3715 -0.0526,0.556 -0.0159,0.1828 -0.0296,0.375 -0.0381,0.5433 l -0.15804,-0.2808 c 0.0706,0.042 0.13441,0.1009 0.20814,0.1386 0.073,0.04 0.14464,0.085 0.22295,0.1161 0.0759,0.04 0.1591,0.06 0.24095,0.09 0.084,0.016 0.16863,0.045 0.25753,0.057 0.0878,0.018 0.1785,0.023 0.27058,0.028 0.0928,0.01 0.18697,0.01 0.28257,0 0.19086,-0.01 0.387,-0.032 0.58773,-0.075"
         style="fill:#eb946e;fill-opacity:1;fill-rule:nonzero;stroke:none;stroke-width:0.352778"
         id="path4428" />
      <path
         d="m 944.62428,1769.6478 c -0.06,0.2441 -0.29281,0.3895 -0.51541,0.3489 -0.90276,-0.1655 -1.80975,-0.081 -2.62784,0.2201 -0.20179,0.073 -0.44732,-0.034 -0.56092,-0.2582 -0.11359,-0.223 -0.018,-0.4953 0.2279,-0.5863 0.96731,-0.3595 2.03588,-0.4625 3.09492,-0.2741 0.26917,0.048 0.44167,0.3062 0.38135,0.5496"
         style="fill:#63322c;fill-opacity:1;fill-rule:nonzero;stroke:none;stroke-width:0.352778"
         id="path4432" />
      <path
         d="m 948.5374,1769.6478 c 0.06,0.2441 0.29316,0.3895 0.51541,0.3489 0.90276,-0.1655 1.80975,-0.081 2.62784,0.2201 0.20179,0.073 0.44732,-0.034 0.56092,-0.2582 0.11394,-0.223 0.0183,-0.4953 -0.22755,-0.5863 -0.96766,-0.3595 -2.03588,-0.4625 -3.09527,-0.2741 -0.26917,0.048 -0.44132,0.3062 -0.38135,0.5496"
         style="fill:#63322c;fill-opacity:1;fill-rule:nonzero;stroke:none;stroke-width:0.352778"
         id="path4436" />
      <path
         d="m 946.65395,1790.6514 -0.6283,-3.2138 -3.32846,-2.0133 -0.48506,2.026 z"
         style="fill:#75bec9;fill-opacity:1;fill-rule:nonzero;stroke:none;stroke-width:0.352778"
         id="path4440" />
      <path
         d="m 946.02555,1787.4376 -1.57409,2.8833 -3.84669,-2.6138 2.09232,-2.2832 z"
         style="fill:#c2eae4;fill-opacity:1;fill-rule:nonzero;stroke:none;stroke-width:0.352778"
         id="path4444" />
      <path
         d="m 946.65395,1790.6514 0.62865,-3.2138 3.32846,-2.0133 0.48471,2.026 z"
         style="fill:#75bec9;fill-opacity:1;fill-rule:nonzero;stroke:none;stroke-width:0.352778"
         id="path4448" />
      <path
         d="m 947.28267,1787.4376 1.57374,2.8833 3.84704,-2.6138 -2.09232,-2.2832 z"
         style="fill:#c2eae4;fill-opacity:1;fill-rule:nonzero;stroke:none;stroke-width:0.352778"
         id="path4452" />
      <path
         d="m 946.9778,1780.2086 c 0,0 -0.32738,0.1005 -0.77752,0.012"
         style="fill:none;stroke:#eb8876;stroke-width:0.352778;stroke-linecap:round;stroke-linejoin:round;stroke-miterlimit:10;stroke-dasharray:none;stroke-opacity:1"
         id="path4456" />
      <path
         d="m 944.83701,1778.6002 0.45191,0.8879 c 0,0 2.01753,1.1339 3.4417,-0.8435 0,0 -2.21404,0.1034 -3.89361,-0.044"
         style="fill:#ffffff;fill-opacity:1;fill-rule:nonzero;stroke:none;stroke-width:0.352778"
         id="path4460" />
      <path
         d="m 953.26561,1767.4354 c 0,0 0.72178,0.453 0.56268,2.1872 l -0.0755,3.4403 h 0.59654 c 0,0 -0.0416,-1.3035 0.99978,-1.2919 l 0.51611,-7.6905 c 0,0 0.40534,-3.0692 -2.23414,-4.8514 0,0 -2.21192,-0.5832 -2.8314,-2.3947 0,0 -0.18556,1.0065 0,1.6105 0,0 -1.78011,-0.5035 -1.30069,-2.6166 0,0 -1.4231,0.5743 -1.43228,2.0126 0,0 -0.0646,-1.711 -1.08902,-2.0126 0,0 0.37535,1.3081 -0.77717,1.8112 0,0 -4.94453,-0.2011 -6.4202,2.2144 0,0 -2.67124,1.3126 -2.23414,6.9031 l 0.51611,5.014 c 0,0 0.69885,0.3324 1.17722,1.2877 h 0.54081 v -4.5498 c 0,0 -0.0289,-1.0731 0.82444,-1.0731 0,0 -0.82444,-4.0256 1.60761,-4.6295 0,0 3.64066,-0.973 4.57129,0.8466 0,0 0.14852,-1.4746 4.60446,-0.9059 0,0 2.78377,0.3944 1.87748,4.6884"
         style="fill:#63322c;fill-opacity:1;fill-rule:nonzero;stroke:none;stroke-width:0.352778"
         id="path4464" />
    </g>
  </g>
</svg>
