<?xml version="1.0" encoding="UTF-8" standalone="no"?>
<!-- Created with Inkscape (http://www.inkscape.org/) -->

<svg
   width="30.689331mm"
   height="42.096802mm"
   viewBox="0 0 30.68933 42.096802"
   version="1.1"
   id="svg9361"
   inkscape:version="1.1.1 (3bf5ae0d25, 2021-09-20)"
   sodipodi:docname="man3.svg"
   xmlns:inkscape="http://www.inkscape.org/namespaces/inkscape"
   xmlns:sodipodi="http://sodipodi.sourceforge.net/DTD/sodipodi-0.dtd"
   xmlns="http://www.w3.org/2000/svg"
   xmlns:svg="http://www.w3.org/2000/svg">
  <sodipodi:namedview
     id="namedview9363"
     pagecolor="#ffffff"
     bordercolor="#666666"
     borderopacity="1.0"
     inkscape:pageshadow="2"
     inkscape:pageopacity="0.0"
     inkscape:pagecheckerboard="0"
     inkscape:document-units="mm"
     showgrid="false"
     inkscape:zoom="0.50835204"
     inkscape:cx="71.800636"
     inkscape:cy="-327.52893"
     inkscape:window-width="1920"
     inkscape:window-height="1017"
     inkscape:window-x="-8"
     inkscape:window-y="-8"
     inkscape:window-maximized="1"
     inkscape:current-layer="layer1" />
  <defs
     id="defs9358" />
  <g
     inkscape:label="Capa 1"
     inkscape:groupmode="layer"
     id="layer1"
     transform="translate(-303.70644,-1436.1504)">
    <g
       id="g8238"
       transform="translate(-627.60315,-374.10086)">
      <path
         d="m 950.60584,1844.3414 h -7.91175 v -2.9132 h 7.91175 z"
         style="fill:#7178c0;fill-opacity:1;fill-rule:nonzero;stroke:none;stroke-width:0.352778"
         id="path5010" />
      <path
         d="m 949.82722,1838.0102 h -2.84727 -3.58034 c 0,0 0.16298,4.058 -0.62442,5.2363 h 3.87879 3.87915 c -0.78705,-1.1783 -0.70591,-5.2363 -0.70591,-5.2363"
         style="fill:#f4ae7f;fill-opacity:1;fill-rule:nonzero;stroke:none;stroke-width:0.352778"
         id="path5014" />
      <g
         transform="matrix(0.35277777,0,0,-0.35277777,943.3184,1841.076)"
         id="g5026">
        <path
           d="m 0,0 c 2.595,-1.678 6.49,-2.518 9.598,-2.548 3.405,-0.034 6.412,0.858 9.297,2.08 C 18.353,3.848 18.45,8.69 18.45,8.69 H 0.23 C 0.23,8.69 0.411,4.19 0,0"
           style="fill:#f7d9d5;fill-opacity:1;fill-rule:nonzero;stroke:none"
           id="path5024" />
      </g>
      <path
         d="m 959.07247,1846.0594 -9.33027,-3.3422 h -3.04129 -0.10337 -3.04165 l -9.32991,3.3422 c 0,0 -3.26708,1.0749 -2.88537,6.2886 h 15.25693 0.10337 15.25693 c 0.44591,-5.534 -2.88537,-6.2886 -2.88537,-6.2886"
         style="fill:#f4ae7f;fill-opacity:1;fill-rule:nonzero;stroke:none;stroke-width:0.352778"
         id="path5034" />
      <path
         d="m 959.07247,1846.0594 -7.62423,-2.7312 -4.79425,3.3426 -4.68242,-3.386 -7.74559,2.7746 c 0,0 -3.26708,1.0749 -2.88537,6.2886 h 30.61723 c 0.44591,-5.534 -2.88537,-6.2886 -2.88537,-6.2886"
         style="fill:#58aade;fill-opacity:1;fill-rule:nonzero;stroke:none;stroke-width:0.352778"
         id="path5038" />
      <path
         d="m 953.69384,1830.0328 c -0.22154,1.3705 0.16298,2.5887 0.85796,2.7189 0.69426,0.1322 1.43651,-0.8718 1.65664,-2.2419 0.21978,-1.3699 -0.16369,-2.588 -0.85937,-2.7196 -0.69391,-0.1312 -1.4351,0.8728 -1.65523,2.2426"
         style="fill:#f4ae7f;fill-opacity:1;fill-rule:nonzero;stroke:none;stroke-width:0.352778"
         id="path5042" />
      <path
         d="m 954.52943,1829.6631 c 0,0 0.0102,-0.077 0.0377,-0.2021 0.0261,-0.1263 0.0815,-0.3038 0.16721,-0.4929 0.0868,-0.1824 0.22755,-0.3937 0.40358,-0.4046 0.0441,0 0.0889,0 0.13406,0.019 0.007,0.01 0.0536,0.023 0.0677,0.035 0.0148,0.015 0.031,0.02 0.0494,0.041 0.0716,0.07 0.12947,0.176 0.16722,0.2988 0.0416,0.1203 0.0677,0.2551 0.0818,0.3895 0.0116,0.133 0.0198,0.2734 0.004,0.3922 -0.0212,0.1369 -0.0279,0.2787 -0.0526,0.398 -0.0236,0.1217 -0.0455,0.237 -0.0663,0.3429 -0.0282,0.1072 -0.0497,0.2064 -0.0691,0.2949 -0.0187,0.089 -0.0459,0.163 -0.0621,0.2261 -0.0353,0.1253 -0.0533,0.1986 -0.0533,0.1986 0,0 0.0353,-0.062 0.0935,-0.1767 0.0268,-0.059 0.0663,-0.1259 0.10019,-0.2103 0.0346,-0.084 0.0748,-0.1792 0.11465,-0.2839 0.0385,-0.1073 0.0723,-0.2286 0.10936,-0.3574 0.0388,-0.1281 0.0564,-0.2586 0.084,-0.3979 0.0265,-0.1584 0.0303,-0.3115 0.0166,-0.4696 -0.0127,-0.1552 -0.0399,-0.3118 -0.0886,-0.4639 -0.0504,-0.1489 -0.12771,-0.2956 -0.24236,-0.4018 -0.0258,-0.026 -0.0639,-0.05 -0.0988,-0.071 -0.0385,-0.019 -0.0483,-0.02 -0.0952,-0.038 -0.0684,-0.015 -0.13829,-0.021 -0.2092,-0.01 -0.14393,0.023 -0.26352,0.1301 -0.34113,0.2416 -0.0801,0.1122 -0.12806,0.2332 -0.16475,0.344 -0.0709,0.2243 -0.0857,0.4187 -0.0935,0.5514 -0.005,0.134 0.006,0.2081 0.006,0.2081"
         style="fill:#f39870;fill-opacity:1;fill-rule:nonzero;stroke:none;stroke-width:0.352778"
         id="path5046" />
      <path
         d="m 954.52943,1829.6631 c 0,0 -0.0642,-0.1464 0.39299,-0.181 0,0 0.51118,0.095 0.21097,0.7765 -0.0653,0.1464 -0.12065,0.2984 -0.15346,0.4597 -0.0455,0.2289 0.036,0.5394 -0.0864,0.7422 -0.1584,0.2618 -0.56092,0.1129 -0.58491,-0.187 -0.0183,-0.2296 0.21767,-0.6233 0.32561,-0.7867 0,0 0.32844,-0.497 -0.10477,-0.8237"
         style="fill:#f39870;fill-opacity:1;fill-rule:nonzero;stroke:none;stroke-width:0.352778"
         id="path5050" />
      <path
         d="m 954.30859,1831.2441 c 10e-4,7e-4 -0.0155,0.01 -0.0353,0.037 -0.0219,0.027 -0.0462,0.07 -0.067,0.1274 -0.0131,0.029 -0.0176,0.062 -0.0236,0.097 -0.006,0.036 -0.0141,0.075 -0.008,0.1136 0.003,0.038 0.004,0.081 0.0106,0.122 0.008,0.039 0.0243,0.075 0.0377,0.1143 0.0169,0.035 0.0289,0.077 0.0515,0.1041 0.0205,0.029 0.0466,0.054 0.0677,0.079 0.0427,0.053 0.0928,0.084 0.1397,0.099 0.0903,0.04 0.15593,0.039 0.15593,0.039 0,0 -0.0258,-0.083 -0.0713,-0.1665 -0.0113,-0.022 -0.0229,-0.044 -0.0381,-0.065 -0.0109,-0.024 -0.0194,-0.052 -0.0328,-0.075 -0.0124,-0.023 -0.0219,-0.05 -0.0378,-0.072 -0.0162,-0.022 -0.019,-0.052 -0.0293,-0.077 -0.0272,-0.047 -0.0388,-0.099 -0.0557,-0.1492 -0.01,-0.026 -0.0138,-0.051 -0.0197,-0.075 -0.004,-0.026 -0.0148,-0.051 -0.0169,-0.075 -0.018,-0.095 -0.0272,-0.1792 -0.0272,-0.1785"
         style="fill:#f39870;fill-opacity:1;fill-rule:nonzero;stroke:none;stroke-width:0.352778"
         id="path5054" />
      <path
         d="m 939.7176,1830.0328 c 0.22154,1.3705 -0.16334,2.5887 -0.8576,2.7189 -0.69462,0.1322 -1.43651,-0.8718 -1.657,-2.2419 -0.21978,-1.3699 0.16369,-2.588 0.85937,-2.7196 0.69391,-0.1312 1.4351,0.8728 1.65523,2.2426"
         style="fill:#f4ae7f;fill-opacity:1;fill-rule:nonzero;stroke:none;stroke-width:0.352778"
         id="path5058" />
      <path
         d="m 938.88233,1829.6631 c 0,0 -0.0106,-0.077 -0.0378,-0.2021 -0.0265,-0.1263 -0.0818,-0.3038 -0.16757,-0.4929 -0.0871,-0.1824 -0.22754,-0.3937 -0.40357,-0.4046 -0.0438,0 -0.0886,0 -0.13371,0.019 -0.007,0.01 -0.054,0.023 -0.0677,0.035 -0.0148,0.015 -0.031,0.02 -0.0494,0.041 -0.072,0.07 -0.12982,0.176 -0.16757,0.2988 -0.042,0.1203 -0.0677,0.2551 -0.0818,0.3895 -0.0116,0.133 -0.0198,0.2734 -0.004,0.3922 0.0212,0.1369 0.0275,0.2787 0.0526,0.398 0.0236,0.1217 0.0455,0.237 0.066,0.3429 0.0282,0.1072 0.0501,0.2064 0.0695,0.2949 0.0187,0.089 0.0462,0.163 0.0617,0.2261 0.036,0.1253 0.0536,0.1986 0.0536,0.1986 0,0 -0.0356,-0.062 -0.0935,-0.1767 -0.0265,-0.059 -0.066,-0.1259 -0.10019,-0.2103 -0.0346,-0.084 -0.0748,-0.1792 -0.11466,-0.2839 -0.0381,-0.1073 -0.0723,-0.2286 -0.109,-0.3574 -0.0388,-0.1281 -0.0565,-0.2586 -0.0836,-0.3979 -0.0272,-0.1584 -0.0311,-0.3115 -0.0173,-0.4696 0.0127,-0.1552 0.0399,-0.3118 0.0885,-0.4639 0.0501,-0.1489 0.1277,-0.2956 0.24236,-0.4018 0.0258,-0.026 0.0639,-0.05 0.0991,-0.071 0.0381,-0.019 0.048,-0.02 0.0949,-0.038 0.0688,-0.015 0.13864,-0.021 0.20955,-0.01 0.14393,0.023 0.26352,0.1301 0.34078,0.2416 0.0801,0.1122 0.12806,0.2332 0.16439,0.344 0.0716,0.2243 0.0864,0.4187 0.0938,0.5514 0.005,0.134 -0.005,0.2081 -0.005,0.2081"
         style="fill:#f39870;fill-opacity:1;fill-rule:nonzero;stroke:none;stroke-width:0.352778"
         id="path5062" />
      <path
         d="m 938.88233,1829.6631 c 0,0 0.0642,-0.1464 -0.39335,-0.181 0,0 -0.51117,0.095 -0.21061,0.7765 0.0649,0.1464 0.1203,0.2984 0.15311,0.4597 0.0455,0.2289 -0.036,0.5394 0.0864,0.7422 0.15875,0.2618 0.56127,0.1129 0.58455,-0.187 0.019,-0.2296 -0.21731,-0.6233 -0.32526,-0.7867 0,0 -0.32843,-0.497 0.10513,-0.8237"
         style="fill:#f39870;fill-opacity:1;fill-rule:nonzero;stroke:none;stroke-width:0.352778"
         id="path5066" />
      <path
         d="m 939.10264,1831.2441 c -7.1e-4,7e-4 0.0159,0.01 0.0353,0.037 0.0222,0.027 0.0466,0.07 0.0674,0.1274 0.0127,0.029 0.0173,0.062 0.0236,0.097 0.007,0.036 0.0145,0.075 0.009,0.1136 -0.004,0.038 -0.004,0.081 -0.0109,0.122 -0.008,0.039 -0.0243,0.075 -0.0377,0.1143 -0.0173,0.035 -0.0289,0.077 -0.0515,0.1041 -0.0205,0.029 -0.0462,0.054 -0.0681,0.079 -0.0427,0.053 -0.0924,0.084 -0.13935,0.099 -0.0903,0.04 -0.15593,0.039 -0.15593,0.039 0,0 0.0258,-0.083 0.0713,-0.1665 0.0113,-0.022 0.0233,-0.044 0.0385,-0.065 0.0109,-0.024 0.0194,-0.052 0.0325,-0.075 0.012,-0.023 0.0215,-0.05 0.0374,-0.072 0.0162,-0.022 0.0194,-0.052 0.0296,-0.077 0.0268,-0.047 0.0392,-0.099 0.0554,-0.1492 0.01,-0.026 0.0141,-0.051 0.0201,-0.075 0.004,-0.026 0.0148,-0.051 0.0169,-0.075 0.018,-0.095 0.0268,-0.1792 0.0268,-0.1785"
         style="fill:#f39870;fill-opacity:1;fill-rule:nonzero;stroke:none;stroke-width:0.352778"
         id="path5070" />
      <path
         d="m 946.79002,1815.2505 v 0 c -0.0367,0 -0.073,7e-4 -0.10901,7e-4 -0.0377,0 -0.0737,-7e-4 -0.11006,-7e-4 v 0 c -5.52309,0.049 -8.62648,1.6221 -7.7784,11.69 l 0.95073,8.0197 c 0,0 0.16934,1.4633 1.77377,2.3386 l 3.00038,2.2242 c 0,0 1.42557,0.6329 2.16499,0.5705 0.73801,0.062 2.16359,-0.5712 2.16359,-0.5712 l 3.00002,-2.2243 c 1.60443,-0.8752 1.77377,-2.3385 1.77377,-2.3385 l 1.00118,-7.8342 c 0.84702,-10.0679 -2.30822,-11.8261 -7.83096,-11.8741"
         style="fill:#f4ae7f;fill-opacity:1;fill-rule:nonzero;stroke:none;stroke-width:0.352778"
         id="path5074" />
      <path
         d="m 953.28318,1830.0328 c -0.19579,0.8537 -0.33126,2.2204 -0.88618,2.9513 -0.39546,0.5218 -0.95849,0.7913 -1.61113,0.8266 -0.44239,0.025 -0.88583,-0.014 -1.32221,-0.091 -0.33902,-0.059 -0.65723,-0.2286 -1.00683,-0.236 -0.393,-0.01 -0.65758,0.1256 -0.99025,0.3072 -0.41592,0.2272 -0.78775,0.2032 -1.24107,0.062 -0.64629,-0.2018 -1.23614,-0.4438 -1.92723,-0.4195 -0.76023,0.026 -1.63477,0.2293 -2.37984,0 -0.79833,-0.2452 -1.21426,-0.9387 -1.52682,-1.6697 -0.16827,-0.394 -0.28751,-1.3236 -0.40746,-1.7314 -0.14922,-0.5076 -0.38241,-0.1584 -0.84455,-0.1644 l 0.60361,5.6617 c 0,0 0.16933,1.463 1.77376,2.3386 l 3.00038,2.2243 c 0,0 1.42557,0.6332 2.16535,0.5704 0.73766,0.063 2.16323,-0.5704 2.16323,-0.5704 l 3.00002,-2.225 c 1.60444,-0.8752 1.77377,-2.3386 1.77377,-2.3386 l 0.66357,-5.7591 c -0.52246,-0.012 -0.86324,-0.3323 -1.00012,0.2625"
         style="fill:#3f1c12;fill-opacity:1;fill-rule:nonzero;stroke:none;stroke-width:0.352778"
         id="path5078" />
      <path
         d="m 942.61182,1827.5985 c 0.004,0.5225 0.29704,0.9458 0.65581,0.9437 0.35948,0 0.64841,-0.4283 0.64453,-0.9518 -0.003,-0.5228 -0.29633,-0.9462 -0.65546,-0.9437 -0.35913,0 -0.6477,0.4283 -0.64488,0.9518"
         style="fill:#2a1811;fill-opacity:1;fill-rule:nonzero;stroke:none;stroke-width:0.352778"
         id="path5082" />
      <path
         d="m 943.00404,1827.2963 c 0,0.1559 -0.12594,0.2815 -0.28116,0.2815 -0.15593,0 -0.28152,-0.1256 -0.28152,-0.2815 0,-0.1552 0.12559,-0.2819 0.28152,-0.2819 0.15522,0 0.28116,0.1267 0.28116,0.2819"
         style="fill:#ffffff;fill-opacity:1;fill-rule:nonzero;stroke:none;stroke-width:0.352778"
         id="path5086" />
      <path
         d="m 950.79962,1827.5985 c -0.003,0.5225 -0.29704,0.9458 -0.65546,0.9437 -0.35948,0 -0.64841,-0.4283 -0.64523,-0.9518 0.004,-0.5228 0.29704,-0.9462 0.65617,-0.9437 0.35877,0 0.64734,0.4283 0.64452,0.9518"
         style="fill:#2a1811;fill-opacity:1;fill-rule:nonzero;stroke:none;stroke-width:0.352778"
         id="path5090" />
      <path
         d="m 950.40772,1827.2963 c 0,0.1559 0.12594,0.2815 0.28081,0.2815 0.15628,0 0.28152,-0.1256 0.28152,-0.2815 0,-0.1552 -0.12524,-0.2819 -0.28152,-0.2819 -0.15487,0 -0.28081,0.1267 -0.28081,0.2819"
         style="fill:#ffffff;fill-opacity:1;fill-rule:nonzero;stroke:none;stroke-width:0.352778"
         id="path5094" />
      <path
         d="m 947.66149,1832.6924 c -0.14887,0.1425 -0.32808,0.2579 -0.52141,0.3447 -0.19367,0.088 -0.40463,0.1464 -0.62441,0.1696 -0.11007,0.017 -0.22225,0.017 -0.33514,0.015 -0.11183,-0.012 -0.22719,-0.017 -0.33761,-0.048 -0.11324,-0.022 -0.22225,-0.058 -0.32949,-0.1006 -0.10901,-0.04 -0.20814,-0.097 -0.31115,-0.1502 l -0.12912,-0.066 -0.0293,-0.2176 c -0.0127,-0.097 -0.0212,-0.182 -0.0236,-0.272 -0.006,-0.089 -10e-4,-0.1767 7.1e-4,-0.2646 0.01,-0.1757 0.0314,-0.3507 0.072,-0.5225 0.0395,-0.1725 0.0956,-0.3421 0.17603,-0.5065 0.072,-0.1651 0.17568,-0.3242 0.30586,-0.4728 0.0787,0.1874 0.11642,0.362 0.14781,0.5341 0.036,0.1725 0.0504,0.3401 0.0628,0.5063 0.007,0.1658 0.0102,0.3305 0.004,0.4942 l -0.0152,0.2441 c -0.006,0.081 -0.0148,0.1651 -0.0247,0.2382 l -0.15769,-0.2837 c 0.0702,0.042 0.13406,0.1009 0.20779,0.1387 0.0727,0.04 0.14499,0.084 0.22366,0.1143 0.0762,0.038 0.1584,0.059 0.24024,0.09 0.084,0.018 0.16863,0.047 0.25718,0.058 0.0882,0.019 0.17886,0.023 0.27058,0.029 0.0928,0.01 0.18697,0.01 0.28257,0 0.1905,-0.01 0.38771,-0.031 0.58773,-0.076"
         style="fill:#eb946e;fill-opacity:1;fill-rule:nonzero;stroke:none;stroke-width:0.352778"
         id="path5098" />
      <path
         d="m 944.62428,1825.6671 c -0.06,0.2438 -0.29281,0.3895 -0.51541,0.3485 -0.90276,-0.1651 -1.80975,-0.08 -2.62784,0.2202 -0.20179,0.074 -0.44697,-0.034 -0.56092,-0.2579 -0.11359,-0.223 -0.018,-0.4953 0.2279,-0.5863 0.96731,-0.3599 2.03588,-0.4625 3.09492,-0.2741 0.26917,0.048 0.44167,0.3065 0.38135,0.5496"
         style="fill:#3f1c12;fill-opacity:1;fill-rule:nonzero;stroke:none;stroke-width:0.352778"
         id="path5102" />
      <path
         d="m 948.5374,1825.6671 c 0.06,0.2438 0.29316,0.3895 0.51541,0.3485 0.90276,-0.1651 1.80975,-0.08 2.62784,0.2202 0.20179,0.074 0.44732,-0.034 0.56127,-0.2579 0.11359,-0.223 0.018,-0.4953 -0.2279,-0.5863 -0.96766,-0.3599 -2.03588,-0.4625 -3.09491,-0.2741 -0.26953,0.048 -0.44168,0.3065 -0.38171,0.5496"
         style="fill:#3f1c12;fill-opacity:1;fill-rule:nonzero;stroke:none;stroke-width:0.352778"
         id="path5106" />
      <path
         d="m 946.9778,1836.2277 c 0,0 -0.32738,0.1009 -0.77752,0.012"
         style="fill:none;stroke:#eb8876;stroke-width:0.352778;stroke-linecap:round;stroke-linejoin:round;stroke-miterlimit:10;stroke-dasharray:none;stroke-opacity:1"
         id="path5110" />
      <path
         d="m 944.83736,1834.6195 0.45156,0.8879 c 0,0 2.01753,1.1335 3.4417,-0.8431 0,0 -2.21404,0.1027 -3.89326,-0.045"
         style="fill:#ffffff;fill-opacity:1;fill-rule:nonzero;stroke:none;stroke-width:0.352778"
         id="path5114" />
      <path
         d="m 942.7753,1817.5643 c 0,0 2.06199,2.4955 6.72394,3.1535 0,0 4.73605,1.6362 4.6729,4.3067 l -0.83538,4.844 0.9465,-0.098 c 0,0 0.0258,-1.9523 1.0661,-1.9801 0,0 0.93627,-3.919 0.9211,-4.59 -0.0148,-0.671 -1.31974,-7.3138 -1.31974,-7.3138 l -5.07859,-3.6223 c 0,0 -5.49204,-0.8054 -8.04157,-2.013 0,0 0.58173,1.5434 1.43157,2.013 0,0 -3.18382,0.3358 -3.48191,0.2681 -0.29775,-0.067 0.44026,1.6778 0.44026,1.6778 l -2.67405,4.0926 0.51576,9.4876 c 0,0 0.82656,0.082 1.07738,2.0782 h 0.77647 l -0.13582,-6.0876 c 0,0 1.0922,-3.7701 2.99508,-6.2166"
         style="fill:#3f1c12;fill-opacity:1;fill-rule:nonzero;stroke:none;stroke-width:0.352778"
         id="path5118" />
      <path
         d="m 942.56445,1817.3435 c -0.88794,-0.901 -1.79387,-1.9272 -2.37314,-3.0893 l -2.64512,4.0485 10e-4,0.024 c 0.87312,1.3991 1.74589,2.8003 2.66488,4.1698 0.48436,-1.318 1.36208,-3.3881 2.56293,-4.9322 0,0 0.26917,0.3246 0.82903,0.7691 -0.35737,-0.32 -0.7045,-0.6488 -1.03999,-0.9899"
         style="fill:#2e130b;fill-opacity:1;fill-rule:nonzero;stroke:none;stroke-width:0.352778"
         id="path5122" />
      <path
         d="m 946.65138,1846.6557 -0.62865,-3.2131 -3.32846,-2.0144 -0.48471,2.026 z"
         style="fill:#7178c0;fill-opacity:1;fill-rule:nonzero;stroke:none;stroke-width:0.352778"
         id="path5126" />
      <path
         d="m 946.65138,1846.6557 0.62865,-3.2131 3.32811,-2.0144 0.48506,2.026 z"
         style="fill:#7178c0;fill-opacity:1;fill-rule:nonzero;stroke:none;stroke-width:0.352778"
         id="path5130" />
      <path
         d="m 948.243,1843.8772 h -1.48661 -0.20425 -1.48661 c 0,0 -0.71014,0.4304 -0.40675,1.1776 l 1.01141,1.6009 h 0.75883 0.45049 0.75883 l 1.01141,-1.6009 c 0.30339,-0.7472 -0.40675,-1.1776 -0.40675,-1.1776"
         style="fill:#6347a5;fill-opacity:1;fill-rule:nonzero;stroke:none;stroke-width:0.352778"
         id="path5134" />
      <g
         transform="matrix(0.35277777,0,0,-0.35277777,948.45972,1844.0619)"
         id="g5146">
        <path
           d="m 0,0 c 0.179,-0.844 0.14,-1.746 -0.181,-2.678 -0.646,-1.875 -1.996,-3.342 -4,-3.699 -1.796,-0.322 -3.585,0.503 -4.119,2.299 -0.476,1.598 -0.74,3.41 0.28,4.601 h -1.602 c 0,0 -2.013,-1.219 -1.153,-3.337 l 2.867,-4.539 h 5.58 l 2.866,4.539 C 1.068,-1.512 0.509,-0.549 0,0"
           style="fill:#6347a5;fill-opacity:1;fill-rule:nonzero;stroke:none"
           id="path5144" />
      </g>
      <path
         d="m 945.66692,1846.6557 -1.08656,5.6924 h 4.14726 l -1.09185,-5.6924 z"
         style="fill:#6347a5;fill-opacity:1;fill-rule:nonzero;stroke:none;stroke-width:0.352778"
         id="path5154" />
      <path
         d="m 946.02262,1843.4424 -1.57339,2.8825 -3.84704,-2.6133 2.09197,-2.2836 z"
         style="fill:#8cb6e0;fill-opacity:1;fill-rule:nonzero;stroke:none;stroke-width:0.352778"
         id="path5158" />
      <path
         d="m 947.27992,1843.4424 1.57374,2.8825 3.84704,-2.6133 -2.09232,-2.2836 z"
         style="fill:#8cb6e0;fill-opacity:1;fill-rule:nonzero;stroke:none;stroke-width:0.352778"
         id="path5162" />
    </g>
  </g>
</svg>
