<?xml version="1.0" encoding="UTF-8" standalone="no"?>
<!-- Created with Inkscape (http://www.inkscape.org/) -->

<svg
   width="30.68936mm"
   height="40.924225mm"
   viewBox="0 0 30.689359 40.924226"
   version="1.1"
   id="svg9361"
   inkscape:version="1.1.1 (3bf5ae0d25, 2021-09-20)"
   sodipodi:docname="man4.svg"
   xmlns:inkscape="http://www.inkscape.org/namespaces/inkscape"
   xmlns:sodipodi="http://sodipodi.sourceforge.net/DTD/sodipodi-0.dtd"
   xmlns="http://www.w3.org/2000/svg"
   xmlns:svg="http://www.w3.org/2000/svg">
  <sodipodi:namedview
     id="namedview9363"
     pagecolor="#ffffff"
     bordercolor="#666666"
     borderopacity="1.0"
     inkscape:pageshadow="2"
     inkscape:pageopacity="0.0"
     inkscape:pagecheckerboard="0"
     inkscape:document-units="mm"
     showgrid="false"
     inkscape:zoom="0.50835204"
     inkscape:cx="-215.40191"
     inkscape:cy="-331.46321"
     inkscape:window-width="1920"
     inkscape:window-height="1017"
     inkscape:window-x="-8"
     inkscape:window-y="-8"
     inkscape:window-maximized="1"
     inkscape:current-layer="layer1" />
  <defs
     id="defs9358" />
  <g
     inkscape:label="Capa 1"
     inkscape:groupmode="layer"
     id="layer1"
     transform="translate(-379.46766,-1437.323)">
    <g
       id="g9080"
       transform="translate(-62.140498,-101.91416)">
      <path
         d="m 460.90465,1572.1547 h -7.91139 v -2.9132 h 7.91139 z"
         style="fill:#75bec9;fill-opacity:1;fill-rule:nonzero;stroke:none;stroke-width:0.352778"
         id="path4716" />
      <path
         d="m 460.12618,1565.8235 h -2.84762 -3.57999 c 0,0 0.16263,4.058 -0.62477,5.2363 h 3.87914 3.87844 c -0.78704,-1.1783 -0.7052,-5.2363 -0.7052,-5.2363"
         style="fill:#f4ae7f;fill-opacity:1;fill-rule:nonzero;stroke:none;stroke-width:0.352778"
         id="path4720" />
      <g
         transform="matrix(0.35277777,0,0,-0.35277777,453.61718,1568.8893)"
         id="g4732">
        <path
           d="m 0,0 c 2.594,-1.678 6.49,-2.518 9.597,-2.548 3.407,-0.034 6.412,0.858 9.298,2.08 C 18.354,3.848 18.451,8.69 18.451,8.69 H 0.231 C 0.231,8.69 0.411,4.19 0,0"
           style="fill:#f7d9d5;fill-opacity:1;fill-rule:nonzero;stroke:none"
           id="path4730" />
      </g>
      <path
         d="m 469.37107,1573.8727 -9.33027,-3.3422 h -3.04129 -0.10337 -3.04165 l -9.32991,3.3422 c 0,0 -3.26708,1.0749 -2.88537,6.2886 h 15.25693 0.10337 15.25693 c 0.44591,-5.534 -2.88537,-6.2886 -2.88537,-6.2886"
         style="fill:#f4ae7f;fill-opacity:1;fill-rule:nonzero;stroke:none;stroke-width:0.352778"
         id="path4740" />
      <path
         id="path4744"
         style="fill:#edf9f6;fill-opacity:1;fill-rule:nonzero;stroke:none;stroke-width:0.352778"
         d="m 444.72266,1574.3633 c -1.99465,0.866 -2.68287,3.2579 -2.58008,5.2695 l 11.83888,0.5284 h 6.18954 l 11.58681,-0.5284 c 0.10321,-1.8949 -0.34785,-4.1954 -2.20381,-5.1284 -2.57247,-0.9325 -5.15411,-1.8474 -7.72978,-2.7739 -1.62572,1.134 -3.24538,0.2158 -4.87146,1.3492 -1.58937,-1.1457 -3.18105,-0.2428 -4.76917,-1.3902 -2.48698,0.8912 -4.97395,1.7825 -7.46093,2.6738 z"
         sodipodi:nodetypes="cccccccccc" />
      <path
         d="m 452.27014,1571.098 -7.74559,2.7746 c 0,0 -3.26707,1.0749 -2.88537,6.2886 h 12.34228 z"
         style="fill:#112046;fill-opacity:1;fill-rule:nonzero;stroke:none;stroke-width:0.352778"
         id="path4748" />
      <path
         d="m 469.37107,1573.8727 -7.62423,-2.7312 -1.57586,9.0198 h 12.08546 c 0.44591,-5.534 -2.88537,-6.2886 -2.88537,-6.2886"
         style="fill:#112046;fill-opacity:1;fill-rule:nonzero;stroke:none;stroke-width:0.352778"
         id="path4752" />
      <path
         d="m 463.99241,1557.8461 c -0.2219,1.3705 0.16298,2.5887 0.85796,2.7189 0.69426,0.1322 1.43651,-0.8718 1.65664,-2.2419 0.21978,-1.3699 -0.16369,-2.588 -0.85901,-2.7196 -0.69392,-0.1312 -1.43546,0.8728 -1.65559,2.2426"
         style="fill:#f4ae7f;fill-opacity:1;fill-rule:nonzero;stroke:none;stroke-width:0.352778"
         id="path4756" />
      <path
         d="m 464.82804,1557.4764 c 0,0 0.0102,-0.077 0.0377,-0.2021 0.0265,-0.1263 0.0815,-0.3038 0.16721,-0.4929 0.0871,-0.1824 0.22719,-0.3937 0.40393,-0.4046 0.0437,0 0.0885,0 0.13371,0.019 0.007,0.01 0.0536,0.023 0.0677,0.035 0.0148,0.015 0.031,0.02 0.0494,0.041 0.072,0.07 0.12982,0.176 0.16722,0.2988 0.0416,0.1203 0.0681,0.2551 0.0818,0.3895 0.012,0.133 0.0201,0.2734 0.004,0.3922 -0.0212,0.1369 -0.0275,0.2787 -0.0529,0.398 -0.0229,0.1217 -0.0455,0.237 -0.066,0.3429 -0.0279,0.1072 -0.0494,0.2064 -0.0691,0.2949 -0.0187,0.089 -0.0459,0.163 -0.0621,0.2261 -0.0353,0.1253 -0.0533,0.1986 -0.0533,0.1986 0,0 0.0356,-0.062 0.0935,-0.1767 0.0268,-0.059 0.0663,-0.1259 0.10054,-0.2103 0.0346,-0.084 0.0748,-0.1792 0.11466,-0.2839 0.0381,-0.1073 0.072,-0.2286 0.10936,-0.3574 0.0385,-0.1281 0.0561,-0.2586 0.0832,-0.3979 0.0268,-0.1584 0.0307,-0.3115 0.0173,-0.4696 -0.013,-0.1552 -0.0402,-0.3118 -0.0889,-0.4639 -0.0501,-0.1489 -0.12735,-0.2956 -0.24201,-0.4018 -0.0258,-0.026 -0.0639,-0.05 -0.0991,-0.071 -0.0381,-0.019 -0.0483,-0.02 -0.0952,-0.038 -0.0688,-0.015 -0.13829,-0.021 -0.2092,-0.01 -0.14393,0.023 -0.26387,0.1301 -0.34113,0.2416 -0.0801,0.1122 -0.12771,0.2332 -0.16475,0.344 -0.0709,0.2243 -0.0857,0.4187 -0.0931,0.5514 -0.005,0.134 0.005,0.2081 0.005,0.2081"
         style="fill:#f39870;fill-opacity:1;fill-rule:nonzero;stroke:none;stroke-width:0.352778"
         id="path4760" />
      <path
         d="m 464.82804,1557.4764 c 0,0 -0.0642,-0.1464 0.39335,-0.181 0,0 0.51082,0.095 0.21025,0.7765 -0.0649,0.1464 -0.11994,0.2984 -0.15275,0.4597 -0.0459,0.2289 0.036,0.5394 -0.0864,0.7422 -0.15875,0.2618 -0.56127,0.1129 -0.58491,-0.187 -0.0187,-0.2296 0.21767,-0.6233 0.32562,-0.7867 0,0 0.32843,-0.497 -0.10513,-0.8237"
         style="fill:#f39870;fill-opacity:1;fill-rule:nonzero;stroke:none;stroke-width:0.352778"
         id="path4764" />
      <path
         d="m 464.60755,1559.0574 c 7.1e-4,7e-4 -0.0159,0.01 -0.0356,0.037 -0.0219,0.027 -0.0459,0.07 -0.067,0.1274 -0.0131,0.029 -0.0176,0.062 -0.0236,0.097 -0.006,0.036 -0.0145,0.075 -0.008,0.1136 0.003,0.038 0.004,0.081 0.0109,0.122 0.008,0.039 0.0243,0.075 0.0374,0.1143 0.0173,0.035 0.0289,0.077 0.0515,0.1041 0.0205,0.029 0.0462,0.054 0.0681,0.079 0.0427,0.053 0.0924,0.084 0.13935,0.099 0.09,0.04 0.15628,0.039 0.15628,0.039 0,0 -0.0265,-0.083 -0.0716,-0.1665 -0.0109,-0.022 -0.0233,-0.044 -0.0381,-0.065 -0.0109,-0.024 -0.0198,-0.052 -0.0328,-0.075 -0.012,-0.023 -0.0219,-0.05 -0.0378,-0.072 -0.0159,-0.022 -0.019,-0.052 -0.0293,-0.077 -0.0272,-0.047 -0.0388,-0.099 -0.0557,-0.1492 -0.01,-0.026 -0.0134,-0.051 -0.0194,-0.075 -0.004,-0.026 -0.0148,-0.051 -0.0173,-0.075 -0.018,-0.095 -0.0272,-0.1792 -0.0268,-0.1785"
         style="fill:#f39870;fill-opacity:1;fill-rule:nonzero;stroke:none;stroke-width:0.352778"
         id="path4768" />
      <path
         d="m 450.01617,1557.8461 c 0.2219,1.3705 -0.16334,2.5887 -0.8576,2.7189 -0.69427,0.1322 -1.43651,-0.8718 -1.657,-2.2419 -0.21978,-1.3699 0.16404,-2.588 0.85901,-2.7196 0.69427,-0.1312 1.43581,0.8728 1.65559,2.2426"
         style="fill:#f4ae7f;fill-opacity:1;fill-rule:nonzero;stroke:none;stroke-width:0.352778"
         id="path4772" />
      <path
         d="m 449.18093,1557.4764 c 0,0 -0.0102,-0.077 -0.0378,-0.2021 -0.0265,-0.1263 -0.0815,-0.3038 -0.16721,-0.4929 -0.0875,-0.1824 -0.22755,-0.3937 -0.40429,-0.4046 -0.0434,0 -0.0882,0 -0.1337,0.019 -0.007,0.01 -0.0533,0.023 -0.0674,0.035 -0.0148,0.015 -0.031,0.02 -0.0494,0.041 -0.072,0.07 -0.12982,0.176 -0.16722,0.2988 -0.042,0.1203 -0.0681,0.2551 -0.0818,0.3895 -0.012,0.133 -0.0201,0.2734 -0.004,0.3922 0.0212,0.1369 0.0275,0.2787 0.0526,0.398 0.0236,0.1217 0.0455,0.237 0.066,0.3429 0.0282,0.1072 0.0501,0.2064 0.0691,0.2949 0.019,0.089 0.0459,0.163 0.0621,0.2261 0.0356,0.1253 0.0536,0.1986 0.0536,0.1986 0,0 -0.036,-0.062 -0.0935,-0.1767 -0.0268,-0.059 -0.0663,-0.1259 -0.10019,-0.2103 -0.0349,-0.084 -0.0751,-0.1792 -0.11501,-0.2839 -0.0381,-0.1073 -0.072,-0.2286 -0.10936,-0.3574 -0.0384,-0.1281 -0.0561,-0.2586 -0.0836,-0.3979 -0.0265,-0.1584 -0.0303,-0.3115 -0.0169,-0.4696 0.013,-0.1552 0.0402,-0.3118 0.0889,-0.4639 0.0497,-0.1489 0.12735,-0.2956 0.24201,-0.4018 0.0257,-0.026 0.0639,-0.05 0.0991,-0.071 0.0381,-0.019 0.0483,-0.02 0.0952,-0.038 0.0684,-0.015 0.13829,-0.021 0.2092,-0.01 0.14393,0.023 0.26352,0.1301 0.34113,0.2416 0.0797,0.1122 0.12771,0.2332 0.16475,0.344 0.0709,0.2243 0.0857,0.4187 0.0928,0.5514 0.005,0.134 -0.005,0.2081 -0.005,0.2081"
         style="fill:#f39870;fill-opacity:1;fill-rule:nonzero;stroke:none;stroke-width:0.352778"
         id="path4776" />
      <path
         d="m 449.18093,1557.4764 c 0,0 0.0642,-0.1464 -0.39335,-0.181 0,0 -0.51082,0.095 -0.21061,0.7765 0.0649,0.1464 0.12065,0.2984 0.15311,0.4597 0.0459,0.2289 -0.036,0.5394 0.0868,0.7422 0.1584,0.2618 0.56092,0.1129 0.58456,-0.187 0.0183,-0.2296 -0.21732,-0.6233 -0.32526,-0.7867 0,0 -0.32844,-0.497 0.10477,-0.8237"
         style="fill:#f39870;fill-opacity:1;fill-rule:nonzero;stroke:none;stroke-width:0.352778"
         id="path4780" />
      <path
         d="m 449.40124,1559.0574 c -7.1e-4,7e-4 0.0159,0.01 0.0356,0.037 0.0219,0.027 0.0459,0.07 0.067,0.1274 0.0127,0.029 0.0176,0.062 0.0236,0.097 0.006,0.036 0.0145,0.075 0.008,0.1136 -0.003,0.038 -0.004,0.081 -0.0109,0.122 -0.007,0.039 -0.024,0.075 -0.0374,0.1143 -0.0173,0.035 -0.0289,0.077 -0.0515,0.1041 -0.0205,0.029 -0.0462,0.054 -0.0681,0.079 -0.0427,0.053 -0.0928,0.084 -0.139,0.099 -0.0903,0.04 -0.15628,0.039 -0.15628,0.039 0,0 0.0261,-0.083 0.0709,-0.1665 0.012,-0.022 0.0236,-0.044 0.0385,-0.065 0.0113,-0.024 0.0198,-0.052 0.0328,-0.075 0.012,-0.023 0.0219,-0.05 0.0377,-0.072 0.0162,-0.022 0.019,-0.052 0.0293,-0.077 0.0272,-0.047 0.0388,-0.099 0.0557,-0.1492 0.009,-0.026 0.0134,-0.051 0.0194,-0.075 0.004,-0.026 0.0152,-0.051 0.0173,-0.075 0.018,-0.095 0.0272,-0.1792 0.0268,-0.1785"
         style="fill:#f39870;fill-opacity:1;fill-rule:nonzero;stroke:none;stroke-width:0.352778"
         id="path4784" />
      <path
         d="m 457.08862,1543.0638 v 0 c -0.0367,0 -0.073,7e-4 -0.10901,7e-4 -0.0374,0 -0.0734,-7e-4 -0.11042,-7e-4 v 0 c -5.52273,0.049 -8.62612,1.6221 -7.77804,11.69 l 0.95038,8.0197 c 0,0 0.16969,1.4633 1.77412,2.3386 l 3.00073,2.2242 c 0,0 1.42522,0.6329 2.16464,0.5705 0.73837,0.062 2.16359,-0.5712 2.16359,-0.5712 l 3.00002,-2.2243 c 1.60479,-0.8752 1.77377,-2.3385 1.77377,-2.3385 l 1.00118,-7.8342 c 0.84737,-10.0679 -2.30822,-11.8261 -7.83096,-11.8741"
         style="fill:#f4ae7f;fill-opacity:1;fill-rule:nonzero;stroke:none;stroke-width:0.352778"
         id="path4788" />
      <path
         d="m 463.58178,1557.8461 c -0.19579,0.8537 -0.33055,2.2204 -0.88618,2.9513 -0.39546,0.5218 -0.95885,0.7913 -1.61078,0.8266 -0.44274,0.025 -0.88583,-0.014 -1.32292,-0.091 -0.33866,-0.059 -0.65687,-0.2286 -1.00647,-0.236 -0.393,-0.01 -0.65793,0.1256 -0.99025,0.3072 -0.41592,0.2272 -0.7874,0.2032 -1.24107,0.062 -0.64664,-0.2018 -1.23614,-0.4438 -1.92687,-0.4195 -0.76059,0.026 -1.63478,0.2293 -2.3802,0 -0.79798,-0.2452 -1.21426,-0.9387 -1.52647,-1.6697 -0.16827,-0.394 -0.28751,-1.3236 -0.40745,-1.7314 -0.14958,-0.5076 -0.38277,-0.1584 -0.84491,-0.1644 l 0.60361,5.0913 c 0,0 0.16933,1.463 1.77376,2.3386 l 3.00073,2.2239 c 0,0 1.42522,0.6329 2.165,0.5708 0.73801,0.062 2.16323,-0.5715 2.16323,-0.5715 l 3.00002,-2.2239 c 1.60479,-0.8756 1.77377,-2.3386 1.77377,-2.3386 l 0.66322,-5.1887 c -0.52176,-0.012 -0.86289,-0.3323 -0.99977,0.2625"
         style="fill:#e17f50;fill-opacity:1;fill-rule:nonzero;stroke:none;stroke-width:0.352778"
         id="path4792" />
      <path
         d="m 452.91075,1555.4118 c 0.003,0.5225 0.29669,0.9458 0.65581,0.9437 0.35948,0 0.6477,-0.4283 0.64418,-0.9518 -0.003,-0.5228 -0.29669,-0.9462 -0.65511,-0.9437 -0.35878,0 -0.6477,0.4283 -0.64488,0.9518"
         style="fill:#2a1811;fill-opacity:1;fill-rule:nonzero;stroke:none;stroke-width:0.352778"
         id="path4796" />
      <path
         d="m 453.30265,1555.1096 c 0,0.1559 -0.12594,0.2815 -0.28116,0.2815 -0.15593,0 -0.28117,-0.1256 -0.28117,-0.2815 0,-0.1552 0.12524,-0.2819 0.28117,-0.2819 0.15522,0 0.28116,0.1267 0.28116,0.2819"
         style="fill:#ffffff;fill-opacity:1;fill-rule:nonzero;stroke:none;stroke-width:0.352778"
         id="path4800" />
      <path
         d="m 461.09854,1555.4118 c -0.004,0.5225 -0.29704,0.9458 -0.65581,0.9437 -0.35948,0 -0.64841,-0.4283 -0.64488,-0.9518 0.003,-0.5228 0.29668,-0.9462 0.65581,-0.9437 0.35878,0 0.64735,0.4283 0.64488,0.9518"
         style="fill:#2a1811;fill-opacity:1;fill-rule:nonzero;stroke:none;stroke-width:0.352778"
         id="path4804" />
      <path
         d="m 460.70632,1555.1096 c 0,0.1559 0.12594,0.2815 0.28116,0.2815 0.15558,0 0.28152,-0.1256 0.28152,-0.2815 0,-0.1552 -0.12594,-0.2819 -0.28152,-0.2819 -0.15522,0 -0.28116,0.1267 -0.28116,0.2819"
         style="fill:#ffffff;fill-opacity:1;fill-rule:nonzero;stroke:none;stroke-width:0.352778"
         id="path4808" />
      <path
         d="m 457.96005,1560.5057 c -0.14887,0.1425 -0.32808,0.2579 -0.52141,0.3447 -0.19367,0.088 -0.40463,0.1464 -0.62441,0.1696 -0.11007,0.017 -0.2219,0.017 -0.33514,0.015 -0.11183,-0.012 -0.22719,-0.017 -0.33761,-0.048 -0.11324,-0.022 -0.22225,-0.058 -0.32949,-0.1006 -0.10866,-0.04 -0.20814,-0.097 -0.31115,-0.1502 l -0.12912,-0.066 -0.0289,-0.2176 c -0.0131,-0.097 -0.0215,-0.182 -0.024,-0.272 -0.006,-0.089 -0.001,-0.1767 7.1e-4,-0.2646 0.01,-0.1757 0.0314,-0.3507 0.072,-0.5225 0.0399,-0.1725 0.0956,-0.3421 0.17603,-0.5065 0.072,-0.1651 0.17568,-0.3242 0.30586,-0.4728 0.0787,0.1874 0.11642,0.362 0.14781,0.5341 0.036,0.1725 0.0504,0.3401 0.0628,0.5063 0.007,0.1658 0.0102,0.3305 0.004,0.4942 l -0.0152,0.2441 c -0.006,0.081 -0.0148,0.1651 -0.0243,0.2382 l -0.15805,-0.2837 c 0.0702,0.042 0.13406,0.1009 0.20779,0.1387 0.0727,0.04 0.14499,0.084 0.22366,0.1143 0.0762,0.038 0.1584,0.059 0.24024,0.09 0.084,0.018 0.16863,0.047 0.25718,0.058 0.0882,0.019 0.17886,0.023 0.27058,0.029 0.0928,0.01 0.18697,0.01 0.28257,0 0.1905,-0.01 0.38771,-0.031 0.58773,-0.076"
         style="fill:#eb946e;fill-opacity:1;fill-rule:nonzero;stroke:none;stroke-width:0.352778"
         id="path4812" />
      <path
         d="m 454.9232,1553.4804 c -0.06,0.2438 -0.29316,0.3895 -0.51541,0.3485 -0.90276,-0.1651 -1.80975,-0.08 -2.62784,0.2202 -0.20179,0.074 -0.44732,-0.034 -0.56127,-0.2579 -0.11359,-0.223 -0.018,-0.4953 0.2279,-0.5863 0.96766,-0.3599 2.03552,-0.4625 3.09491,-0.2741 0.26953,0.048 0.44168,0.3065 0.38171,0.5496"
         style="fill:#e17f50;fill-opacity:1;fill-rule:nonzero;stroke:none;stroke-width:0.352778"
         id="path4816" />
      <path
         d="m 458.83632,1553.4804 c 0.06,0.2438 0.29281,0.3895 0.51506,0.3485 0.90311,-0.1651 1.8101,-0.08 2.62819,0.2202 0.20144,0.074 0.44732,-0.034 0.56092,-0.2579 0.11359,-0.223 0.018,-0.4953 -0.2279,-0.5863 -0.96731,-0.3599 -2.03588,-0.4625 -3.09492,-0.2741 -0.26917,0.048 -0.44167,0.3065 -0.38135,0.5496"
         style="fill:#e17f50;fill-opacity:1;fill-rule:nonzero;stroke:none;stroke-width:0.352778"
         id="path4820" />
      <path
         d="m 457.27672,1564.041 c 0,0 -0.32738,0.1009 -0.77787,0.012"
         style="fill:none;stroke:#eb8876;stroke-width:0.352778;stroke-linecap:round;stroke-linejoin:round;stroke-miterlimit:10;stroke-dasharray:none;stroke-opacity:1"
         id="path4824" />
      <path
         d="m 455.13593,1562.4328 0.45156,0.8879 c 0,0 2.01824,1.1335 3.4417,-0.8431 0,0 -2.21404,0.1027 -3.89326,-0.045"
         style="fill:#ffffff;fill-opacity:1;fill-rule:nonzero;stroke:none;stroke-width:0.352778"
         id="path4828" />
      <path
         d="m 465.04094,1543.479 c 0.64735,-2.8254 -2.77989,-3.2459 -2.77989,-3.2459 -3.58916,-0.077 -6.17855,-0.8202 -6.17855,-0.8202 -6.9984,-0.9846 -7.80133,2.4895 -7.80133,2.4895 -0.85407,2.4889 -0.75494,4.0146 -0.75494,4.0146 l 0.83432,9.6866 c 0,0 0.71226,-0.1178 0.94509,0.9585 l 0.17216,1.2742 0.80539,0.01 c -0.20391,-3.9938 -0.20391,-7.2566 -0.20391,-7.2566 0.0632,-1.1734 0,-2.8759 1.78753,-3.0787 0.88476,0.1637 1.80269,0.29 2.70016,0.3655 1.6771,0.1407 3.01625,0.1351 5.16502,-0.1288 1.11054,-0.1365 3.0226,-0.5687 3.804,0.4939 0.54822,0.7451 0.53375,1.9607 0.55915,2.8434 0.0131,0.4836 -0.0317,0.9553 -0.061,1.4354 -7e-4,0.01 -0.45226,5.3259 -0.45226,5.3259 h 0.96626 c 0.15522,-2.4387 1.41958,-2.0884 1.41958,-2.0884 0.72601,-5.4737 1.49613,-9.0403 1.49613,-9.0417 0,0 0.2674,-3.0184 -2.42288,-3.2371"
         style="fill:#e17f50;fill-opacity:1;fill-rule:nonzero;stroke:none;stroke-width:0.352778"
         id="path4832" />
      <path
         d="m 465.31706,1542.1502 c 0,0 0.79163,0.6996 -0.27622,1.5882 l 0.90416,1.0721 c 0,0 0.96273,-1.3885 1.66194,-0.8167 0,0 -0.22437,-0.8135 -1.2573,-0.5725 0,0 0.41628,-1.1787 -1.03258,-1.2711"
         style="fill:#e17f50;fill-opacity:1;fill-rule:nonzero;stroke:none;stroke-width:0.352778"
         id="path4836" />
      <path
         d="m 452.27014,1571.098 1.71132,9.0632 h -1.86196 l -3.9818,-7.5829 z"
         style="fill:#1a3068;fill-opacity:1;fill-rule:nonzero;stroke:none;stroke-width:0.352778"
         id="path4840" />
      <path
         d="m 461.74673,1571.1414 -1.57586,9.0198 h 1.73567 l 3.45581,-7.724 z"
         style="fill:#1a3068;fill-opacity:1;fill-rule:nonzero;stroke:none;stroke-width:0.352778"
         id="path4844" />
      <path
         d="m 456.94994,1574.469 -0.6283,-3.2131 -3.32846,-2.0144 -0.48506,2.026 z"
         style="fill:#75bec9;fill-opacity:1;fill-rule:nonzero;stroke:none;stroke-width:0.352778"
         id="path4848" />
      <path
         d="m 456.94994,1574.469 0.629,-3.2131 3.32811,-2.0144 0.48471,2.026 z"
         style="fill:#75bec9;fill-opacity:1;fill-rule:nonzero;stroke:none;stroke-width:0.352778"
         id="path4852" />
      <path
         d="m 458.54161,1571.6905 h -1.48625 -0.20497 -1.4866 c 0,0 -0.71014,0.4304 -0.4064,1.1776 l 1.01106,1.6009 h 0.75882 0.45121 0.75882 l 1.01071,-1.6009 c 0.30409,-0.7472 -0.4064,-1.1776 -0.4064,-1.1776"
         style="fill:#ed3947;fill-opacity:1;fill-rule:nonzero;stroke:none;stroke-width:0.352778"
         id="path4856" />
      <g
         transform="matrix(0.35277777,0,0,-0.35277777,458.75864,1571.8752)"
         id="g4868">
        <path
           d="m 0,0 c 0.178,-0.844 0.14,-1.746 -0.181,-2.678 -0.648,-1.875 -1.997,-3.342 -4.001,-3.699 -1.795,-0.322 -3.584,0.503 -4.119,2.299 -0.476,1.598 -0.74,3.41 0.281,4.601 h -1.603 c 0,0 -2.013,-1.219 -1.152,-3.337 l 2.866,-4.539 h 5.581 l 2.865,4.539 C 1.067,-1.512 0.508,-0.549 0,0"
           style="fill:#ed3947;fill-opacity:1;fill-rule:nonzero;stroke:none"
           id="path4866" />
      </g>
      <path
         d="m 455.96552,1574.469 -1.0862,5.6924 h 4.14725 l -1.0922,-5.6924 z"
         style="fill:#ed3947;fill-opacity:1;fill-rule:nonzero;stroke:none;stroke-width:0.352778"
         id="path4876" />
      <path
         d="m 456.32158,1571.2557 -1.57374,2.8825 -3.84704,-2.6133 2.09232,-2.2836 z"
         style="fill:#c2eae4;fill-opacity:1;fill-rule:nonzero;stroke:none;stroke-width:0.352778"
         id="path4880" />
      <path
         d="m 457.57884,1571.2557 1.57374,2.8825 3.84669,-2.6133 -2.09197,-2.2836 z"
         style="fill:#c2eae4;fill-opacity:1;fill-rule:nonzero;stroke:none;stroke-width:0.352778"
         id="path4884" />
    </g>
  </g>
</svg>
