<?xml version="1.0" encoding="UTF-8" standalone="no"?>
<!-- Created with Inkscape (http://www.inkscape.org/) -->

<svg
   width="24.2855mm"
   height="36.461845mm"
   viewBox="0 0 24.285499 36.461846"
   version="1.1"
   id="svg9361"
   inkscape:version="1.1.1 (3bf5ae0d25, 2021-09-20)"
   sodipodi:docname="woman4.svg"
   xmlns:inkscape="http://www.inkscape.org/namespaces/inkscape"
   xmlns:sodipodi="http://sodipodi.sourceforge.net/DTD/sodipodi-0.dtd"
   xmlns="http://www.w3.org/2000/svg"
   xmlns:svg="http://www.w3.org/2000/svg">
  <sodipodi:namedview
     id="namedview9363"
     pagecolor="#ffffff"
     bordercolor="#666666"
     borderopacity="1.0"
     inkscape:pageshadow="2"
     inkscape:pageopacity="0.0"
     inkscape:pagecheckerboard="0"
     inkscape:document-units="mm"
     showgrid="false"
     inkscape:zoom="0.50835204"
     inkscape:cx="-83.603481"
     inkscape:cy="-349.16748"
     inkscape:window-width="1920"
     inkscape:window-height="1017"
     inkscape:window-x="-8"
     inkscape:window-y="-8"
     inkscape:window-maximized="1"
     inkscape:current-layer="layer1" />
  <defs
     id="defs9358" />
  <g
     inkscape:label="Capa 1"
     inkscape:groupmode="layer"
     id="layer1"
     transform="translate(-344.78896,-1441.7854)">
    <g
       id="g8269"
       transform="translate(-625.39316,-374.10086)">
      <path
         d="m 984.94152,1839.3859 h -2.34844 -2.95205 c 0,0 0.13406,4.0594 -0.51505,5.238 h 3.19899 3.19863 c -0.64911,-1.1786 -0.58208,-5.238 -0.58208,-5.238"
         style="fill:#f4ae7f;fill-opacity:1;fill-rule:nonzero;stroke:none;stroke-width:0.352778"
         id="path4888" />
      <g
         transform="matrix(0.35277777,0,0,-0.35277777,979.61162,1841.8805)"
         id="g4900">
        <path
           d="m 0,0 c 2.799,-1.32 5.62,-2.582 8.825,-2.276 2.273,0.217 4.468,0.906 6.498,1.937 -0.275,3.775 -0.215,7.41 -0.215,7.41 H 0.083 C 0.083,7.071 0.196,3.65 0,0"
           style="fill:#f7d9d5;fill-opacity:1;fill-rule:nonzero;stroke:none"
           id="path4898" />
      </g>
      <path
         d="m 992.1516,1846.9248 -7.38329,-2.8825 h -2.40629 -0.0822 -2.407 l -7.38294,2.8825 c 0,0 -2.5855,0.9267 -2.28317,5.4233 h 12.07311 0.0822 12.07311 c 0.35278,-4.7728 -2.28353,-5.4233 -2.28353,-5.4233"
         style="fill:#f4ae7f;fill-opacity:1;fill-rule:nonzero;stroke:none;stroke-width:0.352778"
         id="path4908" />
      <path
         d="m 988.98489,1831.6695 c -0.21837,1.3476 0.16051,2.5453 0.8442,2.6733 0.68297,0.1299 1.41287,-0.8572 1.62948,-2.2055 0.2159,-1.3476 -0.16122,-2.5446 -0.84526,-2.6744 -0.68298,-0.1288 -1.41181,0.8583 -1.62842,2.2066"
         style="fill:#f4ae7f;fill-opacity:1;fill-rule:nonzero;stroke:none;stroke-width:0.352778"
         id="path4912" />
      <path
         d="m 989.80654,1831.305 c 0,0 0.0102,-0.076 0.0374,-0.199 0.0261,-0.1238 0.0801,-0.2981 0.1644,-0.4843 0.0854,-0.1796 0.22401,-0.387 0.39723,-0.398 0.043,0 0.0868,0 0.13158,0.018 0.007,0.01 0.0529,0.024 0.0667,0.035 0.0148,0.014 0.0307,0.02 0.0483,0.04 0.0709,0.069 0.1277,0.1729 0.16475,0.2939 0.0409,0.1189 0.0667,0.2519 0.0804,0.3827 0.0116,0.1316 0.0198,0.2696 0.005,0.3867 -0.0212,0.1351 -0.0275,0.2734 -0.0519,0.3909 -0.0233,0.1203 -0.0448,0.2332 -0.0656,0.3379 -0.0272,0.1055 -0.0483,0.2032 -0.0674,0.29 -0.019,0.088 -0.0455,0.1605 -0.0614,0.2219 -0.0349,0.1231 -0.0526,0.1958 -0.0526,0.1958 0,0 0.0349,-0.062 0.0917,-0.1739 0.0265,-0.058 0.0656,-0.1238 0.0988,-0.2075 0.0346,-0.082 0.0737,-0.1753 0.11289,-0.2786 0.0377,-0.1055 0.0709,-0.2251 0.1076,-0.3511 0.0377,-0.1259 0.0554,-0.2554 0.0822,-0.3915 0.0264,-0.1563 0.03,-0.307 0.0169,-0.4622 -0.0131,-0.1527 -0.0395,-0.3073 -0.0871,-0.4561 -0.0497,-0.1464 -0.12559,-0.2904 -0.23848,-0.3951 -0.0254,-0.025 -0.0624,-0.049 -0.097,-0.07 -0.0381,-0.02 -0.0483,-0.021 -0.0942,-0.038 -0.0674,-0.015 -0.13582,-0.021 -0.20602,-0.01 -0.14111,0.022 -0.25894,0.1277 -0.33479,0.2378 -0.079,0.1097 -0.12629,0.2293 -0.16228,0.3379 -0.0698,0.2209 -0.0843,0.4121 -0.0921,0.5426 -0.005,0.1319 0.005,0.2046 0.005,0.2046"
         style="fill:#f39870;fill-opacity:1;fill-rule:nonzero;stroke:none;stroke-width:0.352778"
         id="path4916" />
      <path
         d="m 989.80654,1831.305 c 0,0 -0.0628,-0.1436 0.387,-0.1774 0,0 0.50271,0.092 0.20708,0.7634 -0.0639,0.1442 -0.11854,0.2931 -0.15064,0.4515 -0.0445,0.2251 0.0356,0.5302 -0.085,0.7306 -0.15557,0.2572 -0.55209,0.1104 -0.57503,-0.1841 -0.0183,-0.2251 0.21379,-0.6125 0.31997,-0.773 0,-7e-4 0.32315,-0.49 -0.10336,-0.811"
         style="fill:#f39870;fill-opacity:1;fill-rule:nonzero;stroke:none;stroke-width:0.352778"
         id="path4920" />
      <path
         d="m 989.58983,1832.8605 c 7.1e-4,7e-4 -0.0155,0.01 -0.0349,0.036 -0.0215,0.026 -0.0455,0.069 -0.066,0.1259 -0.0127,0.028 -0.0173,0.06 -0.0236,0.096 -0.006,0.035 -0.0141,0.073 -0.008,0.1112 0.003,0.038 0.004,0.08 0.0109,0.1202 0.008,0.039 0.024,0.075 0.0367,0.1122 0.0173,0.035 0.0286,0.075 0.0508,0.1027 0.0201,0.029 0.0455,0.053 0.0663,0.078 0.0427,0.053 0.0914,0.083 0.13759,0.098 0.0885,0.039 0.1531,0.038 0.1531,0.038 0,0 -0.025,-0.082 -0.0698,-0.1633 -0.0109,-0.022 -0.0229,-0.043 -0.0374,-0.063 -0.0109,-0.024 -0.019,-0.052 -0.0321,-0.075 -0.012,-0.024 -0.0219,-0.049 -0.037,-0.071 -0.0159,-0.022 -0.019,-0.052 -0.0293,-0.075 -0.0261,-0.046 -0.0377,-0.097 -0.0547,-0.1468 -0.009,-0.025 -0.0134,-0.05 -0.019,-0.075 -0.004,-0.025 -0.0148,-0.05 -0.0169,-0.073 -0.0176,-0.092 -0.0268,-0.1757 -0.0265,-0.175"
         style="fill:#f39870;fill-opacity:1;fill-rule:nonzero;stroke:none;stroke-width:0.352778"
         id="path4924" />
      <path
         d="m 975.97412,1831.6695 c 0.21837,1.3476 -0.16051,2.5453 -0.84384,2.6733 -0.68298,0.1299 -1.41253,-0.8572 -1.62948,-2.2055 -0.21626,-1.3476 0.16086,-2.5446 0.84525,-2.6744 0.68263,-0.1288 1.41182,0.8583 1.62807,2.2066"
         style="fill:#f4ae7f;fill-opacity:1;fill-rule:nonzero;stroke:none;stroke-width:0.352778"
         id="path4928" />
      <path
         d="m 975.15265,1831.305 c 0,0 -0.0102,-0.076 -0.0374,-0.199 -0.0261,-0.1238 -0.0801,-0.2981 -0.1644,-0.4843 -0.0857,-0.1796 -0.22401,-0.387 -0.39723,-0.398 -0.043,0 -0.0871,0 -0.13158,0.018 -0.007,0.01 -0.0529,0.024 -0.0663,0.035 -0.0148,0.014 -0.0311,0.02 -0.049,0.04 -0.0706,0.069 -0.12735,0.1729 -0.16475,0.2939 -0.0409,0.1189 -0.0667,0.2519 -0.0801,0.3827 -0.012,0.1316 -0.0194,0.2696 -0.005,0.3867 0.0212,0.1351 0.0275,0.2734 0.0522,0.3909 0.0229,0.1203 0.0448,0.2332 0.0649,0.3379 0.0275,0.1055 0.0487,0.2032 0.0681,0.29 0.0184,0.088 0.0452,0.1605 0.061,0.2219 0.0353,0.1231 0.0529,0.1958 0.0529,0.1958 0,0 -0.0356,-0.062 -0.0921,-0.1739 -0.0265,-0.058 -0.0656,-0.1238 -0.0988,-0.2075 -0.0346,-0.082 -0.0737,-0.1753 -0.11289,-0.2786 -0.0377,-0.1055 -0.0713,-0.2251 -0.1076,-0.3511 -0.0381,-0.1259 -0.0557,-0.2554 -0.0822,-0.3915 -0.0264,-0.1563 -0.0303,-0.307 -0.0169,-0.4622 0.0127,-0.1527 0.0395,-0.3073 0.0875,-0.4561 0.0494,-0.1464 0.12559,-0.2904 0.23813,-0.3951 0.025,-0.025 0.0628,-0.049 0.0974,-0.07 0.0374,-0.02 0.0476,-0.021 0.0935,-0.038 0.0677,-0.015 0.13652,-0.021 0.20602,-0.01 0.14182,0.022 0.25929,0.1277 0.33549,0.2378 0.0787,0.1097 0.12594,0.2293 0.16193,0.3379 0.0702,0.2209 0.0843,0.4121 0.0917,0.5426 0.005,0.1319 -0.005,0.2046 -0.005,0.2046"
         style="fill:#f39870;fill-opacity:1;fill-rule:nonzero;stroke:none;stroke-width:0.352778"
         id="path4932" />
      <path
         d="m 975.15265,1831.305 c 0,0 0.0631,-0.1436 -0.38735,-0.1774 0,0 -0.50236,0.092 -0.20673,0.7634 0.0639,0.1442 0.11854,0.2931 0.15029,0.4515 0.0448,0.2251 -0.0349,0.5302 0.0854,0.7306 0.15593,0.2572 0.55174,0.1104 0.57503,-0.1841 0.0183,-0.2251 -0.21379,-0.6125 -0.32033,-0.773 0,-7e-4 -0.32279,-0.49 0.10372,-0.811"
         style="fill:#f39870;fill-opacity:1;fill-rule:nonzero;stroke:none;stroke-width:0.352778"
         id="path4936" />
      <path
         d="m 975.36932,1832.8605 c -7.1e-4,7e-4 0.0152,0.01 0.0349,0.036 0.0215,0.026 0.0455,0.069 0.066,0.1259 0.0127,0.028 0.0173,0.06 0.0233,0.096 0.006,0.035 0.0145,0.073 0.008,0.1112 -0.003,0.038 -0.004,0.08 -0.0106,0.1202 -0.008,0.039 -0.0243,0.075 -0.037,0.1122 -0.0169,0.035 -0.0286,0.075 -0.0512,0.1027 -0.0194,0.029 -0.0448,0.053 -0.0663,0.078 -0.042,0.053 -0.0914,0.083 -0.13723,0.098 -0.0889,0.039 -0.15381,0.038 -0.15381,0.038 0,0 0.0258,-0.082 0.0706,-0.1633 0.0109,-0.022 0.0226,-0.043 0.0377,-0.063 0.0106,-0.024 0.019,-0.052 0.0317,-0.075 0.0123,-0.024 0.0219,-0.049 0.037,-0.071 0.0159,-0.022 0.0187,-0.052 0.0289,-0.075 0.0264,-0.046 0.0381,-0.097 0.0547,-0.1468 0.01,-0.025 0.0141,-0.05 0.0198,-0.075 0.004,-0.025 0.0141,-0.05 0.0166,-0.073 0.018,-0.092 0.0268,-0.1757 0.0265,-0.175"
         style="fill:#f39870;fill-opacity:1;fill-rule:nonzero;stroke:none;stroke-width:0.352778"
         id="path4940" />
      <path
         d="m 989.19863,1820.7217 c 0,0 -2.32551,-2.5478 -6.9028,-2.6882 -4.57306,0.2399 -6.89046,2.8752 -6.89046,2.8759 -1.24425,4.0089 -0.44838,8.7094 0.0811,12.7765 0.39053,3.0036 2.41088,5.1054 4.95723,6.568 0,0 0.90029,0.5835 2.09797,0.6499 1.1938,-0.092 2.08033,-0.6922 2.08386,-0.6947 2.47368,-1.6771 4.36669,-3.7493 4.8387,-6.8019 0.40781,-2.6359 0.50024,-5.5492 0.40922,-8.2095 -0.0501,-1.4672 -0.20672,-3.0748 -0.67486,-4.476"
         style="fill:#f4ae7f;fill-opacity:1;fill-rule:nonzero;stroke:none;stroke-width:0.352778"
         id="path4944" />
      <path
         d="m 980.30652,1828.9255 c 0,0 -1.63512,-0.5507 -3.32634,0.2254 0.33337,-1.8051 3.45863,-1.0643 3.45863,-1.0643 0,0 0.20602,0.049 0.1838,0.3718 0,0 -0.0829,0.5546 -0.31609,0.4671"
         style="fill:#9a6553;fill-opacity:1;fill-rule:nonzero;stroke:none;stroke-width:0.352778"
         id="path4948" />
      <path
         d="m 984.11832,1828.9255 c 0,0 1.85949,-0.5507 3.55071,0.2254 -0.33302,-1.8051 -3.683,-1.0643 -3.683,-1.0643 0,0 -0.20638,0.049 -0.1838,0.3718 0,0 0.0825,0.5546 0.31609,0.4671"
         style="fill:#9a6553;fill-opacity:1;fill-rule:nonzero;stroke:none;stroke-width:0.352778"
         id="path4952" />
      <path
         d="m 978.23102,1830.6053 c 0.003,0.5228 0.29633,0.9454 0.65581,0.9433 0.35913,0 0.6477,-0.4282 0.64453,-0.9511 -0.003,-0.5238 -0.29704,-0.9461 -0.65546,-0.9443 -0.35878,0 -0.64805,0.4282 -0.64488,0.9521"
         style="fill:#2a1811;fill-opacity:1;fill-rule:nonzero;stroke:none;stroke-width:0.352778"
         id="path4956" />
      <path
         d="m 978.62289,1830.3036 c 0,0.1552 -0.12559,0.2815 -0.28081,0.2815 -0.15628,0 -0.28152,-0.1263 -0.28152,-0.2815 0,-0.1556 0.12524,-0.2819 0.28152,-0.2819 0.15522,0 0.28081,0.1263 0.28081,0.2819"
         style="fill:#ffffff;fill-opacity:1;fill-rule:nonzero;stroke:none;stroke-width:0.352778"
         id="path4960" />
      <path
         d="m 986.4186,1830.6053 c -0.004,0.5228 -0.29704,0.9454 -0.65581,0.9433 -0.35913,0 -0.6477,-0.4282 -0.64453,-0.9511 0.003,-0.5238 0.29669,-0.9461 0.65546,-0.9443 0.35878,0 0.64805,0.4282 0.64488,0.9521"
         style="fill:#2a1811;fill-opacity:1;fill-rule:nonzero;stroke:none;stroke-width:0.352778"
         id="path4964" />
      <path
         d="m 986.02639,1830.3036 c 0,0.1552 0.12629,0.2815 0.28116,0.2815 0.15593,0 0.28152,-0.1263 0.28152,-0.2815 0,-0.1556 -0.12559,-0.2819 -0.28152,-0.2819 -0.15487,0 -0.28116,0.1263 -0.28116,0.2819"
         style="fill:#ffffff;fill-opacity:1;fill-rule:nonzero;stroke:none;stroke-width:0.352778"
         id="path4968" />
      <path
         d="m 980.69665,1836.5078 c 0.004,0.5059 0.72037,0.9158 1.60479,0.9158 0.88476,0 1.6009,-0.4099 1.60478,-0.9158 z"
         style="fill:#ffffff;fill-opacity:1;fill-rule:nonzero;stroke:none;stroke-width:0.352778"
         id="path4972" />
      <path
         d="m 983.90612,1836.5846 c 0.37747,-0.092 0.4378,-0.1288 0.4378,-0.1288 0,0 -0.26176,-0.1104 -0.62971,-0.2215 -0.9458,-0.399 -0.88089,0.1178 -1.3843,0.1164 -0.25224,0.01 -0.50412,-0.267 -0.74013,-0.2339 -0.2353,0.027 -0.45614,0.069 -0.64488,0.1189 -0.37782,0.092 -0.6297,0.2201 -0.6297,0.2201 0,0 0.004,0.059 0.38135,0.1507 0,0 0.74083,-0.1161 1.20438,-0.045 0,0 0.42792,0.1069 0.71508,0.017 0,0 0.77647,-0.042 1.29011,0.01"
         style="fill:#f36178;fill-opacity:1;fill-rule:nonzero;stroke:none;stroke-width:0.352778"
         id="path4976" />
      <path
         d="m 984.0279,1836.4548 c -0.37006,0.3806 -0.77399,0.9687 -1.81292,0.9673 0,0 -1.19416,0.055 -1.5875,-0.9673 h -0.32209 c 0.0113,0.026 0.019,0.05 0.0321,0.077 0.0819,0.1456 0.14993,0.3189 0.2727,0.4737 0.0589,0.079 0.11924,0.1613 0.18168,0.2438 0.0639,0.083 0.15064,0.1506 0.22895,0.2279 l 0.12277,0.1139 0.14464,0.096 c 0.1016,0.062 0.18521,0.139 0.31785,0.176 0.11959,0.042 0.25859,0.099 0.3676,0.1175 l 0.15804,0.021 0.079,0.01 0.0395,0.01 h 0.0198 0.0536 l 0.3743,-0.047 c 0.12241,-0.023 0.2346,-0.078 0.34995,-0.1164 0.11995,-0.034 0.20991,-0.1129 0.3101,-0.1739 l 0.14393,-0.095 0.12347,-0.1146 c 0.078,-0.077 0.1651,-0.145 0.2286,-0.2279 0.0624,-0.083 0.12312,-0.1648 0.18203,-0.2438 0.12242,-0.1541 0.1905,-0.3281 0.2727,-0.4748 0.0127,-0.025 0.0205,-0.049 0.0314,-0.075 z"
         style="fill:#f36178;fill-opacity:1;fill-rule:nonzero;stroke:none;stroke-width:0.352778"
         id="path4980" />
      <path
         d="m 982.33876,1837.807 c 1.30246,-0.1958 1.48272,-0.9772 1.48272,-0.9772 -0.53304,0.7835 -1.50036,0.7617 -1.50036,0.7617 0,0 -0.0857,0.014 -0.0769,0.1217 0,0 0.0282,0.1033 0.0945,0.094"
         style="fill:#ffffff;fill-opacity:1;fill-rule:nonzero;stroke:none;stroke-width:0.352778"
         id="path4984" />
      <path
         d="m 991.72837,1826.6466 c 0,0 0.53446,-9.0152 -6.92891,-10.6557 0,0 -5.67372,-0.9059 -7.80203,2.6131 l 4.40337,3.5602 c 0,0 2.18475,4.0951 6.57895,5.6497 0,0 1.82069,0.465 1.93287,3.8615 0,0 0.25647,-1.8676 1.30528,-1.6996 0,0 0.52881,-2.3259 0.51047,-3.3292"
         style="fill:#9a6553;fill-opacity:1;fill-rule:nonzero;stroke:none;stroke-width:0.352778"
         id="path4988" />
      <path
         d="m 981.40083,1834.1772 c 0,0 0.012,0 0.0346,-0.01 0.0215,0 0.0557,-0.017 0.0931,-0.023 0.0769,-0.017 0.17921,-0.036 0.29033,-0.055 0.11042,-0.015 0.22931,-0.031 0.34537,-0.037 0.11712,-0.01 0.23213,-0.01 0.34396,-0.01 0.11183,0 0.22119,0.012 0.33055,0.022 0.0557,0.01 0.10972,0.012 0.16475,0.019 0.0561,0.01 0.11042,0.017 0.16298,0.022 0.0526,0 0.10831,0.02 0.15628,0.026 0.0466,0 0.0931,0.012 0.13159,0.018 0.0374,0 0.073,0.014 0.0956,0.018 0.0233,0.01 0.0356,0.01 0.0356,0.01 0,0 -0.003,0.012 -0.009,0.034 -0.007,0.02 -0.0134,0.057 -0.03,0.093 -0.0296,0.079 -0.0833,0.1838 -0.17603,0.2826 -0.0452,0.052 -0.0988,0.1013 -0.16299,0.1429 -0.0635,0.043 -0.1337,0.089 -0.21166,0.1168 -0.0776,0.032 -0.16052,0.062 -0.2473,0.073 -0.0864,0.018 -0.17462,0.025 -0.26282,0.021 -0.0889,0 -0.17427,-0.016 -0.25858,-0.033 -0.0836,-0.018 -0.16264,-0.047 -0.23637,-0.08 -0.1464,-0.068 -0.26952,-0.157 -0.35948,-0.2536 -0.0903,-0.096 -0.15063,-0.1937 -0.1852,-0.2703 -0.0187,-0.034 -0.0279,-0.071 -0.0353,-0.092 -0.007,-0.023 -0.01,-0.035 -0.01,-0.035"
         style="fill:#f59679;fill-opacity:1;fill-rule:nonzero;stroke:none;stroke-width:0.352778"
         id="path4992" />
      <path
         d="m 985.52343,1844.3368 6.38563,2.4931 c -1.7085,1.2665 -1.84538,3.3965 -1.82492,5.5181 h -15.67286 c 0.0201,-0.5764 -0.001,-1.1416 -0.0395,-1.6538 -0.0995,-1.3159 -0.4632,-3.1267 -1.7145,-3.8357 l 6.60471,-2.5781 c 0,0 0.20849,2.0563 3.06775,2.0447 0,0 3.02543,0.061 3.1937,-1.9883"
         style="fill:#4967b6;fill-opacity:1;fill-rule:nonzero;stroke:none;stroke-width:0.352778"
         id="path4996" />
      <path
         d="m 976.15792,1827.594 c -1.01036,0.7348 -0.79199,2.5135 -0.7874,4.1042 0,0 -0.21167,-2.2461 -1.53211,-1.9424 0,0 -2.53824,-9.7762 3.79553,-11.7224 l 4.26755,3.9588 c 0,0 -0.50059,1.7886 -5.74357,5.6018"
         style="fill:#9a6553;fill-opacity:1;fill-rule:nonzero;stroke:none;stroke-width:0.352778"
         id="path5000" />
      <path
         d="m 973.43956,1823.7809 c 0,0 -4.01779,18.2464 3.7652,20.8428 0,0 -0.20708,-2.9058 2.44122,-3.72 l 0.003,-1.1416 c 0,0 -2.14488,-1.5868 -2.39536,-2.0976 0,0 -1.43862,-1.3932 -1.76706,-3.9787 0,0 -0.29034,-3.6935 0.043,-5.1438 z"
         style="fill:#9a6553;fill-opacity:1;fill-rule:nonzero;stroke:none;stroke-width:0.352778"
         id="path5004" />
      <path
         d="m 991.22608,1823.7809 c 0,0 4.01814,18.2464 -3.76484,20.8428 0,0 0.20672,-2.9058 -2.44158,-3.72 l -0.002,-1.1416 c 0,0 2.14418,-1.5868 2.39466,-2.0976 0,0 1.43898,-1.3932 1.76777,-3.9787 0,0 0.28963,-3.6935 -0.0434,-5.1438 z"
         style="fill:#9a6553;fill-opacity:1;fill-rule:nonzero;stroke:none;stroke-width:0.352778"
         id="path5008" />
    </g>
  </g>
</svg>
