<?xml version="1.0" encoding="UTF-8" standalone="no"?>
<!-- Created with Inkscape (http://www.inkscape.org/) -->

<svg
   width="24.286028mm"
   height="37.032372mm"
   viewBox="0 0 24.286027 37.032372"
   version="1.1"
   id="svg9361"
   inkscape:version="1.1.1 (3bf5ae0d25, 2021-09-20)"
   sodipodi:docname="woman3.svg"
   xmlns:inkscape="http://www.inkscape.org/namespaces/inkscape"
   xmlns:sodipodi="http://sodipodi.sourceforge.net/DTD/sodipodi-0.dtd"
   xmlns="http://www.w3.org/2000/svg"
   xmlns:svg="http://www.w3.org/2000/svg">
  <sodipodi:namedview
     id="namedview9363"
     pagecolor="#ffffff"
     bordercolor="#666666"
     borderopacity="1.0"
     inkscape:pageshadow="2"
     inkscape:pageopacity="0.0"
     inkscape:pagecheckerboard="0"
     inkscape:document-units="mm"
     showgrid="false"
     inkscape:zoom="0.50835204"
     inkscape:cx="203.59906"
     inkscape:cy="-347.20034"
     inkscape:window-width="1920"
     inkscape:window-height="1017"
     inkscape:window-x="-8"
     inkscape:window-y="-8"
     inkscape:window-maximized="1"
     inkscape:current-layer="layer1" />
  <defs
     id="defs9358" />
  <g
     inkscape:label="Capa 1"
     inkscape:groupmode="layer"
     id="layer1"
     transform="translate(-269.02721,-1441.2149)">
    <g
       id="g8127"
       transform="translate(-701.15467,-318.08146)">
      <path
         d="m 989.90564,1792.1758 h -16.85255 v -19.1166 h 16.85255 z"
         style="fill:#c85e45;fill-opacity:1;fill-rule:nonzero;stroke:none;stroke-width:0.352778"
         id="path4466" />
      <path
         d="m 976.67929,1792.1758 h -3.6262 v -23.2643 h 3.6262 z"
         style="fill:#e17f50;fill-opacity:1;fill-rule:nonzero;stroke:none;stroke-width:0.352778"
         id="path4468" />
      <path
         d="m 984.94152,1783.3669 h -2.34844 -2.95205 c 0,0 0.13406,4.0587 -0.51505,5.2373 h 3.19899 3.19863 c -0.64911,-1.1786 -0.58208,-5.2373 -0.58208,-5.2373"
         style="fill:#f4ae7f;fill-opacity:1;fill-rule:nonzero;stroke:none;stroke-width:0.352778"
         id="path4472" />
      <g
         transform="matrix(0.35277777,0,0,-0.35277777,979.61162,1785.8613)"
         id="g4484">
        <path
           d="m 0,0 c 2.799,-1.319 5.62,-2.582 8.826,-2.276 2.272,0.217 4.467,0.906 6.497,1.937 -0.275,3.776 -0.215,7.41 -0.215,7.41 H 0.083 C 0.083,7.071 0.196,3.651 0,0"
           style="fill:#f7d9d5;fill-opacity:1;fill-rule:nonzero;stroke:none"
           id="path4482" />
      </g>
      <path
         d="m 992.1516,1790.9051 -7.38293,-2.8825 h -2.40665 -0.0819 -2.407 l -7.38329,2.8825 c 0,0 -2.5855,0.9271 -2.28317,5.4236 h 12.07346 0.0819 12.07346 c 0.35243,-4.7727 -2.28388,-5.4236 -2.28388,-5.4236"
         style="fill:#f4ae7f;fill-opacity:1;fill-rule:nonzero;stroke:none;stroke-width:0.352778"
         id="path4492" />
      <path
         d="m 988.9852,1775.65 c -0.21872,1.3476 0.16016,2.5456 0.84384,2.6741 0.68298,0.1294 1.41288,-0.8573 1.62948,-2.206 0.21626,-1.3479 -0.16121,-2.5453 -0.84525,-2.674 -0.68263,-0.1298 -1.41182,0.8579 -1.62807,2.2059"
         style="fill:#f4ae7f;fill-opacity:1;fill-rule:nonzero;stroke:none;stroke-width:0.352778"
         id="path4496" />
      <path
         d="m 989.80686,1775.2859 c 0,0 0.01,-0.076 0.037,-0.199 0.0261,-0.1238 0.0804,-0.2984 0.1644,-0.485 0.0857,-0.18 0.22401,-0.387 0.39722,-0.398 0.0434,0 0.0871,0.01 0.13159,0.019 0.007,0 0.0533,0.023 0.0667,0.034 0.0148,0.014 0.0307,0.02 0.0483,0.041 0.0709,0.068 0.1277,0.1729 0.16474,0.2939 0.0413,0.1185 0.0667,0.2515 0.0804,0.3827 0.0116,0.1316 0.0198,0.2692 0.005,0.386 -0.0212,0.1354 -0.0275,0.2744 -0.0519,0.3916 -0.0233,0.1199 -0.0448,0.2332 -0.0653,0.3379 -0.0275,0.1055 -0.0487,0.2029 -0.0677,0.29 -0.0187,0.088 -0.0455,0.1598 -0.061,0.2219 -0.0353,0.1231 -0.0529,0.1962 -0.0529,0.1962 0,0 0.0353,-0.062 0.0921,-0.175 0.0261,-0.057 0.0653,-0.1235 0.0984,-0.2064 0.0346,-0.083 0.0737,-0.1757 0.11324,-0.2794 0.0374,-0.1051 0.0706,-0.2247 0.10725,-0.351 0.0377,-0.1263 0.0554,-0.2551 0.0822,-0.3916 0.0265,-0.1559 0.03,-0.3066 0.0169,-0.4618 -0.0127,-0.1524 -0.0392,-0.3073 -0.0871,-0.4565 -0.0494,-0.1464 -0.12559,-0.2903 -0.23848,-0.3951 -0.0254,-0.026 -0.0624,-0.049 -0.097,-0.07 -0.0381,-0.02 -0.0476,-0.02 -0.0942,-0.038 -0.0674,-0.016 -0.13582,-0.022 -0.20567,-0.01 -0.14147,0.022 -0.25894,0.1281 -0.33514,0.2378 -0.079,0.1101 -0.1263,0.2293 -0.16228,0.338 -0.0698,0.2208 -0.0843,0.4127 -0.0921,0.5425 -0.004,0.1327 0.006,0.205 0.006,0.205"
         style="fill:#f39870;fill-opacity:1;fill-rule:nonzero;stroke:none;stroke-width:0.352778"
         id="path4500" />
      <path
         d="m 989.80686,1775.2859 c 0,0 -0.0632,-0.1443 0.38664,-0.1778 0,0 0.50271,0.093 0.20744,0.7634 -0.0642,0.1446 -0.11854,0.2939 -0.15064,0.4523 -0.0448,0.225 0.0353,0.5298 -0.0854,0.7299 -0.15558,0.2575 -0.55174,0.1111 -0.57503,-0.1838 -0.0183,-0.2258 0.21414,-0.6132 0.32032,-0.7733 0,-4e-4 0.3228,-0.4897 -0.10336,-0.8107"
         style="fill:#f39870;fill-opacity:1;fill-rule:nonzero;stroke:none;stroke-width:0.352778"
         id="path4504" />
      <path
         d="m 989.58983,1776.8407 c 10e-4,0 -0.0155,0.01 -0.0349,0.036 -0.0215,0.026 -0.0455,0.069 -0.066,0.126 -0.0127,0.028 -0.0173,0.06 -0.0236,0.096 -0.006,0.035 -0.0138,0.073 -0.008,0.1115 0.003,0.038 0.004,0.079 0.0106,0.1199 0.008,0.039 0.024,0.075 0.0367,0.1122 0.0173,0.035 0.0286,0.076 0.0508,0.1026 0.0201,0.03 0.0455,0.053 0.0667,0.078 0.0423,0.053 0.091,0.083 0.13723,0.098 0.0885,0.039 0.15381,0.038 0.15381,0.038 0,0 -0.0258,-0.082 -0.0706,-0.1634 -0.0109,-0.022 -0.0229,-0.043 -0.0374,-0.063 -0.0109,-0.024 -0.019,-0.052 -0.0321,-0.074 -0.012,-0.024 -0.0215,-0.049 -0.037,-0.071 -0.0159,-0.022 -0.019,-0.052 -0.0293,-0.075 -0.0261,-0.046 -0.0377,-0.098 -0.0543,-0.1471 -0.01,-0.025 -0.0137,-0.05 -0.0194,-0.074 -0.004,-0.026 -0.0148,-0.05 -0.0166,-0.074 -0.018,-0.093 -0.0268,-0.1761 -0.0268,-0.1757"
         style="fill:#f39870;fill-opacity:1;fill-rule:nonzero;stroke:none;stroke-width:0.352778"
         id="path4508" />
      <path
         d="m 975.97412,1775.65 c 0.21837,1.3476 -0.16016,2.5456 -0.84349,2.6741 -0.68298,0.1294 -1.41288,-0.8573 -1.62983,-2.206 -0.21626,-1.3479 0.16086,-2.5453 0.84525,-2.674 0.68263,-0.1298 1.41182,0.8579 1.62807,2.2059"
         style="fill:#f4ae7f;fill-opacity:1;fill-rule:nonzero;stroke:none;stroke-width:0.352778"
         id="path4512" />
      <path
         d="m 975.15265,1775.2859 c 0,0 -0.0102,-0.076 -0.0374,-0.199 -0.0258,-0.1238 -0.0801,-0.2984 -0.1644,-0.485 -0.0857,-0.18 -0.22366,-0.387 -0.39723,-0.398 -0.043,0 -0.0871,0.01 -0.13158,0.019 -0.007,0 -0.0529,0.023 -0.0663,0.034 -0.0148,0.014 -0.0311,0.02 -0.0487,0.041 -0.0706,0.068 -0.1277,0.1729 -0.1651,0.2939 -0.0409,0.1185 -0.0667,0.2515 -0.0801,0.3827 -0.012,0.1316 -0.0194,0.2692 -0.005,0.386 0.0212,0.1354 0.0275,0.2744 0.0522,0.3916 0.0229,0.1199 0.0448,0.2332 0.0649,0.3379 0.0279,0.1055 0.049,0.2029 0.0681,0.29 0.0184,0.088 0.0452,0.1598 0.061,0.2219 0.0353,0.1231 0.0529,0.1962 0.0529,0.1962 0,0 -0.0353,-0.062 -0.0921,-0.175 -0.0265,-0.057 -0.0656,-0.1235 -0.0988,-0.2064 -0.0346,-0.083 -0.0734,-0.1757 -0.11289,-0.2794 -0.0377,-0.1051 -0.0713,-0.2247 -0.10725,-0.351 -0.0385,-0.1263 -0.0561,-0.2551 -0.0825,-0.3916 -0.0264,-0.1559 -0.0303,-0.3066 -0.0169,-0.4618 0.0127,-0.1524 0.0395,-0.3073 0.0875,-0.4565 0.0494,-0.1464 0.12559,-0.2903 0.23848,-0.3951 0.0247,-0.026 0.0624,-0.049 0.097,-0.07 0.0374,-0.02 0.0476,-0.02 0.0935,-0.038 0.0681,-0.016 0.13652,-0.022 0.20602,-0.01 0.14182,0.022 0.25929,0.1281 0.33549,0.2378 0.0787,0.1101 0.1263,0.2293 0.16193,0.338 0.0702,0.2208 0.0847,0.4127 0.0917,0.5425 0.005,0.1327 -0.005,0.205 -0.005,0.205"
         style="fill:#f39870;fill-opacity:1;fill-rule:nonzero;stroke:none;stroke-width:0.352778"
         id="path4516" />
      <path
         d="m 975.15265,1775.2859 c 0,0 0.0631,-0.1443 -0.387,-0.1778 0,0 -0.50271,0.093 -0.20708,0.7634 0.0639,0.1446 0.11854,0.2939 0.15029,0.4523 0.0452,0.225 -0.0349,0.5298 0.0854,0.7299 0.15593,0.2575 0.55174,0.1111 0.57503,-0.1838 0.0187,-0.2258 -0.21379,-0.6132 -0.32033,-0.7733 0,-4e-4 -0.32279,-0.4897 0.10372,-0.8107"
         style="fill:#f39870;fill-opacity:1;fill-rule:nonzero;stroke:none;stroke-width:0.352778"
         id="path4520" />
      <path
         d="m 975.36932,1776.8407 c -7.1e-4,0 0.0155,0.01 0.0349,0.036 0.0219,0.026 0.0455,0.069 0.066,0.126 0.0127,0.028 0.0173,0.06 0.0233,0.096 0.006,0.035 0.0145,0.073 0.008,0.1115 -0.003,0.038 -0.004,0.079 -0.0106,0.1199 -0.008,0.039 -0.024,0.075 -0.0367,0.1122 -0.0173,0.035 -0.0286,0.076 -0.0508,0.1026 -0.0198,0.03 -0.0455,0.053 -0.067,0.078 -0.042,0.053 -0.0914,0.083 -0.13723,0.098 -0.0889,0.039 -0.1531,0.038 -0.1531,0.038 0,0 0.0251,-0.082 0.0699,-0.1634 0.0113,-0.022 0.0229,-0.043 0.0377,-0.063 0.0109,-0.024 0.019,-0.052 0.0317,-0.074 0.0123,-0.024 0.0219,-0.049 0.0374,-0.071 0.0159,-0.022 0.0183,-0.052 0.0286,-0.075 0.0264,-0.046 0.0381,-0.098 0.055,-0.1471 0.009,-0.025 0.0138,-0.05 0.0194,-0.074 0.004,-0.026 0.0141,-0.05 0.0166,-0.074 0.018,-0.093 0.0268,-0.1761 0.0265,-0.1757"
         style="fill:#f39870;fill-opacity:1;fill-rule:nonzero;stroke:none;stroke-width:0.352778"
         id="path4524" />
      <path
         d="m 989.19863,1764.702 c 0,0 -2.32551,-2.5471 -6.9028,-2.6882 -4.57306,0.2399 -6.89046,2.8755 -6.89046,2.8759 -1.24425,4.0096 -0.44803,8.7097 0.0811,12.7769 0.39088,3.0039 2.41088,5.1054 4.95723,6.5684 0,0 0.90065,0.5831 2.09797,0.6491 1.1938,-0.091 2.08033,-0.6918 2.08386,-0.6943 2.47368,-1.6771 4.36669,-3.749 4.8387,-6.8016 0.40781,-2.6366 0.50024,-5.5499 0.40922,-8.2098 -0.0501,-1.4672 -0.20637,-3.0748 -0.67486,-4.4764"
         style="fill:#f4ae7f;fill-opacity:1;fill-rule:nonzero;stroke:none;stroke-width:0.352778"
         id="path4528" />
      <path
         d="m 980.30652,1772.9062 c 0,0 -1.63512,-0.5507 -3.32634,0.2251 0.33337,-1.8041 3.45863,-1.0637 3.45863,-1.0637 0,0 0.20602,0.048 0.1838,0.3712 0,0 -0.0829,0.5549 -0.31609,0.4674"
         style="fill:#e17f50;fill-opacity:1;fill-rule:nonzero;stroke:none;stroke-width:0.352778"
         id="path4532" />
      <path
         d="m 984.11832,1772.9062 c 0,0 1.85949,-0.5507 3.55106,0.2251 -0.33337,-1.8041 -3.68335,-1.0637 -3.68335,-1.0637 0,0 -0.20638,0.048 -0.1838,0.3712 0,0 0.0825,0.5549 0.31609,0.4674"
         style="fill:#e17f50;fill-opacity:1;fill-rule:nonzero;stroke:none;stroke-width:0.352778"
         id="path4536" />
      <path
         d="m 978.23102,1774.5857 c 0.004,0.5232 0.29704,0.9458 0.65581,0.9437 0.35913,0 0.6477,-0.4283 0.64453,-0.9515 -0.003,-0.5235 -0.29669,-0.9461 -0.65546,-0.944 -0.35878,0 -0.64805,0.4283 -0.64488,0.9518"
         style="fill:#2a1811;fill-opacity:1;fill-rule:nonzero;stroke:none;stroke-width:0.352778"
         id="path4540" />
      <path
         d="m 978.62324,1774.2839 c 0,0.1556 -0.12594,0.2815 -0.28116,0.2815 -0.15593,0 -0.28152,-0.1259 -0.28152,-0.2815 0,-0.1556 0.12559,-0.2815 0.28152,-0.2815 0.15522,0 0.28116,0.1259 0.28116,0.2815"
         style="fill:#ffffff;fill-opacity:1;fill-rule:nonzero;stroke:none;stroke-width:0.352778"
         id="path4544" />
      <path
         d="m 986.4186,1774.5857 c -0.003,0.5232 -0.29704,0.9458 -0.65581,0.9437 -0.35878,0 -0.6477,-0.4283 -0.64453,-0.9515 0.003,-0.5235 0.29669,-0.9461 0.65582,-0.944 0.35877,0 0.64769,0.4283 0.64452,0.9518"
         style="fill:#2a1811;fill-opacity:1;fill-rule:nonzero;stroke:none;stroke-width:0.352778"
         id="path4548" />
      <path
         d="m 986.02639,1774.2839 c 0,0.1556 0.12629,0.2815 0.28116,0.2815 0.15593,0 0.28152,-0.1259 0.28152,-0.2815 0,-0.1556 -0.12559,-0.2815 -0.28152,-0.2815 -0.15487,0 -0.28116,0.1259 -0.28116,0.2815"
         style="fill:#ffffff;fill-opacity:1;fill-rule:nonzero;stroke:none;stroke-width:0.352778"
         id="path4552" />
      <path
         d="m 980.69665,1780.4887 c 0.004,0.5059 0.72037,0.9155 1.60479,0.9155 0.88476,0 1.60125,-0.4096 1.60478,-0.9155 z"
         style="fill:#ffffff;fill-opacity:1;fill-rule:nonzero;stroke:none;stroke-width:0.352778"
         id="path4556" />
      <path
         d="m 983.82103,1780.6303 c 0.37818,-0.091 0.52282,-0.1937 0.52282,-0.1937 0,0 -0.26176,-0.1104 -0.62936,-0.2215 -0.94544,-0.3987 -0.88124,0.1182 -1.38465,0.1164 -0.25188,0.01 -0.50412,-0.2663 -0.73978,-0.2339 -0.23565,0.027 -0.45614,0.069 -0.64487,0.1185 -0.37818,0.092 -0.63007,0.2205 -0.63007,0.2205 0,0 0.19368,0.1288 0.5715,0.2209 0,0 0.56304,-0.021 1.02659,0.05 0,0 0.42792,0.1073 0.71473,0.018 0,0 0.67945,-0.1439 1.19309,-0.096"
         style="fill:#f36178;fill-opacity:1;fill-rule:nonzero;stroke:none;stroke-width:0.352778"
         id="path4560" />
      <path
         d="m 984.0279,1780.4355 c -0.37006,0.3806 -0.94968,0.7278 -1.84009,0.7278 0,0 -0.86219,-7e-4 -1.55963,-0.7278 h -0.32244 c 0.0109,0.025 0.019,0.05 0.0317,0.076 0.0819,0.1457 0.14993,0.3189 0.2727,0.4738 0.0589,0.079 0.11924,0.1612 0.18168,0.2445 0.0639,0.083 0.15099,0.1502 0.22931,0.2282 l 0.12241,0.1136 0.14464,0.096 c 0.10195,0.062 0.18521,0.1386 0.31785,0.1764 0.11959,0.041 0.25859,0.098 0.36795,0.1175 l 0.15769,0.02 0.0794,0.011 0.0392,0.01 h 0.0201 0.0533 l 0.3743,-0.047 c 0.12241,-0.023 0.2346,-0.078 0.34995,-0.1168 0.11995,-0.034 0.21026,-0.1129 0.3101,-0.1736 l 0.14463,-0.096 0.12277,-0.1143 c 0.078,-0.078 0.1651,-0.1449 0.2286,-0.2279 0.0628,-0.083 0.12312,-0.1651 0.18203,-0.2441 0.12242,-0.1545 0.1905,-0.3284 0.2727,-0.4748 0.0127,-0.025 0.0205,-0.049 0.0314,-0.075 z"
         style="fill:#f36178;fill-opacity:1;fill-rule:nonzero;stroke:none;stroke-width:0.352778"
         id="path4564" />
      <path
         d="m 982.30141,1781.6459 c 1.3141,-0.088 1.55787,-0.8527 1.55787,-0.8527 -0.59585,0.7377 -1.55787,0.6364 -1.55787,0.6364 0,0 -0.0864,0.01 -0.0864,0.1147 0,0 0.0194,0.1062 0.0864,0.1016"
         style="fill:#ffffff;fill-opacity:1;fill-rule:nonzero;stroke:none;stroke-width:0.352778"
         id="path4568" />
      <path
         d="m 992.39533,1769.6795 c 0,0 0.40499,-8.8198 -7.59566,-10.2785 0,0 -5.67372,-0.906 -7.80168,2.613 l 2.12796,5.3876 c 0,0 3.63114,3.5899 10.55793,5.7295 0,0 0.13899,4.8284 -0.90064,6.5345 0,0 -1.08656,2.0334 -2.19393,2.9711 0,0 -0.31291,4.7113 2.99932,7.2679 l 2.1717,0.8481 0.9084,0.3944 c 0,0 0.18627,-3.3733 -1.14935,-6.2629 0,0 3.38949,-4.4732 0.87595,-15.2047"
         style="fill:#e17f50;fill-opacity:1;fill-rule:nonzero;stroke:none;stroke-width:0.352778"
         id="path4572" />
      <path
         d="m 981.40083,1778.1582 c 0,0 0.012,0 0.0349,-0.01 0.0215,0 0.0557,-0.017 0.0931,-0.023 0.0765,-0.017 0.17886,-0.036 0.28998,-0.055 0.11042,-0.016 0.22931,-0.032 0.34572,-0.038 0.11677,-0.01 0.23213,-0.01 0.34361,-0.01 0.11183,0 0.22119,0.012 0.33055,0.022 0.0557,0.01 0.10972,0.012 0.16475,0.019 0.0561,0.01 0.11042,0.017 0.16334,0.022 0.0526,0.01 0.10795,0.02 0.15628,0.026 0.0462,0 0.0928,0.012 0.13123,0.018 0.0374,0 0.0734,0.015 0.0956,0.019 0.0233,0 0.0356,0.01 0.0356,0.01 0,0 -0.003,0.012 -0.009,0.034 -0.007,0.021 -0.0131,0.057 -0.03,0.093 -0.0296,0.079 -0.0833,0.1831 -0.17603,0.2823 -0.0452,0.052 -0.0988,0.1012 -0.16299,0.1432 -0.0635,0.043 -0.13335,0.089 -0.21166,0.1168 -0.0776,0.032 -0.16052,0.062 -0.2473,0.073 -0.0861,0.018 -0.17462,0.024 -0.26282,0.021 -0.0886,0 -0.17427,-0.016 -0.25823,-0.033 -0.084,-0.018 -0.16299,-0.047 -0.23636,-0.08 -0.14641,-0.068 -0.26917,-0.1574 -0.35984,-0.2533 -0.0903,-0.097 -0.15063,-0.1941 -0.1852,-0.2703 -0.0187,-0.034 -0.0279,-0.071 -0.0353,-0.092 -0.007,-0.022 -0.01,-0.034 -0.01,-0.034"
         style="fill:#f59679;fill-opacity:1;fill-rule:nonzero;stroke:none;stroke-width:0.352778"
         id="path4576" />
      <path
         d="m 985.52343,1788.3175 6.62799,2.5876 c 0,0 2.63666,0.6509 2.28388,5.4236 h -12.07346 -0.0819 -12.07347 c -0.30233,-4.4965 2.28318,-5.4236 2.28318,-5.4236 l 6.77228,-2.6437 2.95275,3.1034 z"
         style="fill:#e370be;fill-opacity:1;fill-rule:nonzero;stroke:none;stroke-width:0.352778"
         id="path4580" />
      <path
         d="m 980.30564,1767.0707 c 0,0 -4.95441,1.0502 -4.93536,8.0373 0,0 -0.36548,-1.9191 -1.53176,-1.3151 0,0 -3.70029,-9.9134 4.96358,-12.5303 z"
         style="fill:#e17f50;fill-opacity:1;fill-rule:nonzero;stroke:none;stroke-width:0.352778"
         id="path4584" />
      <path
         d="m 978.28701,1765.501 0.55527,2.5125 0.59761,-0.3168 z"
         style="fill:#f4ae7f;fill-opacity:1;fill-rule:nonzero;stroke:none;stroke-width:0.352778"
         id="path4588" />
    </g>
  </g>
</svg>
